{
.appVersion = "3306";
.formatVersion = 3;
DisplayStrings = (
"/uni0000",
"/uni00A0",
"฾",
"อ"
);
customParameters = (
{
name = panose;
value = (
0,
0,
5,
0,
0,
0,
0,
0,
0,
0
);
},
{
name = unicodeRanges;
value = (
0,
1,
27
);
},
{
name = glyphOrder;
value = (
.notdef,
space,
A,
B,
C,
CR,
D,
E,
Euro,
F,
G,
H,
I,
Ibreve,
Imacron,
Iogonek,
J,
K,
L,
M,
N,
Ntilde,
O,
OE,
Oacute,
Ocircumflex,
Odieresis,
Ograve,
Oslash,
Otilde,
P,
Q,
R,
S,
Scaron,
T,
Thorn,
U,
Uacute,
Ucircumflex,
Udieresis,
Ugrave,
V,
W,
X,
Y,
Yacute,
Ydieresis,
Z,
Zcaron,
a,
aacute,
acircumflex,
adieresis,
ae,
agrave,
ampersand,
angkhankhuthai,
aring,
asciicircum,
asciitilde,
asterisk,
at,
atilde,
b,
backslash,
baht,
bar,
boBaimaithai,
braceleft,
braceright,
bracketleft,
bracketright,
bullet,
bulletoperator,
c,
ccedilla,
choChangthai,
choChanthai,
choChingthai,
choChoethai,
circumflex,
colon,
comma,
d,
dagger,
daggerdbl,
divide,
doChadathai,
doDekthai,
dollar,
dottedcircle,
e,
eacute,
ecircumflex,
edieresis,
egrave,
eight,
eightthai,
emdash,
endash,
equal,
eth,
exclam,
f,
five,
fivethai,
florin,
foFanthai,
foFathai,
fongmanthai,
four,
fourthai,
g,
germandbls,
grave,
greater,
guilsinglleft,
guilsinglright,
h,
hoHipthai,
hoNokhukthai,
hyphen,
i,
iacute,
ibreve,
icircumflex,
idieresis,
igrave,
imacron,
j,
k,
khoKhaithai,
khoKhonthai,
khoKhuatthai,
khoKhwaithai,
khoRakhangthai,
khomutthai,
koKaithai,
l,
lakkhangyaothai,
less,
loChulathai,
loLingthai,
luthai,
m,
maiChattawathai,
maiEkthai,
maiHanaKatthai,
maiThothai,
maiTrithai,
maitaikhuthai,
maiyamokthai,
moMathai,
multiply,
n,
ngoNguthai,
nikhahitthai,
nine,
ninethai,
noNenthai,
noNuthai,
notdef_2,
ntilde,
numbersign,
o,
oAngthai,
oacute,
ocircumflex,
odieresis,
oe,
ograve,
one,
onethai,
oslash,
otilde,
p,
paiyannoithai,
parenleft,
parenright,
percent,
period,
perthousand,
phinthuthai,
phoPhanthai,
phoPhungthai,
phoSamphaothai,
plus,
poPlathai,
q,
question,
quotedbl,
quotedblbase,
quotedblleft,
quotedblright,
quoteleft,
quoteright,
quotesinglbase,

glyphs = (
{
glyphname = .notdef;
layers = (
{
layerId = m01;
shapes = (
{
closed = 1;
nodes = (
(0,456,l),
(91,456,o),
(228,456,o),
(410,456,c),
(410,51,l),
(319,51,o),
(182,51,o),
(0,51,c)
);
},
{
closed = 1;
nodes = (
(51,102,l),
(120,102,o),
(222,102,o),
(358,102,c),
(358,404,l),
(290,404,o),
(188,404,o),
(51,404,c)
);
}
);
width = 543;
}
);
note = .notdef;
},
{
glyphname = A;
layers = (
{
layerId = m01;
shapes = (
{
closed = 1;
nodes = (
(39,0,l),
(45,25,o),
(57,73,o),
(76,146,c),
(237,146,l),
(244,122,o),
(257,73,o),
(276,0,c),
(338,0,l),
(314,85,o),
(267,254,o),
(196,507,c),
(121,507,l),
(97,422,o),
(49,253,o),
(-24,0,c)
);
},
{
closed = 1;
nodes = (
(89,197,l),
(100,242,o),
(123,331,o),
(158,466,c),
(169,421,o),
(190,332,o),
(223,197,c)
);
}
);
width = 376;
}
);
note = A;
unicode = 65;
},
{
glyphname = B;
layers = (
{
layerId = m01;
shapes = (
{
closed = 1;
nodes = (
(157,0,ls),
(257,0,o),
(309,50,o),
(309,150,cs),
(309,222,o),
(281,261,o),
(221,269,c),
(277,289,o),
(297,320,o),
(297,381,cs),
(297,462,o),
(253,507,o),
(168,507,cs),
(136,507,o),
(88,507,o),
(24,507,c),
(24,431,ls),
(24,359,o),
(24,215,o),
(24,0,c)
);
},
{
closed = 1;
nodes = (
(80,456,l),
(129,456,ls),
(217,456,o),
(237,437,o),
(237,377,cs),
(237,310,o),
(213,290,o),
(129,290,cs),
(80,290,l),
(80,297,o),
(80,310,o),
(80,331,cs)
);
},
{
closed = 1;
nodes = (
(80,50,l),
(80,98,ls),
(80,121,o),
(80,169,o),
(80,240,c),
(129,240,ls),
(232,240,o),
(251,219,o),
(251,146,cs),
(251,78,o),
(232,50,o),
(168,50,cs)
);
}
);
width = 376;
}
);
note = B;
unicode = 66;
},
{
glyphname = C;
layers = (
{
layerId = m01;
shapes = (
{
closed = 1;
nodes = (
(309,354,l),
(309,453,o),
(255,517,o),
(166,517,cs),
(66,517,o),
(5,459,o),
(5,259,cs),
(5,82,o),
(36,-12,o),
(167,-12,cs),
(214,-12,o),
(251,8,o),
(276,45,cs),
(307,89,o),
(304,122,o),
(309,183,c),
(253,183,l),
(252,178,o),
(251,166,o),
(250,148,c),
(238,65,o),
(213,39,o),
(162,39,cs),
(97,39,o),
(72,91,o),
(63,208,c),
(63,261,ls),
(63,400,o),
(93,466,o),
(162,466,cs),
(221,466,o),
(253,429,o),
(253,354,c)
);
}
);
width = 376;
}
);
note = C;
unicode = 67;
},
{
glyphname = D;
layers = (
{
layerId = m01;
shapes = (
{
closed = 1;
nodes = (
(174,0,ls),
(279,0,o),
(340,70,o),
(340,253,cs),
(340,422,o),
(297,507,o),
(164,507,cs),
(133,507,o),
(86,507,o),
(25,507,c),
(25,431,ls),
(25,359,o),
(25,215,o),
(25,0,c)
);
},
{
closed = 1;
nodes = (
(81,456,l),
(171,456,ls),
(248,456,o),
(282,402,o),
(282,263,cs),
(282,110,o),
(251,50,o),
(171,50,cs),
(81,50,l),
(81,93,o),
(81,177,o),
(81,304,cs)
);
}
);
width = 413;
}
);
note = D;
unicode = 68;
},
{
glyphname = E;
layers = (
{
layerId = m01;
shapes = (
{
closed = 1;
nodes = (
(274,0,l),
(274,50,l),
(241,50,o),
(175,50,o),
(76,50,c),
(76,238,l),
(107,238,o),
(168,238,o),
(260,238,c),
(260,289,l),
(229,289,o),
(168,289,o),
(76,289,c),
(76,456,l),
(109,456,o),
(174,456,o),
(272,456,c),
(272,507,l),
(230,507,o),
(146,507,o),
(19,507,c),
(19,367,ls),
(19,306,o),
(19,183,o),
(19,0,c)
);
}
);
width = 338;
}
);
note = E;
unicode = 69;
},
{
glyphname = Euro;
layers = (
{
layerId = m01;
shapes = (
{
closed = 1;
nodes = (
(246,256,ls),
(246,300,o),
(151,333,o),
(67,333,c),
(74,353,o),
(92,364,o),
(119,364,cs),
(128,364,o),
(146,360,o),
(175,353,cs),
(204,346,o),
(226,342,o),
(239,342,cs),
(262,342,o),
(282,347,o),
(303,362,c),
(298,374,o),
(290,392,o),
(279,415,c),
(276,414,o),
(272,411,o),
(265,407,cs),
(254,399,o),
(244,396,o),
(231,396,cs),
(217,396,o),
(199,399,o),
(176,406,cs),
(153,412,o),
(138,415,o),
(130,415,cs),
(73,415,o),
(20,370,o),
(0,302,c),
(23,302,o),
(53,299,o),
(82,292,cs),
(109,287,o),
(134,279,o),
(156,270,cs),
(178,261,o),
(189,251,o),
(189,242,cs),
(189,120,l),
(161,201,o),
(138,241,o),
(98,241,cs),
(57,241,o),
(32,205,o),
(32,165,cs),
(32,125,o),
(58,89,o),
(95,89,cs),
(115,89,o),
(135,100,o),
(144,117,c),
(157,97,o),
(169,70,o),
(181,26,cs),
(183,20,o),
(185,11,o),
(188,0,c),
(198,0,o),
(217,0,o),
(246,0,c)
);
},
{
closed = 1;
nodes = (
(71,177,o),
(80,193,o),
(95,193,cs),
(111,193,o),
(120,177,o),
(120,164,cs),
(120,149,o),
(110,136,o),
(95,136,cs),
(80,136,o),
(71,148,o),
(71,164,cs)
);
}
);
width = 338;
}
);
note = Euro;
unicode = 8364;
},
{
glyphname = F;
layers = (
{
layerId = m01;
shapes = (
{
closed = 1;
nodes = (
(76,0,l),
(76,240,l),
(104,240,o),
(160,240,o),
(245,240,c),
(245,290,l),
(216,290,o),
(160,290,o),
(76,290,c),
(76,456,l),
(106,456,o),
(166,456,o),
(257,456,c),
(257,507,l),
(218,507,o),
(138,507,o),
(19,507,c),
(19,367,ls),
(19,306,o),
(19,183,o),
(19,0,c)
);
}
);
width = 300;
}
);
note = F;
unicode = 70;
},
{
glyphname = G;
layers = (
{
layerId = m01;
shapes = (
{
closed = 1;
nodes = (
(329,260,l),
(160,260,l),
(160,252,o),
(160,235,o),
(160,210,c),
(272,210,l),
(272,79,o),
(235,39,o),
(160,39,cs),
(96,39,o),
(71,86,o),
(63,201,c),
(63,255,ls),
(63,390,o),
(88,466,o),
(176,466,cs),
(236,466,o),
(267,426,o),
(267,359,c),
(324,359,l),
(324,456,o),
(268,517,o),
(173,517,cs),
(65,517,o),
(6,450,o),
(6,257,cs),
(6,76,o),
(48,-12,o),
(168,-12,cs),
(227,-12,o),
(269,18,o),
(286,75,c),
(286,-4,l),
(293,-4,o),
(307,-4,o),
(329,-4,c)
);
}
);
width = 413;
}
);
note = G;
unicode = 71;
},
{
glyphname = H;
layers = (
{
layerId = m01;
shapes = (
{
closed = 1;
nodes = (
(79,0,l),
(79,245,l),
(111,245,o),
(175,245,o),
(272,245,c),
(272,0,l),
(281,0,o),
(300,0,o),
(329,0,c),
(329,507,l),
(320,507,o),
(301,507,o),
(272,507,c),
(272,295,l),
(240,295,o),
(176,295,o),
(79,295,c),
(79,507,l),
(70,507,o),
(51,507,o),
(23,507,c),
(23,431,ls),
(23,359,o),
(23,215,o),
(23,0,c)
);
}
);
width = 413;
}
);
note = H;
unicode = 72;
},
{
glyphname = I;
layers = (
{
layerId = m01;
shapes = (
{
closed = 1;
nodes = (
(91,0,l),
(91,507,l),
(82,507,o),
(63,507,o),
(36,507,c),
(36,431,ls),
(36,359,o),
(36,215,o),
(36,0,c)
);
}
);
width = 187;
}
);
note = I;
unicode = 73;
},
{
glyphname = Ibreve;
layers = (
{
layerId = m01;
shapes = (
{
closed = 1;
nodes = (
(916,309,ls),
(916,298,o),
(920,292,o),
(932,292,cs),
(943,292,o),
(947,298,o),
(947,309,cs),
(947,569,ls),
(947,578,o),
(942,584,o),
(933,584,cs),
(925,584,o),
(919,582,o),
(912,578,c),
(872,521,o),
(812,436,o),
(731,323,c),
(550,578,l),
(543,582,o),
(537,584,o),
(530,584,cs),
(521,584,o),
(515,578,o),
(515,569,cs),
(515,309,ls),
(515,298,o),
(520,292,o),
(531,292,cs),
(542,292,o),
(547,298,o),
(547,309,cs),
(547,539,l),
(575,498,o),
(632,417,o),
(717,296,c),
(721,293,o),
(726,291,o),
(731,291,cs),
(738,291,o),
(741,293,o),
(745,296,c),
(783,350,o),
(840,431,o),
(916,539,c)
);
},
{
closed = 1;
nodes = (
(60,583,ls),
(49,583,o),
(44,577,o),
(44,568,cs),
(44,557,o),
(49,552,o),
(60,552,cs),
(101,552,o),
(163,552,o),
(245,552,c),
(245,299,ls),
(245,297,o),
(246,295,o),
(249,294,cs),
(251,293,o),
(255,292,o),
(260,292,cs),
(265,292,o),
(269,293,o),
(272,294,cs),
(274,295,o),
(275,297,o),
(275,299,cs),
(275,355,o),
(275,439,o),
(275,552,c),
(461,552,ls),
(470,552,o),
(476,557,o),
(476,568,cs),
(476,577,o),
(470,583,o),
(461,583,cs)
);
}
);
width = 996;
}
);
note = Ibreve;
unicode = 300;
},
{
glyphname = Imacron;
layers = (
{
layerId = m01;
shapes = (
{
closed = 1;
nodes = (
(188,582,ls),
(104,582,o),
(47,530,o),
(47,466,cs),
(47,455,o),
(47,438,o),
(47,415,cs),
(47,116,ls),
(47,51,o),
(104,0,o),
(188,0,cs),
(458,0,ls),
(539,0,o),
(599,51,o),
(599,116,cs),
(599,466,ls),
(599,530,o),
(536,582,o),
(468,582,cs)
);
},
{
closed = 1;
nodes = (
(468,551,ls),
(523,551,o),
(568,511,o),
(568,466,cs),
(568,116,ls),
(568,71,o),
(526,31,o),
(458,31,cs),
(188,31,ls),
(120,31,o),
(79,71,o),
(79,116,cs),
(79,143,o),
(79,184,o),
(79,239,cs),
(79,466,ls),
(79,511,o),
(120,551,o),
(188,551,cs)
);
},
{
closed = 1;
nodes = (
(451,423,ls),
(460,423,o),
(466,427,o),
(466,438,cs),
(466,449,o),
(460,454,o),
(451,454,cs),
(273,454,ls),
(214,454,o),
(168,406,o),
(168,350,cs),
(168,215,ls),
(168,159,o),
(216,113,o),
(273,113,cs),
(452,113,ls),
(463,113,o),
(468,117,o),
(468,128,cs),
(468,139,o),
(463,143,o),
(452,143,cs),
(273,143,ls),
(233,143,o),
(199,176,o),
(199,215,cs),
(199,350,ls),
(199,390,o),
(233,423,o),
(273,423,cs)
);
}
);
width = 646;
}
);
note = Imacron;
unicode = 298;
},
{
glyphname = Iogonek;
layers = (
{
layerId = m01;
shapes = (
{
closed = 1;
nodes = (
(306,460,o),
(293,448,o),
(293,432,cs),
(293,417,o),
(306,406,o),
(319,406,cs),
(335,406,o),
(347,417,o),
(347,432,cs),
(347,448,o),
(335,460,o),
(319,460,cs)
);
},
{
closed = 1;
nodes = (
(123,303,ls),
(112,303,o),
(108,297,o),
(108,288,cs),
(108,277,o),
(112,272,o),
(123,272,cs),
(523,272,ls),
(534,272,o),
(539,277,o),
(539,288,cs),
(539,297,o),
(534,303,o),
(523,303,cs)
);
},
{
closed = 1;
nodes = (
(306,181,o),
(293,169,o),
(293,154,cs),
(293,139,o),
(306,126,o),
(319,126,cs),
(335,126,o),
(347,139,o),
(347,154,cs),
(347,169,o),
(335,181,o),
(319,181,cs)
);
}
);
width = 646;
}
);
note = Iogonek;
unicode = 302;
},
{
glyphname = J;
layers = (
{
layerId = m01;
shapes = (
{
closed = 1;
nodes = (
(-15,159,l),
(-15,153,l),
(-16,151,o),
(-16,149,o),
(-16,146,cs),
(-16,133,ls),
(-16,52,o),
(5,-10,o),
(98,-10,cs),
(181,-10,o),
(218,30,o),
(218,125,cs),
(218,507,l),
(209,507,o),
(190,507,o),
(162,507,c),
(162,129,ls),
(162,66,o),
(146,41,o),
(99,41,cs),
(55,41,o),
(40,61,o),
(40,129,cs),
(40,136,o),
(40,146,o),
(40,159,c)
);
}
);
width = 300;
}
);
note = J;
unicode = 74;
},
{
glyphname = K;
layers = (
{
layerId = m01;
shapes = (
{
closed = 1;
nodes = (
(80,0,l),
(80,176,l),
(89,187,o),
(106,210,o),
(132,245,c),
(155,204,o),
(200,123,o),
(269,0,c),
(338,0,l),
(310,49,o),
(255,148,o),
(172,295,c),
(199,330,o),
(253,401,o),
(334,507,c),
(263,507,l),
(232,464,o),
(171,377,o),
(79,247,c),
(79,507,l),
(70,507,o),
(51,507,o),
(23,507,c),
(23,431,ls),
(23,359,o),
(23,215,o),
(23,0,c)
);
}
);
width = 376;
}
);
note = K;
unicode = 75;
},
{
glyphname = L;
layers = (
{
layerId = m01;
shapes = (
{
closed = 1;
nodes = (
(289,0,l),
(289,50,l),
(254,50,o),
(185,50,o),
(82,50,c),
(82,507,l),
(73,507,o),
(54,507,o),
(26,507,c),
(26,431,ls),
(26,359,o),
(26,215,o),
(26,0,c)
);
}
);
width = 338;
}
);
note = L;
unicode = 76;
},
{
glyphname = M;
lastChange = "2026-03-15 09:32:59 +0000";
layers = (
{
layerId = m01;
shapes = (
{
closed = 1;
nodes = (
(245,113,l),
(241,86,o),
(239,76,o),
(238,82,cs),
(237,88,o),
(235,73,o),
(230,37,c),
(227,65,o),
(223,95,o),
(219,112,cs),
(120,507,l),
(103,507,o),
(70,507,o),
(20,507,c),
(20,393,ls),
(20,328,o),
(20,197,o),
(20,0,c),
(77,0,l),
(77,81,o),
(77,241,o),
(77,482,c),
(91,420,ls),
(109,350,o),
(145,210,o),
(198,0,c),
(209,0,o),
(231,0,o),
(264,0,c),
(378,444,ls),
(381,456,o),
(383,469,o),
(386,482,c),
(387,482,o),
(387,482,o),
(388,482,c),
(388,0,l),
(397,0,o),
(416,0,o),
(443,0,c),
(443,507,l),
(427,507,o),
(394,507,o),
(345,507,c)
);
}
);
width = 525;
}
);
note = M;
unicode = 77;
},
{
glyphname = N;
layers = (
{
layerId = m01;
shapes = (
{
closed = 1;
nodes = (
(274,93,l),
(274,78,l),
(275,75,o),
(275,71,o),
(275,68,cs),
(275,57,ls),
(275,55,o),
(275,52,o),
(275,48,cs),
(275,42,ls),
(275,40,o),
(275,38,o),
(274,37,c),
(239,142,o),
(185,298,o),
(113,507,c),
(22,507,l),
(22,494,o),
(22,469,o),
(22,431,cs),
(22,0,l),
(31,0,o),
(50,0,o),
(78,0,c),
(78,404,ls),
(78,413,o),
(78,426,o),
(77,442,cs),
(76,459,o),
(76,472,o),
(76,482,c),
(78,482,l),
(82,449,o),
(87,431,o),
(96,406,cs),
(128,315,o),
(176,180,o),
(239,0,c),
(254,0,o),
(284,0,o),
(330,0,c),
(330,507,l),
(321,507,o),
(302,507,o),
(274,507,c)
);
}
);
width = 413;
}
);
note = N;
unicode = 78;
},
{
glyphname = Ntilde;
lastChange = "2026-03-15 09:22:19 +0000";
layers = (
{
layerId = m01;
shapes = (
{
closed = 1;
nodes = (
(-160,530,l),
(-151,546,o),
(-147,560,o),
(-147,573,cs),
(-147,613,o),
(-177,647,o),
(-214,647,cs),
(-254,647,o),
(-280,614,o),
(-280,573,cs),
(-280,516,o),
(-225,479,o),
(-138,479,cs),
(-107,479,o),
(-75,489,o),
(-47,505,cs),
(5,536,o),
(44,590,o),
(44,647,c),
(-14,647,l),
(-14,583,o),
(-82,530,o),
(-150,530,cs)
);
},
{
closed = 1;
nodes = (
(-240,585,o),
(-229,600,o),
(-214,600,cs),
(-201,600,o),
(-188,586,o),
(-188,570,cs),
(-188,553,o),
(-202,544,o),
(-214,544,cs),
(-227,544,o),
(-240,553,o),
(-240,570,cs)
);
}
);
width = 0;
},
{
associatedMasterId = m01;
attr = {
colorPalette = 1;
};
layerId = "8920A3FB-EB67-4BE0-AB76-4759A5B1891F";
name = "15 Mar 69 BE 16:22";
shapes = (
{
closed = 1;
nodes = (
(-160,530,l),
(-151,546,o),
(-147,560,o),
(-147,573,cs),
(-147,613,o),
(-177,647,o),
(-214,647,cs),
(-254,647,o),
(-280,614,o),
(-280,573,cs),
(-280,516,o),
(-225,479,o),
(-138,479,cs),
(-107,479,o),
(-75,489,o),
(-47,505,cs),
(5,536,o),
(44,590,o),
(44,647,c),
(-14,647,l),
(-14,583,o),
(-82,530,o),
(-150,530,cs)
);
},
{
closed = 1;
nodes = (
(-240,585,o),
(-229,600,o),
(-214,600,cs),
(-201,600,o),
(-188,586,o),
(-188,570,cs),
(-188,553,o),
(-202,544,o),
(-214,544,cs),
(-227,544,o),
(-240,553,o),
(-240,570,cs)
);
}
);
visible = 1;
width = 0;
}
);
note = Ntilde;
unicode = 209;
},
{
glyphname = O;
layers = (
{
layerId = m01;
shapes = (
{
closed = 1;
nodes = (
(72,517,o),
(9,461,o),
(9,264,cs),
(9,68,o),
(56,-12,o),
(176,-12,cs),
(293,-12,o),
(343,64,o),
(343,264,cs),
(343,440,o),
(290,517,o),
(177,517,cs)
);
},
{
closed = 1;
nodes = (
(250,466,o),
(285,404,o),
(285,263,cs),
(285,174,o),
(277,115,o),
(260,84,cs),
(244,54,o),
(216,39,o),
(176,39,cs),
(135,39,o),
(107,54,o),
(92,84,cs),
(76,114,o),
(68,174,o),
(68,263,cs),
(68,403,o),
(100,466,o),
(175,466,cs)
);
}
);
width = 413;
}
);
note = O;
unicode = 79;
},
{
glyphname = OE;
lastChange = "2026-03-15 09:22:31 +0000";
layers = (
{
layerId = m01;
shapes = (
{
closed = 1;
nodes = (
(-263,545,o),
(-284,525,o),
(-325,513,c),
(-323,504,o),
(-320,490,o),
(-317,471,c),
(-272,476,o),
(-225,490,o),
(-182,510,cs),
(-101,547,o),
(-31,607,o),
(0,670,c),
(-11,677,o),
(-27,688,o),
(-49,703,c),
(-57,684,o),
(-72,661,o),
(-92,640,cs),
(-128,600,o),
(-180,562,o),
(-220,546,c),
(-207,563,o),
(-200,604,o),
(-200,633,cs),
(-200,688,o),
(-228,719,o),
(-265,719,cs),
(-300,719,o),
(-328,687,o),
(-328,648,cs),
(-328,611,o),
(-303,578,o),
(-263,578,c)
);
},
{
closed = 1;
nodes = (
(-290,663,o),
(-281,675,o),
(-265,675,cs),
(-250,675,o),
(-241,663,o),
(-241,648,cs),
(-241,635,o),
(-253,622,o),
(-265,622,cs),
(-278,622,o),
(-290,633,o),
(-290,648,cs)
);
}
);
width = 0;
},
{
associatedMasterId = m01;
attr = {
colorPalette = 1;
};
layerId = "DA80978F-AC17-4C0F-BC1E-D00D2D24A12E";
name = "15 Mar 69 BE 16:22";
shapes = (
{
closed = 1;
nodes = (
(-263,545,o),
(-284,525,o),
(-325,513,c),
(-323,504,o),
(-320,490,o),
(-317,471,c),
(-272,476,o),
(-225,490,o),
(-182,510,cs),
(-101,547,o),
(-31,607,o),
(0,670,c),
(-11,677,o),
(-27,688,o),
(-49,703,c),
(-57,684,o),
(-72,661,o),
(-92,640,cs),
(-128,600,o),
(-180,562,o),
(-220,546,c),
(-207,563,o),
(-200,604,o),
(-200,633,cs),
(-200,688,o),
(-228,719,o),
(-265,719,cs),
(-300,719,o),
(-328,687,o),
(-328,648,cs),
(-328,611,o),
(-303,578,o),
(-263,578,c)
);
},
{
closed = 1;
nodes = (
(-290,663,o),
(-281,675,o),
(-265,675,cs),
(-250,675,o),
(-241,663,o),
(-241,648,cs),
(-241,635,o),
(-253,622,o),
(-265,622,cs),
(-278,622,o),
(-290,633,o),
(-290,648,cs)
);
}
);
visible = 1;
width = 0;
}
);
note = OE;
unicode = 338;
},
{
glyphname = Oacute;
lastChange = "2026-03-15 09:34:05 +0000";
layers = (
{
layerId = m01;
shapes = (
{
closed = 1;
nodes = (
(-152,643,o),
(-186,607,o),
(-186,567,cs),
(-186,527,o),
(-152,492,o),
(-111,492,cs),
(-67,492,o),
(-35,528,o),
(-35,567,cs),
(-35,608,o),
(-70,643,o),
(-111,643,cs)
);
},
{
closed = 1;
nodes = (
(-140,583,o),
(-126,597,o),
(-111,597,cs),
(-95,597,o),
(-81,583,o),
(-81,567,cs),
(-81,552,o),
(-95,538,o),
(-111,538,cs),
(-127,538,o),
(-140,551,o),
(-140,567,cs)
);
},
{
closed = 1;
nodes = (
(51,415,o),
(-1,371,o),
(-10,314,c),
(44,314,l),
(55,349,o),
(79,365,o),
(116,365,cs),
(153,365,o),
(182,344,o),
(182,305,cs),
(182,0,l),
(191,0,o),
(210,0,o),
(239,0,c),
(239,318,ls),
(239,371,o),
(184,415,o),
(116,415,cs)
);
}
);
width = 321;
},
{
associatedMasterId = m01;
attr = {
colorPalette = 1;
};
layerId = "FBFD7C78-F5F6-4447-B4D4-CE2E412B1EBD";
name = "15 Mar 69 BE 16:34";
shapes = (
{
closed = 1;
nodes = (
(-152,643,o),
(-186,607,o),
(-186,567,cs),
(-186,527,o),
(-152,492,o),
(-111,492,cs),
(-67,492,o),
(-35,528,o),
(-35,567,cs),
(-35,608,o),
(-70,643,o),
(-111,643,cs)
);
},
{
closed = 1;
nodes = (
(-140,583,o),
(-126,597,o),
(-111,597,cs),
(-95,597,o),
(-81,583,o),
(-81,567,cs),
(-81,552,o),
(-95,538,o),
(-111,538,cs),
(-127,538,o),
(-140,551,o),
(-140,567,cs)
);
},
{
closed = 1;
nodes = (
(51,415,o),
(-1,371,o),
(-10,314,c),
(44,314,l),
(55,349,o),
(79,365,o),
(116,365,cs),
(153,365,o),
(182,344,o),
(182,305,cs),
(182,0,l),
(191,0,o),
(210,0,o),
(239,0,c),
(239,318,ls),
(239,371,o),
(184,415,o),
(116,415,cs)
);
}
);
visible = 1;
width = 321;
}
);
note = Oacute;
unicode = 211;
},
{
glyphname = Ocircumflex;
lastChange = "2026-03-15 09:22:50 +0000";
layers = (
{
layerId = m01;
shapes = (
{
closed = 1;
nodes = (
(-340,514,o),
(-288,519,o),
(-252,519,cs),
(-195,519,o),
(-121,511,o),
(-72,502,c),
(-100,577,o),
(-164,629,o),
(-244,629,cs),
(-317,629,o),
(-381,576,o),
(-381,505,c)
);
},
{
closed = 1;
nodes = (
(-180,553,o),
(-214,556,o),
(-251,556,cs),
(-268,556,o),
(-300,553,o),
(-317,549,c),
(-304,569,o),
(-274,583,o),
(-241,583,cs),
(-202,583,o),
(-167,567,o),
(-148,548,c)
);
}
);
width = 0;
},
{
associatedMasterId = m01;
attr = {
colorPalette = 1;
};
layerId = "D72CA273-DEC3-495B-9745-E025391CD64B";
name = "15 Mar 69 BE 16:22";
shapes = (
{
closed = 1;
nodes = (
(-340,514,o),
(-288,519,o),
(-252,519,cs),
(-195,519,o),
(-121,511,o),
(-72,502,c),
(-100,577,o),
(-164,629,o),
(-244,629,cs),
(-317,629,o),
(-381,576,o),
(-381,505,c)
);
},
{
closed = 1;
nodes = (
(-180,553,o),
(-214,556,o),
(-251,556,cs),
(-268,556,o),
(-300,553,o),
(-317,549,c),
(-304,569,o),
(-274,583,o),
(-241,583,cs),
(-202,583,o),
(-167,567,o),
(-148,548,c)
);
}
);
visible = 1;
width = 0;
}
);
note = Ocircumflex;
unicode = 212;
},
{
glyphname = Odieresis;
lastChange = "2026-03-15 09:23:04 +0000";
layers = (
{
layerId = m01;
shapes = (
{
closed = 1;
nodes = (
(-202,494,o),
(-116,484,o),
(-72,476,c),
(-83,505,o),
(-100,530,o),
(-124,554,c),
(-99,563,o),
(-82,586,o),
(-82,613,cs),
(-82,648,o),
(-109,676,o),
(-144,676,cs),
(-179,676,o),
(-207,648,o),
(-207,613,cs),
(-207,604,l),
(-206,603,o),
(-206,602,o),
(-206,601,cs),
(-206,600,o),
(-206,599,o),
(-205,598,c),
(-220,601,o),
(-236,603,o),
(-249,603,cs),
(-325,603,o),
(-391,548,o),
(-391,479,c),
(-352,488,o),
(-297,494,o),
(-257,494,cs)
);
},
{
closed = 1;
nodes = (
(-169,626,o),
(-161,637,o),
(-145,637,cs),
(-130,637,o),
(-122,626,o),
(-122,613,cs),
(-122,601,o),
(-130,590,o),
(-145,590,cs),
(-161,590,o),
(-169,601,o),
(-169,613,cs)
);
},
{
closed = 1;
nodes = (
(-196,529,o),
(-224,531,o),
(-253,531,cs),
(-273,531,o),
(-307,530,o),
(-328,523,c),
(-315,542,o),
(-279,557,o),
(-246,557,cs),
(-207,557,o),
(-167,539,o),
(-148,522,c)
);
}
);
width = 0;
},
{
associatedMasterId = m01;
attr = {
colorPalette = 1;
};
layerId = "DDAEA75D-A2B2-4234-88B9-FCAE13F087C8";
name = "15 Mar 69 BE 16:23";
shapes = (
{
closed = 1;
nodes = (
(-202,494,o),
(-116,484,o),
(-72,476,c),
(-83,505,o),
(-100,530,o),
(-124,554,c),
(-99,563,o),
(-82,586,o),
(-82,613,cs),
(-82,648,o),
(-109,676,o),
(-144,676,cs),
(-179,676,o),
(-207,648,o),
(-207,613,cs),
(-207,604,l),
(-206,603,o),
(-206,602,o),
(-206,601,cs),
(-206,600,o),
(-206,599,o),
(-205,598,c),
(-220,601,o),
(-236,603,o),
(-249,603,cs),
(-325,603,o),
(-391,548,o),
(-391,479,c),
(-352,488,o),
(-297,494,o),
(-257,494,cs)
);
},
{
closed = 1;
nodes = (
(-169,626,o),
(-161,637,o),
(-145,637,cs),
(-130,637,o),
(-122,626,o),
(-122,613,cs),
(-122,601,o),
(-130,590,o),
(-145,590,cs),
(-161,590,o),
(-169,601,o),
(-169,613,cs)
);
},
{
closed = 1;
nodes = (
(-196,529,o),
(-224,531,o),
(-253,531,cs),
(-273,531,o),
(-307,530,o),
(-328,523,c),
(-315,542,o),
(-279,557,o),
(-246,557,cs),
(-207,557,o),
(-167,539,o),
(-148,522,c)
);
}
);
visible = 1;
width = 0;
}
);
note = Odieresis;
unicode = 214;
},
{
glyphname = Ograve;
lastChange = "2026-03-15 09:23:18 +0000";
layers = (
{
layerId = m01;
shapes = (
{
closed = 1;
nodes = (
(51,415,o),
(-1,371,o),
(-10,314,c),
(44,314,l),
(55,349,o),
(79,365,o),
(116,365,cs),
(153,365,o),
(182,344,o),
(182,305,cs),
(182,0,l),
(191,0,o),
(210,0,o),
(239,0,c),
(239,318,ls),
(239,371,o),
(184,415,o),
(116,415,cs)
);
}
);
width = 321;
},
{
associatedMasterId = m01;
attr = {
colorPalette = 1;
};
layerId = "F6D76760-A05E-4DA5-8F8C-D4682525BB10";
name = "15 Mar 69 BE 16:23";
shapes = (
{
closed = 1;
nodes = (
(51,415,o),
(-1,371,o),
(-10,314,c),
(44,314,l),
(55,349,o),
(79,365,o),
(116,365,cs),
(153,365,o),
(182,344,o),
(182,305,cs),
(182,0,l),
(191,0,o),
(210,0,o),
(239,0,c),
(239,318,ls),
(239,371,o),
(184,415,o),
(116,415,cs)
);
}
);
visible = 1;
width = 321;
}
);
note = Ograve;
unicode = 210;
},
{
glyphname = Oslash;
lastChange = "2026-03-15 09:23:42 +0000";
layers = (
{
layerId = m01;
shapes = (
{
closed = 1;
nodes = (
(-82,-276,l),
(-82,-109,ls),
(-82,-68,o),
(-111,-36,o),
(-146,-36,cs),
(-183,-36,o),
(-212,-66,o),
(-212,-110,cs),
(-212,-150,o),
(-184,-183,o),
(-148,-183,cs),
(-146,-183,o),
(-143,-183,o),
(-138,-182,c),
(-138,-198,o),
(-138,-229,o),
(-138,-276,c)
);
},
{
closed = 1;
nodes = (
(-173,-94,o),
(-162,-81,o),
(-147,-81,cs),
(-132,-81,o),
(-122,-92,o),
(-122,-109,cs),
(-122,-124,o),
(-134,-136,o),
(-147,-136,cs),
(-163,-136,o),
(-173,-125,o),
(-173,-109,cs)
);
}
);
width = 0;
},
{
associatedMasterId = m01;
attr = {
colorPalette = 1;
};
layerId = "55E1E45E-9FA4-409D-A23A-7E9E23519504";
name = "15 Mar 69 BE 16:23";
shapes = (
{
closed = 1;
nodes = (
(-82,-276,l),
(-82,-109,ls),
(-82,-68,o),
(-111,-36,o),
(-146,-36,cs),
(-183,-36,o),
(-212,-66,o),
(-212,-110,cs),
(-212,-150,o),
(-184,-183,o),
(-148,-183,cs),
(-146,-183,o),
(-143,-183,o),
(-138,-182,c),
(-138,-198,o),
(-138,-229,o),
(-138,-276,c)
);
},
{
closed = 1;
nodes = (
(-173,-94,o),
(-162,-81,o),
(-147,-81,cs),
(-132,-81,o),
(-122,-92,o),
(-122,-109,cs),
(-122,-124,o),
(-134,-136,o),
(-147,-136,cs),
(-163,-136,o),
(-173,-125,o),
(-173,-109,cs)
);
}
);
visible = 1;
width = 0;
}
);
note = Oslash;
unicode = 216;
},
{
glyphname = Otilde;
lastChange = "2026-03-15 09:23:30 +0000";
layers = (
{
layerId = m01;
shapes = (
{
closed = 1;
nodes = (
(-82,645,l),
(-91,645,o),
(-110,645,o),
(-138,645,c),
(-138,573,l),
(-167,596,o),
(-209,608,o),
(-246,608,cs),
(-322,608,o),
(-388,553,o),
(-388,484,c),
(-347,493,o),
(-291,499,o),
(-254,499,cs),
(-201,499,o),
(-112,489,o),
(-69,481,c),
(-70,484,o),
(-70,487,o),
(-71,488,c),
(-74,496,ls),
(-75,499,o),
(-78,503,o),
(-82,510,c)
);
},
{
closed = 1;
nodes = (
(-160,529,o),
(-177,531,o),
(-195,534,cs),
(-212,536,o),
(-231,537,o),
(-250,537,cs),
(-273,537,o),
(-304,533,o),
(-325,528,c),
(-312,547,o),
(-279,562,o),
(-243,562,cs),
(-206,562,o),
(-165,547,o),
(-145,527,c)
);
}
);
width = 0;
},
{
associatedMasterId = m01;
attr = {
colorPalette = 1;
};
layerId = "0056C23A-1AC5-4EF9-AAE2-B6B495FDC110";
name = "15 Mar 69 BE 16:23";
shapes = (
{
closed = 1;
nodes = (
(-82,645,l),
(-91,645,o),
(-110,645,o),
(-138,645,c),
(-138,573,l),
(-167,596,o),
(-209,608,o),
(-246,608,cs),
(-322,608,o),
(-388,553,o),
(-388,484,c),
(-347,493,o),
(-291,499,o),
(-254,499,cs),
(-201,499,o),
(-112,489,o),
(-69,481,c),
(-70,484,o),
(-70,487,o),
(-71,488,c),
(-74,496,ls),
(-75,499,o),
(-78,503,o),
(-82,510,c)
);
},
{
closed = 1;
nodes = (
(-160,529,o),
(-177,531,o),
(-195,534,cs),
(-212,536,o),
(-231,537,o),
(-250,537,cs),
(-273,537,o),
(-304,533,o),
(-325,528,c),
(-312,547,o),
(-279,562,o),
(-243,562,cs),
(-206,562,o),
(-165,547,o),
(-145,527,c)
);
}
);
width = 0;
}
);
note = Otilde;
unicode = 213;
},
{
glyphname = P;
layers = (
{
layerId = m01;
shapes = (
{
closed = 1;
nodes = (
(84,0,l),
(84,36,o),
(84,108,o),
(84,215,c),
(155,215,l),
(274,226,o),
(321,257,o),
(321,366,cs),
(321,453,o),
(276,507,o),
(161,507,cs),
(131,507,o),
(87,507,o),
(28,507,c),
(28,431,ls),
(28,359,o),
(28,215,o),
(28,0,c)
);
},
{
closed = 1;
nodes = (
(84,456,l),
(141,456,ls),
(233,456,o),
(262,430,o),
(262,365,cs),
(262,289,o),
(235,265,o),
(138,265,cs),
(126,265,o),
(108,265,o),
(84,265,c)
);
}
);
width = 376;
}
);
note = P;
unicode = 80;
},
{
glyphname = Q;
layers = (
{
layerId = m01;
shapes = (
{
closed = 1;
nodes = (
(327,89,o),
(344,171,o),
(344,264,cs),
(344,440,o),
(291,517,o),
(175,517,cs),
(70,517,o),
(9,457,o),
(9,264,cs),
(9,68,o),
(56,-12,o),
(176,-12,cs),
(211,-12,o),
(255,2,o),
(278,25,c),
(290,14,o),
(309,-2,o),
(334,-23,c),
(339,-17,o),
(348,-5,o),
(362,12,c),
(353,20,o),
(333,36,o),
(304,60,c)
);
},
{
closed = 1;
nodes = (
(213,44,o),
(199,39,o),
(175,39,cs),
(100,39,o),
(68,102,o),
(68,242,cs),
(68,331,o),
(76,390,o),
(92,420,cs),
(108,451,o),
(136,466,o),
(176,466,cs),
(216,466,o),
(244,451,o),
(261,421,cs),
(278,390,o),
(286,331,o),
(286,242,cs),
(286,181,o),
(271,113,o),
(262,96,c),
(215,134,l),
(210,128,o),
(200,116,o),
(185,97,c),
(194,90,o),
(211,77,o),
(236,57,c)
);
}
);
width = 413;
}
);
note = Q;
unicode = 81;
},
{
glyphname = R;
layers = (
{
layerId = m01;
shapes = (
{
closed = 1;
nodes = (
(84,223,l),
(181,223,ls),
(214,223,o),
(235,214,o),
(247,197,cs),
(259,182,o),
(265,163,o),
(266,138,cs),
(267,113,o),
(269,87,o),
(272,60,cs),
(273,53,o),
(276,42,o),
(279,27,cs),
(280,16,o),
(282,7,o),
(286,0,c),
(301,0,o),
(322,0,o),
(351,0,c),
(351,11,l),
(344,11,o),
(338,19,o),
(333,36,cs),
(325,69,o),
(322,104,o),
(321,127,cs),
(321,156,l),
(312,225,o),
(297,244,o),
(230,252,c),
(291,260,o),
(328,301,o),
(328,362,cs),
(328,466,o),
(282,507,o),
(158,507,cs),
(28,507,l),
(28,494,o),
(28,469,o),
(28,431,cs),
(28,0,l),
(37,0,o),
(56,0,o),
(84,0,c)
);
},
{
closed = 1;
nodes = (
(84,456,l),
(163,456,ls),
(239,456,o),
(270,430,o),
(270,367,cs),
(270,306,o),
(236,273,o),
(172,273,cs),
(153,273,o),
(123,273,o),
(84,273,c)
);
}
);
width = 413;
}
);
note = R;
unicode = 82;
},
{
glyphname = S;
layers = (
{
layerId = m01;
shapes = (
{
closed = 1;
nodes = (
(296,374,l),
(296,469,o),
(245,517,o),
(152,517,cs),
(64,517,o),
(10,456,o),
(10,379,cs),
(10,287,o),
(50,271,o),
(121,244,cs),
(132,239,o),
(149,233,o),
(171,224,cs),
(251,193,o),
(253,186,o),
(253,127,cs),
(253,67,o),
(213,39,o),
(156,39,cs),
(84,39,o),
(59,68,o),
(59,161,c),
(4,161,l),
(4,48,o),
(43,-12,o),
(154,-12,cs),
(249,-12,o),
(310,44,o),
(310,140,cs),
(310,213,o),
(285,241,o),
(197,276,cs),
(179,283,o),
(152,294,o),
(117,307,cs),
(85,319,o),
(69,341,o),
(69,376,cs),
(69,436,o),
(98,466,o),
(159,466,cs),
(211,466,o),
(240,431,o),
(240,374,c)
);
}
);
width = 376;
}
);
note = S;
unicode = 83;
},
{
glyphname = Scaron;
lastChange = "2026-03-15 09:24:04 +0000";
layers = (
{
layerId = m01;
shapes = (
{
closed = 1;
nodes = (
(-158,560,o),
(-163,572,o),
(-167,583,c),
(-162,583,ls),
(-149,582,o),
(-137,580,o),
(-126,579,cs),
(-115,578,o),
(-104,577,o),
(-95,577,cs),
(-63,577,o),
(-35,586,o),
(-12,617,c),
(-25,624,o),
(-45,635,o),
(-71,648,c),
(-76,633,o),
(-100,618,o),
(-127,618,cs),
(-162,619,o),
(-231,627,o),
(-260,598,cs),
(-275,584,o),
(-283,567,o),
(-283,547,cs),
(-283,511,o),
(-256,481,o),
(-219,481,cs),
(-184,481,o),
(-158,512,o),
(-158,547,cs)
);
},
{
closed = 1;
nodes = (
(-244,564,o),
(-232,575,o),
(-219,575,cs),
(-206,575,o),
(-195,564,o),
(-195,549,cs),
(-195,534,o),
(-204,523,o),
(-219,523,cs),
(-234,523,o),
(-244,534,o),
(-244,549,cs)
);
}
);
width = 0;
},
{
associatedMasterId = m01;
attr = {
colorPalette = 1;
};
layerId = "19EA8983-A708-4265-9BEF-08F70683AA2A";
name = "15 Mar 69 BE 16:23";
shapes = (
{
closed = 1;
nodes = (
(-158,560,o),
(-163,572,o),
(-167,583,c),
(-162,583,ls),
(-149,582,o),
(-137,580,o),
(-126,579,cs),
(-115,578,o),
(-104,577,o),
(-95,577,cs),
(-63,577,o),
(-35,586,o),
(-12,617,c),
(-25,624,o),
(-45,635,o),
(-71,648,c),
(-76,633,o),
(-100,618,o),
(-127,618,cs),
(-162,619,o),
(-231,627,o),
(-260,598,cs),
(-275,584,o),
(-283,567,o),
(-283,547,cs),
(-283,511,o),
(-256,481,o),
(-219,481,cs),
(-184,481,o),
(-158,512,o),
(-158,547,cs)
);
},
{
closed = 1;
nodes = (
(-244,564,o),
(-232,575,o),
(-219,575,cs),
(-206,575,o),
(-195,564,o),
(-195,549,cs),
(-195,534,o),
(-204,523,o),
(-219,523,cs),
(-234,523,o),
(-244,534,o),
(-244,549,cs)
);
}
);
visible = 1;
width = 0;
}
);
note = Scaron;
unicode = 352;
},
{
glyphname = T;
layers = (
{
layerId = m01;
shapes = (
{
closed = 1;
nodes = (
(-20,456,l),
(1,456,o),
(45,456,o),
(111,456,c),
(111,0,l),
(120,0,o),
(139,0,o),
(167,0,c),
(167,456,l),
(189,456,o),
(233,456,o),
(298,456,c),
(298,507,l),
(245,507,o),
(139,507,o),
(-20,507,c)
);
}
);
width = 338;
}
);
note = T;
unicode = 84;
},
{
glyphname = Thorn;
layers = (
{
layerId = m01;
shapes = (
{
closed = 1;
nodes = (
(379,65,ls),
(379,59,o),
(375,55,o),
(368,52,cs),
(361,49,o),
(350,48,o),
(334,48,cs),
(324,48,ls),
(312,48,o),
(303,50,o),
(297,54,cs),
(292,58,o),
(289,62,o),
(289,65,cs),
(289,297,ls),
(289,369,o),
(232,415,o),
(152,415,cs),
(85,415,o),
(26,376,o),
(-3,305,c),
(24,300,o),
(51,287,o),
(68,276,c),
(43,257,o),
(30,238,o),
(30,213,cs),
(30,74,ls),
(30,33,o),
(58,-3,o),
(95,-3,cs),
(132,-3,o),
(159,28,o),
(159,72,cs),
(159,115,o),
(130,147,o),
(95,147,cs),
(93,147,o),
(90,147,o),
(86,146,c),
(86,211,ls),
(86,231,o),
(111,262,o),
(140,279,c),
(135,282,o),
(129,287,o),
(121,293,cs),
(114,300,o),
(105,305,o),
(94,310,cs),
(67,323,l),
(82,344,o),
(113,362,o),
(148,362,cs),
(199,362,o),
(232,336,o),
(232,296,cs),
(232,33,ls),
(232,21,o),
(241,12,o),
(259,7,cs),
(276,1,o),
(301,-2,o),
(334,-2,cs),
(368,-2,o),
(393,1,o),
(410,7,cs),
(427,13,o),
(435,22,o),
(435,33,cs),
(435,410,l),
(426,410,o),
(407,410,o),
(379,410,c)
);
},
{
closed = 1;
nodes = (
(72,85,o),
(82,96,o),
(95,96,cs),
(107,96,o),
(119,85,o),
(119,70,cs),
(119,54,o),
(108,43,o),
(95,43,cs),
(82,43,o),
(72,54,o),
(72,70,cs)
);
}
);
width = 517;
}
);
note = Thorn;
unicode = 222;
},
{
glyphname = U;
layers = (
{
layerId = m01;
shapes = (
{
closed = 1;
nodes = (
(24,122,ls),
(24,34,o),
(81,-12,o),
(176,-12,cs),
(268,-12,o),
(328,34,o),
(328,122,cs),
(328,507,l),
(319,507,o),
(300,507,o),
(272,507,c),
(272,142,ls),
(272,70,o),
(241,39,o),
(176,39,cs),
(111,39,o),
(80,70,o),
(80,142,cs),
(80,223,o),
(80,345,o),
(80,507,c),
(24,507,l),
(24,500,o),
(24,486,o),
(24,465,cs)
);
}
);
width = 413;
}
);
note = U;
unicode = 85;
},
{
glyphname = Uacute;
layers = (
{
layerId = m01;
shapes = (
{
closed = 1;
nodes = (
(-153,-36,o),
(-176,-59,o),
(-176,-84,cs),
(-176,-112,o),
(-155,-132,o),
(-128,-132,cs),
(-101,-132,o),
(-80,-112,o),
(-80,-84,cs),
(-80,-59,o),
(-103,-36,o),
(-128,-36,cs)
);
}
);
width = 0;
}
);
note = Uacute;
unicode = 218;
},
{
glyphname = Ugrave;
lastChange = "2026-03-15 09:24:42 +0000";
layers = (
{
layerId = m01;
shapes = (
{
closed = 1;
nodes = (
(-138,-220,ls),
(-140,-228,o),
(-145,-231,o),
(-160,-231,cs),
(-172,-231,o),
(-181,-229,o),
(-181,-220,cs),
(-181,-109,ls),
(-181,-65,o),
(-232,-81,o),
(-246,-36,cs),
(-257,-2,o),
(-311,-66,o),
(-311,-110,cs),
(-311,-150,o),
(-284,-183,o),
(-248,-183,cs),
(-242,-183,l),
(-239,-182,o),
(-238,-182,o),
(-238,-182,c),
(-238,-247,ls),
(-238,-258,o),
(-207,-210,o),
(-217,-269,cs),
(-219,-282,o),
(-185,-274,o),
(-160,-274,cs),
(-135,-274,o),
(-115,-272,o),
(-102,-269,cs),
(-89,-265,o),
(-82,-258,o),
(-82,-247,cs),
(-82,-36,l),
(-91,-36,o),
(-63,-36,o),
(-91,-36,c)
);
},
{
closed = 1;
nodes = (
(-272,-96,o),
(-260,-81,o),
(-247,-81,cs),
(-232,-81,o),
(-221,-94,o),
(-221,-109,cs),
(-221,-124,o),
(-232,-136,o),
(-247,-136,cs),
(-260,-136,o),
(-272,-122,o),
(-272,-109,cs)
);
}
);
width = 0;
},
{
associatedMasterId = m01;
attr = {
colorPalette = 1;
};
layerId = "1E67B4CB-A10C-4070-95BF-620F3858092B";
name = "15 Mar 69 BE 16:05";
shapes = (
{
closed = 1;
nodes = (
(-138,-220,ls),
(-138,-228,o),
(-145,-231,o),
(-160,-231,cs),
(-172,-231,o),
(-181,-229,o),
(-181,-220,cs),
(-181,-109,ls),
(-181,-65,o),
(-213,-36,o),
(-246,-36,cs),
(-282,-36,o),
(-311,-66,o),
(-311,-110,cs),
(-311,-150,o),
(-284,-183,o),
(-248,-183,cs),
(-242,-183,l),
(-239,-182,o),
(-238,-182,o),
(-238,-182,c),
(-238,-247,ls),
(-238,-258,o),
(-231,-266,o),
(-217,-269,cs),
(-204,-272,o),
(-185,-274,o),
(-160,-274,cs),
(-135,-274,o),
(-115,-272,o),
(-102,-269,cs),
(-89,-265,o),
(-82,-258,o),
(-82,-247,cs),
(-82,-36,l),
(-91,-36,o),
(-110,-36,o),
(-138,-36,c)
);
},
{
closed = 1;
nodes = (
(-272,-96,o),
(-260,-81,o),
(-247,-81,cs),
(-232,-81,o),
(-221,-94,o),
(-221,-109,cs),
(-221,-124,o),
(-232,-136,o),
(-247,-136,cs),
(-260,-136,o),
(-272,-122,o),
(-272,-109,cs)
);
}
);
visible = 1;
width = 0;
}
);
note = Ugrave;
unicode = 217;
},
{
glyphname = V;
layers = (
{
layerId = m01;
shapes = (
{
closed = 1;
nodes = (
(136,118,o),
(97,274,o),
(39,507,c),
(-24,507,l),
(1,422,o),
(49,253,o),
(122,0,c),
(191,0,l),
(216,85,o),
(265,254,o),
(338,507,c),
(275,507,l),
(256,429,o),
(216,274,o),
(156,41,c)
);
}
);
width = 376;
}
);
note = V;
unicode = 86;
},
{
glyphname = W;
layers = (
{
layerId = m01;
shapes = (
{
closed = 1;
nodes = (
(235,354,o),
(237,366,o),
(238,379,cs),
(245,428,ls),
(246,437,o),
(247,449,o),
(250,466,c),
(250,419,o),
(249,420,o),
(264,344,cs),
(279,267,o),
(302,153,o),
(332,0,c),
(401,0,l),
(421,85,o),
(461,254,o),
(521,507,c),
(459,507,l),
(446,448,o),
(422,331,o),
(385,154,c),
(384,144,o),
(382,134,o),
(380,125,cs),
(376,97,ls),
(374,85,o),
(371,66,o),
(368,41,c),
(363,92,o),
(357,130,o),
(352,158,cs),
(337,235,o),
(315,352,o),
(286,507,c),
(216,507,l),
(203,448,o),
(178,331,o),
(141,154,cs),
(133,115,o),
(131,94,o),
(124,41,c),
(119,92,o),
(115,123,o),
(110,158,cs),
(95,235,o),
(72,352,o),
(43,507,c),
(-19,507,l),
(-1,422,o),
(35,253,o),
(89,0,c),
(159,0,l),
(171,57,o),
(195,172,o),
(232,344,cs)
);
}
);
width = 563;
}
);
note = W;
unicode = 87;
},
{
glyphname = X;
layers = (
{
layerId = m01;
shapes = (
{
closed = 1;
nodes = (
(-19,0,l),
(48,0,l),
(66,35,o),
(102,106,o),
(157,212,c),
(175,177,o),
(211,106,o),
(264,0,c),
(276,0,o),
(299,0,o),
(334,0,c),
(190,260,l),
(213,301,o),
(260,384,o),
(330,507,c),
(263,507,l),
(246,474,o),
(210,408,o),
(157,309,c),
(139,342,o),
(104,408,o),
(51,507,c),
(-15,507,l),
(8,466,o),
(55,383,o),
(125,260,c)
);
}
);
width = 376;
}
);
note = X;
unicode = 88;
},
{
glyphname = Y;
layers = (
{
layerId = m01;
shapes = (
{
closed = 1;
nodes = (
(-24,507,l),
(2,455,o),
(53,352,o),
(129,197,c),
(129,0,l),
(138,0,o),
(157,0,o),
(185,0,c),
(185,197,l),
(210,248,o),
(261,352,o),
(338,507,c),
(276,507,l),
(257,464,o),
(217,380,o),
(157,253,c),
(137,295,o),
(98,380,o),
(39,507,c)
);
}
);
width = 376;
}
);
note = Y;
unicode = 89;
},
{
glyphname = Ydieresis;
lastChange = "2026-03-15 09:24:52 +0000";
layers = (
{
layerId = m01;
shapes = (
{
closed = 1;
nodes = (
(-161,734,o),
(-163,746,o),
(-170,757,c),
(-165,757,ls),
(-152,756,o),
(-140,754,o),
(-129,752,cs),
(-118,751,o),
(-108,750,o),
(-98,750,cs),
(-65,750,o),
(-32,763,o),
(-15,792,c),
(-28,799,o),
(-48,809,o),
(-74,822,c),
(-79,809,o),
(-101,792,o),
(-130,793,cs),
(-147,793,o),
(-173,793,o),
(-208,794,cs),
(-255,794,o),
(-286,760,o),
(-286,721,cs),
(-286,685,o),
(-259,655,o),
(-222,655,cs),
(-187,655,o),
(-161,686,o),
(-161,721,cs)
);
},
{
closed = 1;
nodes = (
(-247,738,o),
(-235,750,o),
(-222,750,cs),
(-209,750,o),
(-198,738,o),
(-198,723,cs),
(-198,708,o),
(-207,697,o),
(-222,697,cs),
(-237,697,o),
(-247,708,o),
(-247,723,cs)
);
}
);
width = 0;
},
{
associatedMasterId = m01;
attr = {
colorPalette = 1;
};
layerId = "3E9B36FD-9308-42A2-A61B-D9858203AF13";
name = "15 Mar 69 BE 16:24";
shapes = (
{
closed = 1;
nodes = (
(-161,734,o),
(-163,746,o),
(-170,757,c),
(-165,757,ls),
(-152,756,o),
(-140,754,o),
(-129,752,cs),
(-118,751,o),
(-108,750,o),
(-98,750,cs),
(-65,750,o),
(-32,763,o),
(-15,792,c),
(-28,799,o),
(-48,809,o),
(-74,822,c),
(-79,809,o),
(-101,792,o),
(-130,793,cs),
(-147,793,o),
(-173,793,o),
(-208,794,cs),
(-255,794,o),
(-286,760,o),
(-286,721,cs),
(-286,685,o),
(-259,655,o),
(-222,655,cs),
(-187,655,o),
(-161,686,o),
(-161,721,cs)
);
},
{
closed = 1;
nodes = (
(-247,738,o),
(-235,750,o),
(-222,750,cs),
(-209,750,o),
(-198,738,o),
(-198,723,cs),
(-198,708,o),
(-207,697,o),
(-222,697,cs),
(-237,697,o),
(-247,708,o),
(-247,723,cs)
);
}
);
visible = 1;
width = 0;
}
);
note = Ydieresis;
unicode = 376;
},
{
glyphname = Z;
layers = (
{
layerId = m01;
shapes = (
{
closed = 1;
nodes = (
(289,0,l),
(289,50,l),
(248,50,o),
(167,50,o),
(46,50,c),
(286,458,l),
(286,466,o),
(286,482,o),
(286,507,c),
(-6,507,l),
(-6,498,o),
(-6,481,o),
(-6,456,c),
(227,456,l),
(187,388,o),
(107,252,o),
(-12,49,c),
(-12,37,ls),
(-12,31,o),
(-12,19,o),
(-12,0,c)
);
}
);
width = 338;
}
);
note = Z;
unicode = 90;
},
{
glyphname = Zcaron;
lastChange = "2026-03-15 09:34:25 +0000";
layers = (
{
layerId = m01;
shapes = (
{
closed = 1;
nodes = (
(-201,598,l),
(-201,589,o),
(-201,571,o),
(-201,544,c),
(-138,544,l),
(-138,533,o),
(-138,512,o),
(-138,481,c),
(-82,481,l),
(-82,492,o),
(-82,513,o),
(-82,544,c),
(-22,544,l),
(-22,553,o),
(-22,571,o),
(-22,598,c),
(-82,598,l),
(-82,609,o),
(-82,629,o),
(-82,660,c),
(-138,660,l),
(-138,650,o),
(-138,629,o),
(-138,598,c)
);
}
);
width = 0;
},
{
associatedMasterId = m01;
attr = {
colorPalette = 1;
};
layerId = "BDAB0569-41D4-4C26-85A2-0DCDA18AF79A";
name = "15 Mar 69 BE 16:34";
shapes = (
{
closed = 1;
nodes = (
(-201,598,l),
(-201,589,o),
(-201,571,o),
(-201,544,c),
(-138,544,l),
(-138,533,o),
(-138,512,o),
(-138,481,c),
(-82,481,l),
(-82,492,o),
(-82,513,o),
(-82,544,c),
(-22,544,l),
(-22,553,o),
(-22,571,o),
(-22,598,c),
(-82,598,l),
(-82,609,o),
(-82,629,o),
(-82,660,c),
(-138,660,l),
(-138,650,o),
(-138,629,o),
(-138,598,c)
);
}
);
width = 0;
}
);
note = Zcaron;
unicode = 381;
},
{
glyphname = a;
layers = (
{
layerId = m01;
shapes = (
{
closed = 1;
nodes = (
(251,39,l),
(240,39,ls),
(221,39,o),
(219,47,o),
(219,60,cs),
(219,292,ls),
(219,355,o),
(181,386,o),
(117,386,cs),
(38,386,o),
(5,353,o),
(5,274,c),
(53,274,l),
(53,326,o),
(63,341,o),
(108,341,cs),
(151,341,o),
(167,325,o),
(167,282,cs),
(167,268,ls),
(167,253,o),
(170,242,o),
(143,231,cs),
(48,195,o),
(-10,180,o),
(-10,100,cs),
(-10,24,o),
(19,-10,o),
(87,-10,cs),
(120,-10,o),
(156,17,o),
(171,50,c),
(176,5,o),
(183,-3,o),
(239,-3,c),
(242,-2,o),
(246,-1,o),
(251,0,c)
);
},
{
closed = 1;
nodes = (
(163,112,ls),
(163,65,o),
(135,35,o),
(98,35,cs),
(61,35,o),
(46,53,o),
(46,97,cs),
(46,126,o),
(54,150,o),
(79,162,cs),
(88,167,o),
(103,173,o),
(122,182,cs),
(130,186,o),
(138,190,o),
(145,193,cs),
(152,196,o),
(158,199,o),
(163,203,c)
);
}
);
width = 300;
}
);
note = a;
unicode = 97;
},
{
glyphname = aacute;
lastChange = "2026-03-15 09:58:41 +0000";
layers = (
{
layerId = m01;
shapes = (
{
closed = 1;
nodes = (
(20,410,l),
(20,399,o),
(20,378,o),
(20,345,cs),
(20,68,ls),
(20,28,o),
(50,-5,o),
(85,-5,cs),
(122,-5,o),
(151,25,o),
(151,69,cs),
(151,109,o),
(123,142,o),
(87,142,cs),
(85,142,o),
(82,142,o),
(77,141,c),
(77,186,o),
(77,275,o),
(77,410,c)
);
},
{
closed = 1;
nodes = (
(184,410,l),
(184,68,ls),
(184,27,o),
(213,-5,o),
(249,-5,cs),
(285,-5,o),
(314,25,o),
(314,69,cs),
(314,109,o),
(287,142,o),
(251,142,cs),
(249,142,o),
(247,142,o),
(245,142,cs),
(241,141,l),
(241,201,o),
(241,291,o),
(241,410,c)
);
},
{
closed = 1;
nodes = (
(105,95,o),
(116,82,o),
(116,69,cs),
(116,53,o),
(106,42,o),
(90,42,cs),
(75,42,o),
(65,54,o),
(65,69,cs),
(65,84,o),
(75,95,o),
(90,95,cs)
);
},
{
closed = 1;
nodes = (
(269,95,o),
(280,82,o),
(280,69,cs),
(280,53,o),
(269,42,o),
(254,42,cs),
(239,42,o),
(228,54,o),
(228,69,cs),
(228,84,o),
(238,95,o),
(254,95,cs)
);
}
);
width = 370;
},
{
associatedMasterId = m01;
attr = {
colorPalette = 1;
};
layerId = "1F39F2BC-FC8B-48A6-AECB-635EC28BEDCE";
name = "15 Mar 69 BE 16:58";
shapes = (
{
closed = 1;
nodes = (
(20,410,l),
(20,399,o),
(20,378,o),
(20,345,cs),
(20,68,ls),
(20,28,o),
(50,-5,o),
(85,-5,cs),
(122,-5,o),
(151,25,o),
(151,69,cs),
(151,109,o),
(123,142,o),
(87,142,cs),
(85,142,o),
(82,142,o),
(77,141,c),
(77,186,o),
(77,275,o),
(77,410,c)
);
},
{
closed = 1;
nodes = (
(184,410,l),
(184,68,ls),
(184,27,o),
(213,-5,o),
(249,-5,cs),
(285,-5,o),
(314,25,o),
(314,69,cs),
(314,109,o),
(287,142,o),
(251,142,cs),
(249,142,o),
(247,142,o),
(245,142,cs),
(241,141,l),
(241,201,o),
(241,291,o),
(241,410,c)
);
},
{
closed = 1;
nodes = (
(105,95,o),
(116,82,o),
(116,69,cs),
(116,53,o),
(106,42,o),
(90,42,cs),
(75,42,o),
(65,54,o),
(65,69,cs),
(65,84,o),
(75,95,o),
(90,95,cs)
);
},
{
closed = 1;
nodes = (
(269,95,o),
(280,82,o),
(280,69,cs),
(280,53,o),
(269,42,o),
(254,42,cs),
(239,42,o),
(228,54,o),
(228,69,cs),
(228,84,o),
(238,95,o),
(254,95,cs)
);
}
);
visible = 1;
width = 370;
}
);
note = aacute;
unicode = 225;
},
{
color = 5;
glyphname = acircumflex;
lastChange = "2026-03-15 09:16:51 +0000";
layers = (
{
layerId = m01;
shapes = (
{
closed = 1;
nodes = (
(179,513,ls),
(179,543,o),
(165,564,o),
(137,577,cs),
(108,590,o),
(63,599,o),
(1,604,c),
(8,627,o),
(33,639,o),
(62,639,cs),
(65,639,o),
(81,636,o),
(110,630,cs),
(138,624,o),
(164,621,o),
(188,621,cs),
(211,621,o),
(231,627,o),
(251,640,c),
(223,686,l),
(208,675,o),
(198,672,o),
(186,672,cs),
(175,672,o),
(159,674,o),
(138,678,cs),
(117,683,o),
(93,685,o),
(67,685,cs),
(-4,685,o),
(-72,627,o),
(-72,568,c),
(-19,568,o),
(26,563,o),
(65,553,cs),
(104,543,o),
(124,530,o),
(124,515,cs),
(124,72,ls),
(124,31,o),
(152,-5,o),
(189,-5,cs),
(225,-5,o),
(253,29,o),
(253,70,cs),
(253,110,o),
(222,145,o),
(189,145,cs),
(187,145,o),
(184,145,o),
(179,144,c)
);
},
{
closed = 1;
nodes = (
(166,81,o),
(174,94,o),
(189,94,cs),
(201,94,o),
(213,81,o),
(213,68,cs),
(213,52,o),
(201,41,o),
(189,41,cs),
(176,41,o),
(166,52,o),
(166,68,cs)
);
}
);
width = 307;
},
{
associatedMasterId = m01;
attr = {
colorPalette = 1;
};
layerId = "58FCB6AE-7A6D-4359-8EEB-1E14082E9A37";
name = color;
shapes = (
{
closed = 1;
nodes = (
(179,513,ls),
(179,543,o),
(165,564,o),
(137,577,cs),
(108,590,o),
(63,599,o),
(1,604,c),
(8,627,o),
(33,639,o),
(62,639,cs),
(65,639,o),
(81,636,o),
(110,630,cs),
(138,624,o),
(164,621,o),
(188,621,cs),
(211,621,o),
(231,627,o),
(251,640,c),
(223,686,l),
(208,675,o),
(198,672,o),
(186,672,cs),
(175,672,o),
(159,674,o),
(138,678,cs),
(117,683,o),
(93,685,o),
(67,685,cs),
(-4,685,o),
(-72,627,o),
(-72,568,c),
(-19,568,o),
(26,563,o),
(65,553,cs),
(104,543,o),
(124,530,o),
(124,515,cs),
(124,72,ls),
(124,31,o),
(152,-5,o),
(189,-5,cs),
(225,-5,o),
(253,29,o),
(253,70,cs),
(253,110,o),
(222,145,o),
(189,145,cs),
(187,145,o),
(184,145,o),
(179,144,c)
);
},
{
closed = 1;
nodes = (
(166,81,o),
(174,94,o),
(189,94,cs),
(201,94,o),
(213,81,o),
(213,68,cs),
(213,52,o),
(201,41,o),
(189,41,cs),
(176,41,o),
(166,52,o),
(166,68,cs)
);
}
);
visible = 1;
width = 307;
}
);
note = acircumflex;
unicode = 226;
},
{
glyphname = adieresis;
lastChange = "2026-03-15 09:18:02 +0000";
layers = (
{
attr = {
colorPalette = 1;
};
layerId = m01;
shapes = (
{
closed = 1;
nodes = (
(62,72,ls),
(62,29,o),
(93,-5,o),
(128,-5,cs),
(165,-5,o),
(191,26,o),
(191,70,cs),
(191,113,o),
(161,145,o),
(128,145,cs),
(126,145,o),
(123,145,o),
(119,144,c),
(119,636,ls),
(119,672,o),
(104,696,o),
(75,696,cs),
(60,696,o),
(46,681,o),
(39,664,cs),
(32,645,o),
(21,616,o),
(6,579,c),
(3,592,o),
(-2,619,o),
(-9,660,cs),
(-12,673,o),
(-21,689,o),
(-38,694,c),
(-77,665,l),
(-61,660,o),
(-50,646,o),
(-46,625,cs),
(-41,600,o),
(-34,562,o),
(-25,512,cs),
(-21,495,o),
(-15,482,o),
(-3,482,cs),
(8,482,o),
(16,488,o),
(24,508,cs),
(33,531,o),
(45,566,o),
(62,613,c)
);
},
{
closed = 1;
nodes = (
(104,81,o),
(115,94,o),
(128,94,cs),
(141,94,o),
(152,81,o),
(152,68,cs),
(152,52,o),
(141,41,o),
(128,41,cs),
(115,41,o),
(104,52,o),
(104,68,cs)
);
}
);
width = 247;
}
);
note = adieresis;
unicode = 228;
},
{
glyphname = ae;
lastChange = "2026-03-15 09:59:13 +0000";
layers = (
{
layerId = m01;
shapes = (
{
closed = 1;
nodes = (
(78,356,o),
(87,362,o),
(98,362,cs),
(114,362,o),
(125,355,o),
(138,336,c),
(141,339,o),
(143,342,o),
(143,343,c),
(148,348,ls),
(157,356,o),
(169,359,o),
(182,359,cs),
(207,359,o),
(223,331,o),
(223,307,cs),
(223,-225,l),
(232,-225,o),
(251,-225,o),
(280,-225,c),
(280,305,ls),
(280,362,o),
(241,413,o),
(193,413,cs),
(176,413,o),
(158,404,o),
(145,391,c),
(132,407,o),
(114,415,o),
(93,415,cs),
(44,415,o),
(0,364,o),
(0,304,cs),
(0,245,o),
(35,202,o),
(79,202,cs),
(111,202,o),
(140,231,o),
(140,274,cs),
(140,317,o),
(111,347,o),
(78,347,c)
);
},
{
closed = 1;
nodes = (
(54,295,o),
(64,306,o),
(79,306,cs),
(94,306,o),
(103,292,o),
(103,279,cs),
(103,263,o),
(92,251,o),
(79,251,cs),
(64,251,o),
(54,264,o),
(54,279,cs)
);
}
);
width = 361;
},
{
associatedMasterId = m01;
attr = {
colorPalette = 1;
};
layerId = "87C74801-F321-42A5-A7EC-0A18253FF83A";
name = "15 Mar 69 BE 16:59";
shapes = (
{
closed = 1;
nodes = (
(78,356,o),
(87,362,o),
(98,362,cs),
(114,362,o),
(125,355,o),
(138,336,c),
(141,339,o),
(143,342,o),
(143,343,c),
(148,348,ls),
(157,356,o),
(169,359,o),
(182,359,cs),
(207,359,o),
(223,331,o),
(223,307,cs),
(223,-225,l),
(232,-225,o),
(251,-225,o),
(280,-225,c),
(280,305,ls),
(280,362,o),
(241,413,o),
(193,413,cs),
(176,413,o),
(158,404,o),
(145,391,c),
(132,407,o),
(114,415,o),
(93,415,cs),
(44,415,o),
(0,364,o),
(0,304,cs),
(0,245,o),
(35,202,o),
(79,202,cs),
(111,202,o),
(140,231,o),
(140,274,cs),
(140,317,o),
(111,347,o),
(78,347,c)
);
},
{
closed = 1;
nodes = (
(54,295,o),
(64,306,o),
(79,306,cs),
(94,306,o),
(103,292,o),
(103,279,cs),
(103,263,o),
(92,251,o),
(79,251,cs),
(64,251,o),
(54,264,o),
(54,279,cs)
);
}
);
visible = 1;
width = 361;
}
);
note = ae;
unicode = 230;
},
{
glyphname = agrave;
lastChange = "2026-03-15 08:49:27 +0000";
layers = (
{
layerId = m01;
shapes = (
{
closed = 1;
nodes = (
(20,410,l),
(20,399,o),
(20,378,o),
(20,345,cs),
(20,68,ls),
(20,28,o),
(50,-5,o),
(85,-5,cs),
(122,-5,o),
(151,25,o),
(151,69,cs),
(151,109,o),
(123,142,o),
(87,142,cs),
(85,142,o),
(82,142,o),
(77,141,c),
(77,186,o),
(77,275,o),
(77,410,c)
);
},
{
closed = 1;
nodes = (
(105,95,o),
(116,82,o),
(116,69,cs),
(116,53,o),
(106,42,o),
(90,42,cs),
(75,42,o),
(65,54,o),
(65,69,cs),
(65,84,o),
(75,95,o),
(90,95,cs)
);
}
);
width = 206;
},
{
associatedMasterId = m01;
attr = {
colorPalette = 1;
};
layerId = "4CBD7C1C-A7A3-4ACB-8D9F-AB220F187C1B";
name = color1;
shapes = (
{
closed = 1;
nodes = (
(20,410,l),
(20,399,o),
(20,378,o),
(20,345,cs),
(20,68,ls),
(20,28,o),
(50,-5,o),
(85,-5,cs),
(122,-5,o),
(151,25,o),
(151,69,cs),
(151,109,o),
(123,142,o),
(87,142,cs),
(85,142,o),
(82,142,o),
(77,141,c),
(77,186,o),
(77,275,o),
(77,410,c)
);
},
{
closed = 1;
nodes = (
(105,95,o),
(116,82,o),
(116,69,cs),
(116,53,o),
(106,42,o),
(90,42,cs),
(75,42,o),
(65,54,o),
(65,69,cs),
(65,84,o),
(75,95,o),
(90,95,cs)
);
}
);
visible = 1;
width = 206;
},
{
associatedMasterId = m01;
attr = {
colorPalette = 1;
};
layerId = "91517387-0119-42C3-B252-2C54D2BDE133";
name = color2;
shapes = (
{
closed = 1;
nodes = (
(20,410,l),
(20,399,o),
(20,378,o),
(20,345,cs),
(20,68,ls),
(20,28,o),
(50,-5,o),
(85,-5,cs),
(122,-5,o),
(151,25,o),
(151,69,cs),
(151,109,o),
(123,142,o),
(87,142,cs),
(85,142,o),
(82,142,o),
(77,141,c),
(77,186,o),
(77,275,o),
(77,410,c)
);
},
{
closed = 1;
nodes = (
(105,95,o),
(116,82,o),
(116,69,cs),
(116,53,o),
(106,42,o),
(90,42,cs),
(75,42,o),
(65,54,o),
(65,69,cs),
(65,84,o),
(75,95,o),
(90,95,cs)
);
}
);
width = 206;
}
);
note = agrave;
unicode = 224;
},
{
glyphname = ampersand;
layers = (
{
layerId = m01;
shapes = (
{
closed = 1;
nodes = (
(253,323,o),
(279,362,o),
(279,407,cs),
(279,468,o),
(233,507,o),
(172,507,cs),
(113,507,o),
(76,459,o),
(76,402,cs),
(76,365,o),
(85,341,o),
(124,289,c),
(52,241,o),
(19,202,o),
(19,135,cs),
(19,44,o),
(78,-12,o),
(169,-12,cs),
(217,-12,o),
(257,8,o),
(289,45,c),
(296,35,o),
(306,20,o),
(321,-1,c),
(332,-1,o),
(354,-1,o),
(388,-1,c),
(322,92,l),
(345,135,o),
(357,183,o),
(357,232,c),
(308,232,l),
(308,205,o),
(298,169,o),
(289,138,c),
(267,169,o),
(234,217,o),
(190,280,c)
);
},
{
closed = 1;
nodes = (
(222,372,o),
(210,348,o),
(167,317,c),
(134,362,o),
(127,382,o),
(127,409,cs),
(127,436,o),
(146,462,o),
(175,462,cs),
(206,462,o),
(222,436,o),
(222,407,cs)
);
},
{
closed = 1;
nodes = (
(258,86,l),
(235,54,o),
(202,39,o),
(175,39,cs),
(116,39,o),
(78,78,o),
(78,134,cs),
(78,181,o),
(92,210,o),
(148,250,c)
);
}
);
width = 451;
}
);
note = ampersand;
unicode = 38;
},
{
glyphname = angkhankhuthai;
layers = (
{
layerId = m01;
shapes = (
{
closed = 1;
nodes = (
(124,327,o),
(125,328,o),
(125,344,cs),
(125,384,o),
(98,415,o),
(62,415,cs),
(27,415,o),
(0,381,o),
(0,344,cs),
(0,288,o),
(44,253,o),
(109,253,cs),
(144,253,o),
(192,273,o),
(212,300,c),
(212,0,l),
(221,0,o),
(240,0,o),
(268,0,c),
(268,373,ls),
(268,392,o),
(257,408,o),
(234,408,cs),
(228,408,o),
(221,404,o),
(213,395,cs),
(205,387,o),
(197,374,o),
(188,357,cs),
(172,325,o),
(149,308,o),
(117,308,c)
);
},
{
closed = 1;
nodes = (
(323,410,o),
(315,391,o),
(315,372,cs),
(315,347,o),
(315,309,o),
(315,259,cs),
(315,0,l),
(324,0,o),
(343,0,o),
(372,0,c),
(372,373,ls),
(372,392,o),
(363,410,o),
(342,410,cs)
);
},
{
closed = 1;
nodes = (
(38,357,o),
(49,371,o),
(62,371,cs),
(75,371,o),
(87,357,o),
(87,344,cs),
(87,329,o),
(75,317,o),
(62,317,cs),
(49,317,o),
(38,329,o),
(38,344,cs)
);
}
);
width = 419;
}
);
note = angkhankhuthai;
unicode = 3674;
},
{
glyphname = aring;
lastChange = "2026-03-15 09:34:39 +0000";
layers = (
{
layerId = m01;
shapes = (
{
closed = 1;
nodes = (
(51,415,o),
(-1,371,o),
(-10,314,c),
(44,314,l),
(55,349,o),
(79,365,o),
(116,365,cs),
(153,365,o),
(182,344,o),
(182,305,cs),
(182,-225,l),
(191,-225,o),
(210,-225,o),
(239,-225,c),
(239,318,ls),
(239,371,o),
(184,415,o),
(116,415,cs)
);
}
);
width = 321;
},
{
associatedMasterId = m01;
attr = {
colorPalette = 1;
};
layerId = "04E4FD8C-44D4-48D6-B891-B5938AC3F36A";
name = "15 Mar 69 BE 16:34";
shapes = (
{
closed = 1;
nodes = (
(51,415,o),
(-1,371,o),
(-10,314,c),
(44,314,l),
(55,349,o),
(79,365,o),
(116,365,cs),
(153,365,o),
(182,344,o),
(182,305,cs),
(182,-225,l),
(191,-225,o),
(210,-225,o),
(239,-225,c),
(239,318,ls),
(239,371,o),
(184,415,o),
(116,415,cs)
);
}
);
visible = 1;
width = 321;
}
);
note = aring;
unicode = 229;
},
{
glyphname = asciicircum;
layers = (
{
layerId = m01;
shapes = (
{
closed = 1;
nodes = (
(121,507,l),
(104,460,o),
(69,366,o),
(16,225,c),
(22,225,o),
(34,225,o),
(52,225,c),
(137,454,l),
(152,416,o),
(181,340,o),
(224,225,c),
(260,225,l),
(243,272,o),
(208,366,o),
(155,507,c)
);
}
);
width = 338;
}
);
note = asciicircum;
unicode = 94;
},
{
glyphname = asciitilde;
layers = (
{
layerId = m01;
shapes = (
{
closed = 1;
nodes = (
(108,220,o),
(93,224,o),
(78,224,cs),
(47,224,o),
(27,205,o),
(-1,144,c),
(4,137,o),
(11,127,o),
(22,113,c),
(39,153,o),
(57,173,o),
(78,173,cs),
(89,173,o),
(100,169,o),
(125,156,cs),
(137,149,o),
(163,134,o),
(179,130,cs),
(187,128,o),
(194,127,o),
(200,126,c),
(229,126,o),
(255,149,o),
(279,202,c),
(274,209,o),
(266,219,o),
(255,233,c),
(238,200,o),
(222,177,o),
(201,177,cs),
(194,177,o),
(188,178,o),
(185,179,c),
(182,181,o),
(168,188,o),
(143,201,cs)
);
}
);
width = 338;
}
);
note = asciitilde;
unicode = 126;
},
{
glyphname = asterisk;
layers = (
{
layerId = m01;
shapes = (
{
closed = 1;
nodes = (
(44,448,o),
(40,437,o),
(34,422,c),
(110,392,l),
(101,381,o),
(84,360,o),
(59,329,c),
(88,311,l),
(96,322,o),
(112,343,o),
(137,375,c),
(146,364,o),
(163,341,o),
(189,307,c),
(217,329,l),
(208,340,o),
(191,361,o),
(166,394,c),
(179,399,o),
(204,407,o),
(243,420,c),
(241,425,o),
(237,436,o),
(232,453,c),
(220,448,o),
(195,438,o),
(157,424,c),
(157,507,l),
(151,507,o),
(139,507,o),
(122,507,c),
(122,422,l),
(109,427,o),
(84,438,o),
(46,453,c)
);
}
);
width = 338;
}
);
note = asterisk;
unicode = 42;
},
{
glyphname = at;
layers = (
{
layerId = m01;
shapes = (
{
closed = 1;
nodes = (
(322,385,o),
(295,402,o),
(260,402,cs),
(228,402,o),
(197,389,o),
(172,369,cs),
(124,329,o),
(91,263,o),
(91,196,cs),
(91,139,o),
(128,94,o),
(185,94,cs),
(216,94,o),
(246,105,o),
(266,128,c),
(274,107,o),
(299,92,o),
(326,92,cs),
(391,92,o),
(438,145,o),
(465,202,cs),
(478,233,o),
(485,264,o),
(485,291,cs),
(485,334,o),
(472,373,o),
(449,406,cs),
(408,467,o),
(333,507,o),
(253,507,cs),
(204,507,o),
(157,493,o),
(117,468,cs),
(44,423,o),
(-6,342,o),
(-6,251,cs),
(-6,199,o),
(8,152,o),
(32,112,cs),
(77,37,o),
(157,-10,o),
(252,-10,cs),
(347,-10,o),
(430,43,o),
(473,118,c),
(432,118,l),
(392,61,o),
(321,23,o),
(252,23,cs),
(208,23,o),
(169,35,o),
(134,56,cs),
(70,96,o),
(28,166,o),
(28,246,cs),
(28,289,o),
(40,330,o),
(61,365,cs),
(101,430,o),
(171,474,o),
(251,474,cs),
(359,474,o),
(452,398,o),
(452,294,cs),
(452,269,o),
(437,206,o),
(405,165,c),
(386,144,o),
(364,128,o),
(335,128,cs),
(322,128,o),
(314,135,o),
(314,150,c),
(317,162,ls),
(319,169,o),
(321,176,o),
(324,183,cs),
(339,229,o),
(362,298,o),
(393,389,c),
(346,389,l),
(345,384,o),
(342,373,o),
(337,357,c)
);
},
{
closed = 1;
nodes = (
(143,275,o),
(197,362,o),
(260,362,cs),
(288,362,o),
(308,341,o),
(308,313,c),
(299,197,o),
(236,134,o),
(196,134,cs),
(163,134,o),
(143,165,o),
(143,200,cs)
);
}
);
width = 541;
}
);
note = at;
unicode = 64;
},
{
glyphname = atilde;
lastChange = "2026-03-15 09:35:53 +0000";
layers = (
{
layerId = m01;
shapes = (
{
closed = 1;
nodes = (
(70,597,o),
(47,627,o),
(16,632,c),
(21,645,o),
(32,651,o),
(51,651,cs),
(76,651,o),
(92,632,o),
(92,603,cs),
(92,72,ls),
(92,29,o),
(123,-5,o),
(158,-5,cs),
(195,-5,o),
(221,29,o),
(221,70,cs),
(221,113,o),
(191,145,o),
(158,145,cs),
(156,145,o),
(153,145,o),
(150,144,c),
(150,597,ls),
(150,665,o),
(113,701,o),
(49,701,cs),
(-11,701,o),
(-60,642,o),
(-60,577,cs),
(-60,528,o),
(-31,489,o),
(6,489,cs),
(43,489,o),
(70,524,o),
(70,561,cs)
);
},
{
closed = 1;
nodes = (
(-19,576,o),
(-9,592,o),
(6,592,cs),
(21,592,o),
(32,579,o),
(32,563,cs),
(32,548,o),
(21,536,o),
(6,536,cs),
(-9,536,o),
(-19,548,o),
(-19,563,cs)
);
},
{
closed = 1;
nodes = (
(134,81,o),
(145,94,o),
(158,94,cs),
(171,94,o),
(181,80,o),
(181,68,cs),
(181,53,o),
(171,41,o),
(158,41,cs),
(145,41,o),
(134,53,o),
(134,68,cs)
);
}
);
width = 278;
},
{
associatedMasterId = m01;
attr = {
colorPalette = 1;
};
layerId = "3BE6053D-02AB-4F46-AA68-E1A546A7A463";
name = "15 Mar 69 BE 16:35";
shapes = (
{
closed = 1;
nodes = (
(70,597,o),
(47,627,o),
(16,632,c),
(21,645,o),
(32,651,o),
(51,651,cs),
(76,651,o),
(92,632,o),
(92,603,cs),
(92,72,ls),
(92,29,o),
(123,-5,o),
(158,-5,cs),
(195,-5,o),
(221,29,o),
(221,70,cs),
(221,113,o),
(191,145,o),
(158,145,cs),
(156,145,o),
(153,145,o),
(150,144,c),
(150,597,ls),
(150,665,o),
(113,701,o),
(49,701,cs),
(-11,701,o),
(-60,642,o),
(-60,577,cs),
(-60,528,o),
(-31,489,o),
(6,489,cs),
(43,489,o),
(70,524,o),
(70,561,cs)
);
},
{
closed = 1;
nodes = (
(-19,576,o),
(-9,592,o),
(6,592,cs),
(21,592,o),
(32,579,o),
(32,563,cs),
(32,548,o),
(21,536,o),
(6,536,cs),
(-9,536,o),
(-19,548,o),
(-19,563,cs)
);
},
{
closed = 1;
nodes = (
(134,81,o),
(145,94,o),
(158,94,cs),
(171,94,o),
(181,80,o),
(181,68,cs),
(181,53,o),
(171,41,o),
(158,41,cs),
(145,41,o),
(134,53,o),
(134,68,cs)
);
}
);
width = 278;
}
);
note = atilde;
unicode = 227;
},
{
glyphname = b;
layers = (
{
layerId = m01;
shapes = (
{
closed = 1;
nodes = (
(87,9,o),
(116,-10,o),
(156,-10,cs),
(194,-10,o),
(223,7,o),
(242,40,cs),
(261,73,o),
(271,131,o),
(271,212,cs),
(271,320,o),
(229,386,o),
(154,386,cs),
(122,386,o),
(95,369,o),
(74,337,c),
(74,507,l),
(65,507,o),
(46,507,o),
(19,507,c),
(19,367,ls),
(19,306,o),
(19,183,o),
(19,0,c),
(69,0,l),
(69,7,o),
(69,22,o),
(70,45,c)
);
},
{
closed = 1;
nodes = (
(92,35,o),
(70,71,o),
(70,178,cs),
(70,238,o),
(75,280,o),
(86,305,cs),
(97,329,o),
(117,341,o),
(144,341,cs),
(168,341,o),
(186,330,o),
(198,307,cs),
(210,284,o),
(216,246,o),
(216,195,cs),
(216,136,o),
(210,95,o),
(199,71,cs),
(188,47,o),
(170,35,o),
(145,35,cs)
);
}
);
width = 338;
}
);
note = b;
unicode = 98;
},
{
glyphname = backslash;
layers = (
{
layerId = m01;
shapes = (
{
closed = 1;
nodes = (
(159,0,l),
(130,85,o),
(73,254,o),
(-12,507,c),
(-51,507,l),
(-22,422,o),
(35,253,o),
(120,0,c)
);
}
);
width = 169;
}
);
note = backslash;
unicode = 92;
},
{
glyphname = baht;
layers = (
{
layerId = m01;
shapes = (
{
closed = 1;
nodes = (
(174,0,l),
(254,0,o),
(299,55,o),
(299,144,cs),
(299,213,o),
(269,253,o),
(214,261,c),
(269,280,o),
(287,311,o),
(287,370,cs),
(287,446,o),
(247,492,o),
(174,492,c),
(174,505,o),
(174,526,o),
(174,553,c),
(133,553,l),
(133,543,o),
(133,523,o),
(133,492,c),
(22,492,l),
(22,479,o),
(22,454,o),
(22,417,cs),
(22,0,l),
(40,0,o),
(77,0,o),
(133,0,c),
(133,-61,l),
(140,-61,o),
(153,-61,o),
(174,-61,c)
);
},
{
closed = 1;
nodes = (
(133,282,l),
(124,282,o),
(105,282,o),
(76,282,c),
(76,442,l),
(85,442,o),
(104,442,o),
(133,442,c)
);
},
{
closed = 1;
nodes = (
(174,439,l),
(217,431,o),
(228,413,o),
(228,365,cs),
(228,316,o),
(215,292,o),
(174,283,c)
);
},
{
closed = 1;
nodes = (
(133,49,l),
(124,49,o),
(105,49,o),
(76,49,c),
(76,232,l),
(85,232,o),
(104,232,o),
(133,232,c)
);
},
{
closed = 1;
nodes = (
(174,230,l),
(225,226,o),
(243,197,o),
(243,141,cs),
(243,84,o),
(230,57,o),
(174,49,c)
);
}
);
width = 375;
}
);
note = baht;
unicode = 3647;
},
{
glyphname = bar;
layers = (
{
layerId = m01;
shapes = (
{
closed = 1;
nodes = (
(32,0,l),
(76,0,l),
(76,85,o),
(76,254,o),
(76,507,c),
(32,507,l),
(32,494,o),
(32,469,o),
(32,431,cs)
);
}
);
width = 169;
}
);
note = bar;
unicode = 124;
},
{
glyphname = boBaimaithai;
layers = (
{
layerId = m01;
shapes = (
{
closed = 1;
nodes = (
(336,410,l),
(327,410,o),
(308,410,o),
(280,410,c),
(280,69,ls),
(280,52,o),
(269,47,o),
(254,47,cs),
(152,47,ls),
(139,47,o),
(126,52,o),
(126,69,cs),
(126,344,ls),
(126,380,o),
(102,415,o),
(62,415,cs),
(27,415,o),
(0,381,o),
(0,340,cs),
(0,303,o),
(26,265,o),
(59,265,c),
(62,266,o),
(65,266,o),
(70,266,c),
(70,43,ls),
(70,15,o),
(86,0,o),
(121,0,cs),
(285,0,ls),
(318,0,o),
(336,15,o),
(336,43,cs)
);
},
{
closed = 1;
nodes = (
(36,355,o),
(44,368,o),
(59,368,cs),
(72,368,o),
(83,356,o),
(83,340,cs),
(83,325,o),
(72,313,o),
(59,313,cs),
(46,313,o),
(36,324,o),
(36,340,cs)
);
}
);
width = 418;
}
);
note = boBaimaithai;
unicode = 3610;
},
{
glyphname = braceleft;
layers = (
{
layerId = m01;
shapes = (
{
closed = 1;
nodes = (
(89,128,ls),
(89,187,o),
(71,212,o),
(22,221,c),
(22,223,l),
(70,232,o),
(89,252,o),
(89,305,cs),
(89,431,ls),
(89,472,o),
(101,491,o),
(150,507,c),
(83,507,o),
(35,496,o),
(35,419,cs),
(35,293,ls),
(35,248,o),
(14,227,o),
(-26,223,c),
(-26,221,l),
(27,208,o),
(35,188,o),
(35,155,cs),
(35,35,ls),
(35,-32,o),
(51,-65,o),
(150,-65,c),
(150,-62,l),
(107,-51,o),
(89,-30,o),
(89,11,cs)
);
}
);
width = 185;
}
);
note = braceleft;
unicode = 123;
},
{
glyphname = braceright;
layers = (
{
layerId = m01;
shapes = (
{
closed = 1;
nodes = (
(35,314,ls),
(35,253,o),
(54,230,o),
(102,221,c),
(102,219,l),
(51,208,o),
(35,189,o),
(35,138,cs),
(35,11,ls),
(35,-33,o),
(17,-51,o),
(-26,-62,c),
(-26,-65,l),
(38,-65,o),
(89,-59,o),
(89,24,cs),
(89,150,ls),
(89,187,o),
(110,219,o),
(150,219,c),
(150,221,l),
(97,234,o),
(89,241,o),
(89,296,cs),
(89,408,ls),
(89,492,o),
(57,506,o),
(-26,506,c),
(19,491,o),
(35,471,o),
(35,431,cs)
);
}
);
width = 185;
}
);
note = braceright;
unicode = 125;
},
{
glyphname = bracketleft;
layers = (
{
layerId = m01;
shapes = (
{
closed = 1;
nodes = (
(155,-141,l),
(155,-99,l),
(144,-99,o),
(122,-99,o),
(89,-99,c),
(89,466,l),
(100,466,o),
(122,466,o),
(155,466,c),
(155,507,l),
(135,507,o),
(96,507,o),
(37,507,c),
(37,345,ls),
(37,264,o),
(37,102,o),
(37,-141,c)
);
}
);
width = 225;
}
);
note = bracketleft;
unicode = 91;
},
{
glyphname = bracketright;
layers = (
{
layerId = m01;
shapes = (
{
closed = 1;
nodes = (
(127,-141,l),
(127,507,l),
(107,507,o),
(67,507,o),
(8,507,c),
(8,501,ls),
(8,495,o),
(8,483,o),
(8,466,c),
(74,466,l),
(74,372,o),
(74,184,o),
(74,-99,c),
(8,-99,l),
(8,-106,o),
(8,-120,o),
(8,-141,c)
);
}
);
width = 225;
}
);
note = bracketright;
unicode = 93;
},
{
glyphname = bullet;
layers = (
{
layerId = m01;
shapes = (
{
closed = 1;
nodes = (
(220,77,o),
(276,136,o),
(276,205,cs),
(276,274,o),
(219,333,o),
(148,333,cs),
(80,333,o),
(20,277,o),
(20,205,cs),
(20,132,o),
(77,77,o),
(148,77,cs)
);
}
);
width = 338;
}
);
note = bullet;
unicode = 8226;
},
{
glyphname = bulletoperator;
layers = (
{
layerId = m01;
shapes = (
{
closed = 1;
nodes = (
(25,415,o),
(-2,381,o),
(-2,340,cs),
(-2,303,o),
(24,265,o),
(57,265,cs),
(68,265,l),
(68,221,o),
(68,133,o),
(68,0,c),
(122,0,l),
(135,41,o),
(162,123,o),
(203,234,cs),
(223,289,o),
(236,322,o),
(242,335,cs),
(248,348,o),
(254,355,o),
(261,355,cs),
(268,355,o),
(273,347,o),
(273,340,cs),
(273,0,l),
(282,0,o),
(301,0,o),
(330,0,c),
(330,347,ls),
(330,383,o),
(305,415,o),
(268,415,cs),
(250,415,o),
(235,407,o),
(223,390,cs),
(211,373,o),
(194,335,o),
(172,278,cs),
(161,250,o),
(145,208,o),
(124,153,c),
(124,344,ls),
(124,380,o),
(100,415,o),
(60,415,cs)
);
},
{
closed = 1;
nodes = (
(34,355,o),
(42,368,o),
(57,368,cs),
(72,368,o),
(81,355,o),
(81,340,cs),
(81,325,o),
(70,313,o),
(57,313,cs),
(44,313,o),
(34,324,o),
(34,340,cs)
);
}
);
width = 412;
}
);
note = bulletoperator;
unicode = 8729;
},
{
glyphname = c;
layers = (
{
layerId = m01;
shapes = (
{
closed = 1;
nodes = (
(54,235,o),
(60,278,o),
(71,303,cs),
(82,328,o),
(101,341,o),
(128,341,cs),
(169,341,o),
(190,312,o),
(190,257,c),
(241,257,l),
(241,330,o),
(198,386,o),
(129,386,cs),
(41,386,o),
(-1,326,o),
(-1,183,cs),
(-1,47,o),
(39,-10,o),
(130,-10,cs),
(201,-10,o),
(243,39,o),
(243,131,c),
(193,131,l),
(193,68,o),
(174,35,o),
(126,35,cs),
(78,35,o),
(54,73,o),
(54,172,cs)
);
}
);
width = 300;
}
);
note = c;
unicode = 99;
},
{
glyphname = ccedilla;
lastChange = "2026-03-15 09:34:57 +0000";
layers = (
{
layerId = m01;
shapes = (
{
closed = 1;
nodes = (
(-166,608,o),
(-184,595,o),
(-195,572,c),
(-208,584,o),
(-222,590,o),
(-234,590,cs),
(-241,590,o),
(-248,588,o),
(-256,585,c),
(-259,582,o),
(-264,578,o),
(-271,572,c),
(-274,577,o),
(-274,582,o),
(-274,590,cs),
(-274,622,o),
(-248,637,o),
(-215,638,cs),
(-202,639,o),
(-183,639,o),
(-158,640,cs),
(-91,640,o),
(-53,658,o),
(-36,705,c),
(-47,712,o),
(-64,722,o),
(-86,736,c),
(-93,705,o),
(-124,687,o),
(-160,687,cs),
(-257,687,o),
(-329,673,o),
(-329,580,cs),
(-329,544,o),
(-312,502,o),
(-293,473,c),
(-254,502,l),
(-257,507,o),
(-258,513,o),
(-258,518,cs),
(-258,534,o),
(-252,541,o),
(-240,541,cs),
(-236,541,o),
(-229,536,o),
(-218,526,cs),
(-197,506,o),
(-176,489,o),
(-160,478,cs),
(-152,473,o),
(-145,471,o),
(-138,471,cs),
(-106,471,o),
(-82,501,o),
(-82,542,cs),
(-82,574,o),
(-110,608,o),
(-142,608,cs)
);
},
{
closed = 1;
nodes = (
(-169,554,o),
(-158,567,o),
(-145,567,cs),
(-132,567,o),
(-122,553,o),
(-122,541,cs),
(-122,528,o),
(-133,514,o),
(-145,514,cs),
(-158,514,o),
(-169,528,o),
(-169,541,cs)
);
}
);
width = 0;
},
{
associatedMasterId = m01;
attr = {
colorPalette = 1;
};
layerId = "98F381A9-6AE1-40CD-87D7-D45B044F7ACB";
name = "15 Mar 69 BE 16:34";
shapes = (
{
closed = 1;
nodes = (
(-166,608,o),
(-184,595,o),
(-195,572,c),
(-208,584,o),
(-222,590,o),
(-234,590,cs),
(-241,590,o),
(-248,588,o),
(-256,585,c),
(-259,582,o),
(-264,578,o),
(-271,572,c),
(-274,577,o),
(-274,582,o),
(-274,590,cs),
(-274,622,o),
(-248,637,o),
(-215,638,cs),
(-202,639,o),
(-183,639,o),
(-158,640,cs),
(-91,640,o),
(-53,658,o),
(-36,705,c),
(-47,712,o),
(-64,722,o),
(-86,736,c),
(-93,705,o),
(-124,687,o),
(-160,687,cs),
(-257,687,o),
(-329,673,o),
(-329,580,cs),
(-329,544,o),
(-312,502,o),
(-293,473,c),
(-254,502,l),
(-257,507,o),
(-258,513,o),
(-258,518,cs),
(-258,534,o),
(-252,541,o),
(-240,541,cs),
(-236,541,o),
(-229,536,o),
(-218,526,cs),
(-197,506,o),
(-176,489,o),
(-160,478,cs),
(-152,473,o),
(-145,471,o),
(-138,471,cs),
(-106,471,o),
(-82,501,o),
(-82,542,cs),
(-82,574,o),
(-110,608,o),
(-142,608,cs)
);
},
{
closed = 1;
nodes = (
(-169,554,o),
(-158,567,o),
(-145,567,cs),
(-132,567,o),
(-122,553,o),
(-122,541,cs),
(-122,528,o),
(-133,514,o),
(-145,514,cs),
(-158,514,o),
(-169,528,o),
(-169,541,cs)
);
}
);
visible = 1;
width = 0;
}
);
note = ccedilla;
unicode = 231;
},
{
glyphname = choChangthai;
layers = (
{
layerId = m01;
shapes = (
{
closed = 1;
nodes = (
(135,315,o),
(121,341,o),
(94,354,c),
(99,362,o),
(106,365,o),
(118,365,cs),
(145,365,o),
(166,343,o),
(166,308,cs),
(166,296,o),
(162,278,o),
(155,259,cs),
(137,204,ls),
(130,186,o),
(127,172,o),
(127,163,cs),
(127,32,ls),
(127,21,o),
(136,13,o),
(153,6,cs),
(170,0,o),
(193,-3,o),
(222,-3,cs),
(251,-3,o),
(275,0,o),
(292,6,cs),
(309,13,o),
(317,21,o),
(317,32,cs),
(317,338,ls),
(317,361,o),
(307,378,o),
(288,389,c),
(321,416,o),
(331,432,o),
(338,468,c),
(266,468,l),
(266,437,o),
(248,403,o),
(220,378,c),
(248,365,o),
(261,348,o),
(261,325,cs),
(261,66,ls),
(261,54,o),
(241,50,o),
(222,50,cs),
(203,50,o),
(183,54,o),
(183,66,cs),
(183,157,ls),
(183,162,o),
(186,173,o),
(191,190,cs),
(202,226,o),
(211,259,o),
(216,282,cs),
(219,293,o),
(220,302,o),
(220,308,cs),
(220,369,o),
(178,415,o),
(114,415,cs),
(51,415,o),
(0,357,o),
(0,297,cs),
(0,250,o),
(27,213,o),
(70,213,cs),
(106,213,o),
(135,246,o),
(135,286,cs)
);
},
{
closed = 1;
nodes = (
(43,305,o),
(52,317,o),
(67,317,cs),
(80,317,o),
(90,305,o),
(90,290,cs),
(90,274,o),
(80,262,o),
(67,262,cs),
(52,262,o),
(43,274,o),
(43,290,cs)
);
}
);
width = 399;
}
);
note = choChangthai;
unicode = 3594;
},
{
glyphname = choChanthai;
layers = (
{
layerId = m01;
shapes = (
{
closed = 1;
nodes = (
(196,131,o),
(218,77,o),
(241,0,c),
(254,0,o),
(275,0,o),
(302,0,c),
(302,273,ls),
(302,353,o),
(234,413,o),
(145,413,cs),
(84,413,o),
(30,379,o),
(-6,322,c),
(5,317,o),
(21,310,o),
(43,301,c),
(68,338,o),
(103,358,o),
(144,358,cs),
(203,358,o),
(246,317,o),
(246,265,cs),
(246,127,l),
(217,195,o),
(193,238,o),
(175,257,cs),
(157,276,o),
(139,286,o),
(120,286,cs),
(85,286,o),
(55,253,o),
(55,212,cs),
(55,169,o),
(85,138,o),
(120,138,cs),
(143,138,o),
(158,149,o),
(171,166,c)
);
},
{
closed = 1;
nodes = (
(95,222,o),
(104,238,o),
(120,238,cs),
(133,238,o),
(144,225,o),
(144,209,cs),
(144,194,o),
(135,181,o),
(120,181,cs),
(105,181,o),
(95,194,o),
(95,209,cs)
);
}
);
width = 384;
}
);
note = choChanthai;
unicode = 3592;
},
{
glyphname = choChingthai;
layers = (
{
layerId = m01;
shapes = (
{
closed = 1;
nodes = (
(321,146,l),
(321,287,ls),
(321,358,o),
(245,415,o),
(165,415,cs),
(90,415,o),
(27,372,o),
(0,315,c),
(44,294,l),
(68,333,o),
(112,357,o),
(159,357,cs),
(216,357,o),
(264,322,o),
(264,271,cs),
(264,137,l),
(245,132,o),
(222,123,o),
(195,114,c),
(180,107,o),
(157,96,o),
(128,82,c),
(128,196,ls),
(128,236,o),
(100,267,o),
(65,267,cs),
(30,267,o),
(3,236,o),
(3,196,cs),
(3,153,o),
(30,124,o),
(65,124,cs),
(66,124,o),
(69,124,o),
(72,124,c),
(72,29,ls),
(72,8,o),
(80,-3,o),
(97,-3,c),
(116,9,o),
(145,27,o),
(184,50,cs),
(212,67,o),
(240,78,o),
(265,83,c),
(265,80,o),
(265,77,o),
(264,72,c),
(264,32,o),
(290,-3,o),
(329,-3,cs),
(365,-3,o),
(394,32,o),
(394,72,cs),
(394,109,o),
(368,146,o),
(329,146,cs)
);
},
{
closed = 1;
nodes = (
(38,209,o),
(46,222,o),
(61,222,cs),
(77,222,o),
(85,209,o),
(85,196,cs),
(85,183,o),
(77,169,o),
(61,169,cs),
(46,169,o),
(38,181,o),
(38,196,cs)
);
},
{
closed = 1;
nodes = (
(305,85,o),
(316,98,o),
(329,98,cs),
(342,98,o),
(352,87,o),
(352,72,cs),
(352,56,o),
(342,45,o),
(329,45,cs),
(316,45,o),
(305,56,o),
(305,72,cs)
);
}
);
width = 404;
}
);
note = choChingthai;
unicode = 3593;
},
{
glyphname = choChoethai;
layers = (
{
layerId = m01;
shapes = (
{
closed = 1;
nodes = (
(25,300,o),
(53,285,o),
(68,276,c),
(47,265,o),
(30,238,o),
(30,213,cs),
(30,76,ls),
(30,36,o),
(56,-1,o),
(95,-1,cs),
(132,-1,o),
(159,30,o),
(159,74,cs),
(159,117,o),
(130,150,o),
(95,150,c),
(93,149,o),
(90,149,o),
(86,148,c),
(86,211,ls),
(86,235,o),
(109,260,o),
(140,279,c),
(133,288,o),
(124,294,o),
(113,299,cs),
(67,323,l),
(82,350,o),
(125,362,o),
(160,362,cs),
(209,362,o),
(255,335,o),
(255,291,cs),
(255,147,l),
(254,147,o),
(253,147,o),
(252,148,c),
(250,148,ls),
(213,148,o),
(184,118,o),
(184,75,cs),
(184,31,o),
(212,0,o),
(251,0,cs),
(287,0,o),
(310,30,o),
(310,63,c),
(364,23,ls),
(385,6,o),
(403,-2,o),
(416,-2,cs),
(439,-2,o),
(449,13,o),
(449,38,cs),
(449,410,l),
(439,410,o),
(420,410,o),
(392,410,c),
(392,65,l),
(379,74,o),
(352,94,o),
(311,123,c),
(311,297,ls),
(311,369,o),
(239,415,o),
(163,415,cs),
(91,415,o),
(22,370,o),
(-3,305,c)
);
},
{
closed = 1;
nodes = (
(72,87,o),
(82,98,o),
(95,98,cs),
(107,98,o),
(119,87,o),
(119,72,cs),
(119,56,o),
(108,45,o),
(95,45,cs),
(82,45,o),
(72,56,o),
(72,72,cs)
);
},
{
closed = 1;
nodes = (
(224,85,o),
(235,98,o),
(248,98,cs),
(260,98,o),
(271,85,o),
(271,72,cs),
(271,57,o),
(260,45,o),
(248,45,cs),
(233,45,o),
(224,59,o),
(224,72,cs)
);
}
);
width = 530;
}
);
note = choChoethai;
unicode = 3596;
},
{
glyphname = circumflex;
lastChange = "2026-03-15 09:35:09 +0000";
layers = (
{
layerId = m01;
shapes = (
{
closed = 1;
nodes = (
(-335,622,o),
(-320,632,o),
(-304,632,cs),
(-289,632,o),
(-283,626,o),
(-274,617,c),
(-266,625,o),
(-257,629,o),
(-249,629,cs),
(-228,629,o),
(-212,608,o),
(-212,580,cs),
(-212,547,o),
(-221,524,o),
(-248,509,c),
(-242,503,o),
(-233,494,o),
(-222,481,c),
(-142,520,o),
(-82,596,o),
(-82,687,c),
(-136,687,l),
(-136,632,o),
(-145,607,o),
(-169,579,c),
(-169,583,ls),
(-169,584,o),
(-169,585,o),
(-168,586,c),
(-168,593,ls),
(-168,640,o),
(-196,679,o),
(-243,690,c),
(-250,685,o),
(-261,679,o),
(-275,670,c),
(-280,673,o),
(-291,681,o),
(-306,692,c),
(-359,680,o),
(-398,631,o),
(-398,570,cs),
(-398,515,o),
(-368,481,o),
(-328,481,cs),
(-296,481,o),
(-270,510,o),
(-270,543,cs),
(-270,578,o),
(-297,604,o),
(-328,604,cs),
(-330,604,o),
(-333,604,o),
(-338,603,c)
);
},
{
closed = 1;
nodes = (
(-353,560,o),
(-342,573,o),
(-329,573,cs),
(-316,573,o),
(-304,562,o),
(-304,547,cs),
(-304,532,o),
(-316,520,o),
(-329,520,cs),
(-342,520,o),
(-353,531,o),
(-353,547,cs)
);
}
);
width = 0;
},
{
associatedMasterId = m01;
attr = {
colorPalette = 1;
};
layerId = "1DDF62CB-C3A3-4A36-95E6-F5024158933D";
name = "15 Mar 69 BE 16:35";
shapes = (
{
closed = 1;
nodes = (
(-335,622,o),
(-320,632,o),
(-304,632,cs),
(-289,632,o),
(-283,626,o),
(-274,617,c),
(-266,625,o),
(-257,629,o),
(-249,629,cs),
(-228,629,o),
(-212,608,o),
(-212,580,cs),
(-212,547,o),
(-221,524,o),
(-248,509,c),
(-242,503,o),
(-233,494,o),
(-222,481,c),
(-142,520,o),
(-82,596,o),
(-82,687,c),
(-136,687,l),
(-136,632,o),
(-145,607,o),
(-169,579,c),
(-169,583,ls),
(-169,584,o),
(-169,585,o),
(-168,586,c),
(-168,593,ls),
(-168,640,o),
(-196,679,o),
(-243,690,c),
(-250,685,o),
(-261,679,o),
(-275,670,c),
(-280,673,o),
(-291,681,o),
(-306,692,c),
(-359,680,o),
(-398,631,o),
(-398,570,cs),
(-398,515,o),
(-368,481,o),
(-328,481,cs),
(-296,481,o),
(-270,510,o),
(-270,543,cs),
(-270,578,o),
(-297,604,o),
(-328,604,cs),
(-330,604,o),
(-333,604,o),
(-338,603,c)
);
},
{
closed = 1;
nodes = (
(-353,560,o),
(-342,573,o),
(-329,573,cs),
(-316,573,o),
(-304,562,o),
(-304,547,cs),
(-304,532,o),
(-316,520,o),
(-329,520,cs),
(-342,520,o),
(-353,531,o),
(-353,547,cs)
);
}
);
width = 0;
}
);
note = circumflex;
unicode = 710;
},
{
glyphname = colon;
lastChange = "2026-03-15 04:38:46 +0000";
layers = (
{
layerId = m01;
shapes = (
{
closed = 1;
nodes = (
(23,358,o),
(0,335,o),
(0,310,cs),
(0,285,o),
(23,262,o),
(48,262,cs),
(73,262,o),
(96,285,o),
(96,310,cs),
(96,335,o),
(73,358,o),
(48,358,cs)
);
},
{
closed = 1;
nodes = (
(23,93,o),
(0,70,o),
(0,45,cs),
(0,17,o),
(21,-3,o),
(48,-3,cs),
(75,-3,o),
(96,17,o),
(96,45,cs),
(96,70,o),
(73,93,o),
(48,93,cs)
);
}
);
width = 202;
},
{
associatedMasterId = m01;
layerId = "C0F5EC62-9D35-4981-B605-0A7A61F29331";
name = color1;
shapes = (
{
closed = 1;
nodes = (
(23,358,o),
(0,335,o),
(0,310,cs),
(0,285,o),
(23,262,o),
(48,262,cs),
(73,262,o),
(96,285,o),
(96,310,cs),
(96,335,o),
(73,358,o),
(48,358,cs)
);
},
{
closed = 1;
nodes = (
(23,93,o),
(0,70,o),
(0,45,cs),
(0,17,o),
(21,-3,o),
(48,-3,cs),
(75,-3,o),
(96,17,o),
(96,45,cs),
(96,70,o),
(73,93,o),
(48,93,cs)
);
}
);
width = 202;
},
{
associatedMasterId = m01;
layerId = "10A2BD8A-0C52-4434-A8A3-00AF52BCC7BE";
name = color2;
shapes = (
{
closed = 1;
nodes = (
(23,358,o),
(0,335,o),
(0,310,cs),
(0,285,o),
(23,262,o),
(48,262,cs),
(73,262,o),
(96,285,o),
(96,310,cs),
(96,335,o),
(73,358,o),
(48,358,cs)
);
},
{
closed = 1;
nodes = (
(23,93,o),
(0,70,o),
(0,45,cs),
(0,17,o),
(21,-3,o),
(48,-3,cs),
(75,-3,o),
(96,17,o),
(96,45,cs),
(96,70,o),
(73,93,o),
(48,93,cs)
);
}
);
visible = 1;
width = 202;
}
);
note = colon;
unicode = 58;
},
{
glyphname = comma;
layers = (
{
layerId = m01;
shapes = (
{
closed = 1;
nodes = (
(50,1,o),
(56,2,o),
(60,3,c),
(60,-16,o),
(42,-28,o),
(25,-28,c),
(25,-69,l),
(26,-69,o),
(28,-69,o),
(29,-70,c),
(30,-70,o),
(31,-70,o),
(33,-70,cs),
(41,-70,ls),
(85,-70,o),
(120,-35,o),
(120,12,cs),
(120,56,o),
(89,91,o),
(45,91,cs),
(20,91,o),
(0,71,o),
(0,46,cs),
(0,18,o),
(21,1,o),
(45,1,cs)
);
}
);
width = 205;
}
);
note = comma;
unicode = 44;
},
{
glyphname = d;
layers = (
{
layerId = m01;
shapes = (
{
closed = 1;
nodes = (
(203,337,l),
(201,337,l),
(173,370,o),
(152,386,o),
(115,386,cs),
(42,386,o),
(2,316,o),
(2,188,c),
(2,188,o),
(2,187,o),
(2,186,cs),
(2,171,ls),
(2,47,o),
(41,-10,o),
(112,-10,cs),
(157,-10,o),
(180,5,o),
(203,49,c),
(203,49,o),
(204,49,o),
(205,49,c),
(205,0,l),
(214,0,o),
(231,0,o),
(256,0,c),
(256,507,l),
(247,507,o),
(230,507,o),
(203,507,c)
);
},
{
closed = 1;
nodes = (
(203,147,ls),
(203,88,o),
(178,35,o),
(131,35,cs),
(104,35,o),
(85,45,o),
(73,64,cs),
(61,83,o),
(55,125,o),
(55,189,cs),
(55,288,o),
(76,341,o),
(129,341,cs),
(154,341,o),
(172,330,o),
(184,307,cs),
(197,284,o),
(203,247,o),
(203,194,cs)
);
}
);
width = 338;
}
);
note = d;
unicode = 100;
},
{
glyphname = dagger;
lastChange = "2026-03-15 09:54:20 +0000";
layers = (
{
layerId = m01;
shapes = (
{
closed = 1;
nodes = (
(-241,481,l),
(-232,481,o),
(-213,481,o),
(-184,481,c),
(-184,631,l),
(-193,631,o),
(-212,631,o),
(-241,631,c)
);
}
);
width = 0;
},
{
associatedMasterId = m01;
attr = {
colorPalette = 1;
};
layerId = "188E41E7-83B7-4E57-A8CF-160CE9DAE4DD";
name = "15 Mar 69 BE 16:54";
shapes = (
{
closed = 1;
nodes = (
(-241,481,l),
(-232,481,o),
(-213,481,o),
(-184,481,c),
(-184,631,l),
(-193,631,o),
(-212,631,o),
(-241,631,c)
);
}
);
visible = 1;
width = 0;
}
);
note = dagger;
unicode = 8224;
},
{
glyphname = daggerdbl;
lastChange = "2026-03-15 09:35:16 +0000";
layers = (
{
layerId = m01;
shapes = (
{
closed = 1;
nodes = (
(-247,549,o),
(-263,524,o),
(-308,513,c),
(-307,504,o),
(-304,490,o),
(-301,471,c),
(-257,476,o),
(-211,489,o),
(-167,509,cs),
(-87,546,o),
(-16,606,o),
(16,670,c),
(5,677,o),
(-11,688,o),
(-33,703,c),
(-46,668,o),
(-90,622,o),
(-134,587,cs),
(-158,568,o),
(-183,554,o),
(-204,546,c),
(-189,565,o),
(-183,598,o),
(-183,633,cs),
(-183,685,o),
(-210,719,o),
(-249,719,cs),
(-286,719,o),
(-311,683,o),
(-311,648,cs),
(-311,612,o),
(-287,578,o),
(-247,578,c)
);
},
{
closed = 1;
nodes = (
(-273,664,o),
(-264,675,o),
(-249,675,cs),
(-234,675,o),
(-224,663,o),
(-224,648,cs),
(-224,633,o),
(-233,622,o),
(-249,622,cs),
(-264,622,o),
(-273,633,o),
(-273,648,cs)
);
}
);
width = 0;
},
{
associatedMasterId = m01;
attr = {
colorPalette = 1;
};
layerId = "39D5EB23-02A5-4F94-8F8E-9D81BCCEE74D";
name = "15 Mar 69 BE 16:35";
shapes = (
{
closed = 1;
nodes = (
(-247,549,o),
(-263,524,o),
(-308,513,c),
(-307,504,o),
(-304,490,o),
(-301,471,c),
(-257,476,o),
(-211,489,o),
(-167,509,cs),
(-87,546,o),
(-16,606,o),
(16,670,c),
(5,677,o),
(-11,688,o),
(-33,703,c),
(-46,668,o),
(-90,622,o),
(-134,587,cs),
(-158,568,o),
(-183,554,o),
(-204,546,c),
(-189,565,o),
(-183,598,o),
(-183,633,cs),
(-183,685,o),
(-210,719,o),
(-249,719,cs),
(-286,719,o),
(-311,683,o),
(-311,648,cs),
(-311,612,o),
(-287,578,o),
(-247,578,c)
);
},
{
closed = 1;
nodes = (
(-273,664,o),
(-264,675,o),
(-249,675,cs),
(-234,675,o),
(-224,663,o),
(-224,648,cs),
(-224,633,o),
(-233,622,o),
(-249,622,cs),
(-264,622,o),
(-273,633,o),
(-273,648,cs)
);
}
);
width = 0;
}
);
note = daggerdbl;
unicode = 8225;
},
{
glyphname = divide;
lastChange = "2026-03-15 09:35:24 +0000";
layers = (
{
layerId = m01;
shapes = (
{
closed = 1;
nodes = (
(58,123,o),
(56,135,o),
(56,148,cs),
(56,201,o),
(89,253,o),
(122,253,cs),
(126,253,o),
(134,250,o),
(145,244,cs),
(156,239,o),
(170,229,o),
(187,215,c),
(202,228,o),
(215,237,o),
(225,242,cs),
(234,247,o),
(241,250,o),
(244,250,c),
(268,246,o),
(296,212,o),
(296,159,cs),
(296,106,o),
(277,71,o),
(241,38,c),
(245,29,o),
(251,17,o),
(260,0,c),
(365,55,o),
(418,125,o),
(418,240,c),
(415,268,o),
(415,282,o),
(415,309,cs),
(415,345,o),
(418,368,o),
(431,395,c),
(377,413,l),
(362,382,o),
(358,358,o),
(358,326,cs),
(358,321,o),
(359,308,o),
(362,289,cs),
(365,270,o),
(366,252,o),
(366,237,cs),
(366,181,o),
(357,136,o),
(334,119,c),
(341,132,o),
(344,153,o),
(344,178,cs),
(344,242,o),
(307,296,o),
(244,311,c),
(231,304,o),
(213,293,o),
(188,278,c),
(134,310,l),
(58,310,o),
(0,235,o),
(0,147,cs),
(0,63,o),
(47,0,o),
(108,0,cs),
(141,0,o),
(167,31,o),
(167,68,cs),
(167,105,o),
(140,135,o),
(108,135,cs),
(89,135,o),
(74,126,o),
(61,111,c)
);
},
{
closed = 1;
nodes = (
(84,83,o),
(93,93,o),
(108,93,cs),
(121,93,o),
(131,83,o),
(131,68,cs),
(131,52,o),
(121,42,o),
(108,42,cs),
(93,42,o),
(84,52,o),
(84,68,cs)
);
}
);
width = 500;
},
{
associatedMasterId = m01;
attr = {
colorPalette = 1;
};
layerId = "82CA5F3A-4005-4C2F-A4C8-9F9BF80BCCD0";
name = "15 Mar 69 BE 16:35";
shapes = (
{
closed = 1;
nodes = (
(58,123,o),
(56,135,o),
(56,148,cs),
(56,201,o),
(89,253,o),
(122,253,cs),
(126,253,o),
(134,250,o),
(145,244,cs),
(156,239,o),
(170,229,o),
(187,215,c),
(202,228,o),
(215,237,o),
(225,242,cs),
(234,247,o),
(241,250,o),
(244,250,c),
(268,246,o),
(296,212,o),
(296,159,cs),
(296,106,o),
(277,71,o),
(241,38,c),
(245,29,o),
(251,17,o),
(260,0,c),
(365,55,o),
(418,125,o),
(418,240,c),
(415,268,o),
(415,282,o),
(415,309,cs),
(415,345,o),
(418,368,o),
(431,395,c),
(377,413,l),
(362,382,o),
(358,358,o),
(358,326,cs),
(358,321,o),
(359,308,o),
(362,289,cs),
(365,270,o),
(366,252,o),
(366,237,cs),
(366,181,o),
(357,136,o),
(334,119,c),
(341,132,o),
(344,153,o),
(344,178,cs),
(344,242,o),
(307,296,o),
(244,311,c),
(231,304,o),
(213,293,o),
(188,278,c),
(134,310,l),
(58,310,o),
(0,235,o),
(0,147,cs),
(0,63,o),
(47,0,o),
(108,0,cs),
(141,0,o),
(167,31,o),
(167,68,cs),
(167,105,o),
(140,135,o),
(108,135,cs),
(89,135,o),
(74,126,o),
(61,111,c)
);
},
{
closed = 1;
nodes = (
(84,83,o),
(93,93,o),
(108,93,cs),
(121,93,o),
(131,83,o),
(131,68,cs),
(131,52,o),
(121,42,o),
(108,42,cs),
(93,42,o),
(84,52,o),
(84,68,cs)
);
}
);
width = 500;
}
);
note = divide;
unicode = 247;
},
{
glyphname = doChadathai;
layers = (
{
layerId = m01;
shapes = (
{
closed = 1;
nodes = (
(170,-216,o),
(205,-190,o),
(222,-155,c),
(234,-162,o),
(256,-180,o),
(273,-209,c),
(276,-212,o),
(281,-218,o),
(286,-225,c),
(296,-225,o),
(316,-225,o),
(346,-225,c),
(346,297,ls),
(346,369,o),
(281,415,o),
(205,415,cs),
(136,415,o),
(71,372,o),
(46,305,c),
(74,300,o),
(102,285,o),
(117,276,c),
(97,265,o),
(79,241,o),
(79,213,cs),
(79,145,l),
(78,146,o),
(75,147,o),
(74,147,cs),
(63,147,ls),
(28,147,o),
(-1,113,o),
(-1,73,cs),
(-1,32,o),
(27,-5,o),
(70,-5,cs),
(106,-5,o),
(135,32,o),
(135,72,cs),
(135,211,ls),
(135,235,o),
(158,260,o),
(189,279,c),
(174,295,o),
(160,300,o),
(116,323,c),
(131,344,o),
(163,362,o),
(202,362,cs),
(251,362,o),
(290,336,o),
(290,291,cs),
(290,-151,l),
(289,-150,o),
(286,-147,o),
(283,-143,cs),
(274,-130,o),
(255,-118,o),
(242,-110,c),
(243,-97,o),
(243,-82,o),
(244,-66,cs),
(245,-51,o),
(246,-31,o),
(246,-8,c),
(187,-8,l),
(187,-20,o),
(187,-44,o),
(186,-79,c),
(171,-71,o),
(157,-68,o),
(141,-68,cs),
(98,-68,o),
(67,-95,o),
(67,-139,cs),
(67,-179,o),
(94,-216,o),
(135,-216,cs)
);
},
{
closed = 1;
nodes = (
(40,86,o),
(50,100,o),
(63,100,cs),
(78,100,o),
(87,86,o),
(87,73,cs),
(87,60,o),
(78,45,o),
(63,45,cs),
(50,45,o),
(40,60,o),
(40,73,cs)
);
},
{
closed = 1;
nodes = (
(174,-148,o),
(154,-166,o),
(137,-166,cs),
(125,-166,o),
(113,-158,o),
(113,-142,cs),
(113,-127,o),
(124,-116,o),
(141,-116,cs),
(153,-116,o),
(164,-120,o),
(175,-128,c)
);
}
);
width = 428;
}
);
note = doChadathai;
unicode = 3598;
},
{
glyphname = doDekthai;
layers = (
{
layerId = m01;
shapes = (
{
closed = 1;
nodes = (
(104,207,o),
(121,180,o),
(141,169,c),
(137,163,o),
(131,154,o),
(122,143,cs),
(119,138,o),
(113,129,o),
(104,116,c),
(102,124,ls),
(101,129,o),
(99,135,o),
(96,144,cs),
(73,223,ls),
(65,246,o),
(62,264,o),
(62,279,cs),
(62,322,o),
(110,361,o),
(165,361,cs),
(212,361,o),
(261,323,o),
(261,278,cs),
(261,0,l),
(270,0,o),
(289,0,o),
(317,0,c),
(317,279,ls),
(317,354,o),
(248,415,o),
(167,415,cs),
(86,415,o),
(6,350,o),
(6,274,cs),
(6,241,o),
(14,205,o),
(29,164,cs),
(44,123,o),
(52,85,o),
(52,50,cs),
(52,34,o),
(52,17,o),
(49,0,c),
(104,0,l),
(111,24,o),
(127,53,o),
(150,92,c),
(199,165,ls),
(212,186,o),
(221,199,o),
(225,205,cs),
(229,211,o),
(231,219,o),
(231,230,cs),
(231,274,o),
(208,312,o),
(168,312,cs),
(132,312,o),
(104,278,o),
(104,238,cs)
);
},
{
closed = 1;
nodes = (
(145,253,o),
(156,264,o),
(169,264,cs),
(181,264,o),
(193,253,o),
(193,238,cs),
(193,221,o),
(181,211,o),
(169,211,cs),
(156,211,o),
(145,222,o),
(145,238,cs)
);
}
);
width = 399;
}
);
note = doDekthai;
unicode = 3604;
},
{
glyphname = dollar;
layers = (
{
layerId = m01;
shapes = (
{
closed = 1;
nodes = (
(122,42,l),
(65,42,o),
(48,65,o),
(48,157,c),
(-6,157,l),
(-6,37,o),
(35,-10,o),
(122,-10,c),
(122,-79,l),
(127,-79,o),
(136,-79,o),
(151,-79,c),
(151,-10,l),
(235,-10,o),
(284,44,o),
(284,137,cs),
(284,202,o),
(262,230,o),
(197,262,cs),
(152,284,l),
(152,313,o),
(152,370,o),
(152,456,c),
(157,456,ls),
(198,456,o),
(215,436,o),
(215,372,c),
(269,372,l),
(269,457,o),
(231,507,o),
(152,507,c),
(152,551,l),
(147,551,o),
(137,551,o),
(122,551,c),
(122,507,l),
(43,507,o),
(-2,450,o),
(-2,371,cs),
(-2,310,o),
(23,275,o),
(122,231,c)
);
},
{
closed = 1;
nodes = (
(122,295,l),
(70,322,o),
(55,338,o),
(55,379,cs),
(55,426,o),
(79,456,o),
(122,456,c)
);
},
{
closed = 1;
nodes = (
(151,220,l),
(212,196,o),
(225,175,o),
(225,124,cs),
(225,69,o),
(204,42,o),
(151,42,c)
);
}
);
width = 338;
}
);
note = dollar;
unicode = 36;
},
{
glyphname = dottedcircle;
layers = (
{
layerId = m01;
shapes = (
{
closed = 1;
nodes = (
(291,491,o),
(303,492,o),
(315,492,cs),
(326,492,o),
(337,490,o),
(348,489,c),
(341,504,o),
(329,527,o),
(313,557,c),
(308,546,o),
(296,523,o),
(279,488,c)
);
},
{
closed = 1;
nodes = (
(168,428,o),
(183,446,o),
(203,458,c),
(188,463,o),
(164,471,o),
(133,482,c),
(136,470,o),
(144,446,o),
(155,411,c)
);
},
{
closed = 1;
nodes = (
(448,444,o),
(465,427,o),
(478,410,c),
(483,426,o),
(492,450,o),
(503,482,c),
(490,478,o),
(466,470,o),
(429,457,c)
);
},
{
closed = 1;
nodes = (
(118,259,l),
(117,270,o),
(116,279,o),
(116,291,cs),
(116,303,o),
(116,315,o),
(119,328,c),
(104,321,o),
(81,310,o),
(50,295,c)
);
},
{
closed = 1;
nodes = (
(516,314,o),
(516,302,o),
(516,291,cs),
(516,280,o),
(515,272,o),
(514,261,c),
(578,292,l),
(567,297,o),
(545,309,o),
(513,326,c)
);
},
{
closed = 1;
nodes = (
(178,142,o),
(162,158,o),
(150,177,c),
(144,161,o),
(136,137,o),
(125,104,c),
(137,109,o),
(161,117,o),
(197,129,c)
);
},
{
closed = 1;
nodes = (
(463,152,o),
(448,138,o),
(431,127,c),
(494,104,l),
(491,115,o),
(484,137,o),
(475,169,c)
);
},
{
closed = 1;
nodes = (
(336,92,o),
(326,90,o),
(315,90,cs),
(304,90,o),
(293,92,o),
(282,93,c),
(313,30,l),
(318,41,o),
(329,62,o),
(345,93,c)
);
}
);
width = 628;
}
);
note = dottedcircle;
unicode = 9676;
},
{
glyphname = e;
layers = (
{
layerId = m01;
shapes = (
{
closed = 1;
nodes = (
(183,125,l),
(183,123,l),
(184,122,o),
(184,121,o),
(184,120,cs),
(184,112,ls),
(184,64,o),
(160,35,o),
(121,35,cs),
(98,35,o),
(81,44,o),
(70,61,cs),
(59,78,o),
(53,111,o),
(53,159,cs),
(53,164,o),
(53,172,o),
(53,183,c),
(237,183,l),
(237,340,o),
(208,386,o),
(119,386,cs),
(40,386,o),
(-2,307,o),
(-2,188,cs),
(-2,53,o),
(37,-10,o),
(120,-10,cs),
(191,-10,o),
(233,38,o),
(233,125,c)
);
},
{
closed = 1;
nodes = (
(53,227,l),
(53,308,o),
(75,341,o),
(120,341,cs),
(163,341,o),
(181,310,o),
(181,227,c)
);
}
);
width = 300;
}
);
note = e;
unicode = 101;
},
{
glyphname = eacute;
lastChange = "2026-03-15 09:26:21 +0000";
layers = (
{
layerId = m01;
shapes = (
{
closed = 1;
nodes = (
(-169,750,o),
(-188,733,o),
(-220,724,c),
(-219,715,o),
(-217,703,o),
(-214,686,c),
(-143,693,o),
(-63,727,o),
(-3,775,cs),
(29,802,o),
(56,832,o),
(72,864,c),
(62,871,o),
(47,881,o),
(28,895,c),
(8,844,o),
(-70,773,o),
(-127,753,c),
(-116,770,o),
(-108,803,o),
(-108,831,cs),
(-108,879,o),
(-133,908,o),
(-168,908,cs),
(-196,908,o),
(-223,878,o),
(-223,845,cs),
(-223,810,o),
(-200,781,o),
(-165,781,c)
);
},
{
closed = 1;
nodes = (
(-189,857,o),
(-179,869,o),
(-168,869,cs),
(-156,869,o),
(-145,860,o),
(-145,845,cs),
(-145,832,o),
(-153,821,o),
(-168,821,cs),
(-179,821,o),
(-189,833,o),
(-189,845,cs)
);
}
);
width = 0;
},
{
associatedMasterId = m01;
attr = {
colorPalette = 1;
};
layerId = "4F595356-2986-496F-8830-33180474F3B9";
name = "15 Mar 69 BE 16:26";
shapes = (
{
closed = 1;
nodes = (
(-169,750,o),
(-188,733,o),
(-220,724,c),
(-219,715,o),
(-217,703,o),
(-214,686,c),
(-143,693,o),
(-63,727,o),
(-3,775,cs),
(29,802,o),
(56,832,o),
(72,864,c),
(62,871,o),
(47,881,o),
(28,895,c),
(8,844,o),
(-70,773,o),
(-127,753,c),
(-116,770,o),
(-108,803,o),
(-108,831,cs),
(-108,879,o),
(-133,908,o),
(-168,908,cs),
(-196,908,o),
(-223,878,o),
(-223,845,cs),
(-223,810,o),
(-200,781,o),
(-165,781,c)
);
},
{
closed = 1;
nodes = (
(-189,857,o),
(-179,869,o),
(-168,869,cs),
(-156,869,o),
(-145,860,o),
(-145,845,cs),
(-145,832,o),
(-153,821,o),
(-168,821,cs),
(-179,821,o),
(-189,833,o),
(-189,845,cs)
);
}
);
visible = 1;
width = 0;
}
);
note = eacute;
unicode = 233;
},
{
glyphname = ecircumflex;
lastChange = "2026-03-15 09:36:13 +0000";
layers = (
{
layerId = m01;
shapes = (
{
closed = 1;
nodes = (
(-188,824,o),
(-172,835,o),
(-156,835,cs),
(-143,835,o),
(-137,830,o),
(-128,821,c),
(-119,830,o),
(-114,831,o),
(-103,831,cs),
(-83,831,o),
(-69,812,o),
(-69,785,cs),
(-69,756,o),
(-78,733,o),
(-103,718,c),
(-79,691,l),
(2,730,o),
(55,806,o),
(55,887,c),
(2,887,l),
(2,839,o),
(-7,807,o),
(-28,784,c),
(-28,788,l),
(-27,789,o),
(-27,791,o),
(-27,792,cs),
(-27,798,ls),
(-27,842,o),
(-55,882,o),
(-98,890,c),
(-105,885,o),
(-116,879,o),
(-129,870,c),
(-134,874,o),
(-143,881,o),
(-158,892,c),
(-209,881,o),
(-246,832,o),
(-246,776,cs),
(-246,724,o),
(-219,691,o),
(-178,691,cs),
(-150,691,o),
(-125,719,o),
(-125,750,cs),
(-125,781,o),
(-150,808,o),
(-178,808,cs),
(-181,808,o),
(-184,808,o),
(-189,807,c)
);
},
{
closed = 1;
nodes = (
(-203,769,o),
(-194,779,o),
(-179,779,cs),
(-167,779,o),
(-156,767,o),
(-156,754,cs),
(-156,739,o),
(-170,728,o),
(-179,728,cs),
(-194,728,o),
(-203,738,o),
(-203,754,cs)
);
}
);
width = 0;
},
{
associatedMasterId = m01;
attr = {
colorPalette = 1;
};
layerId = "8C82A38B-CA72-444C-906E-2E68C65FD323";
name = "15 Mar 69 BE 16:36";
shapes = (
{
closed = 1;
nodes = (
(-188,824,o),
(-172,835,o),
(-156,835,cs),
(-143,835,o),
(-137,830,o),
(-128,821,c),
(-119,830,o),
(-114,831,o),
(-103,831,cs),
(-83,831,o),
(-69,812,o),
(-69,785,cs),
(-69,756,o),
(-78,733,o),
(-103,718,c),
(-79,691,l),
(2,730,o),
(55,806,o),
(55,887,c),
(2,887,l),
(2,839,o),
(-7,807,o),
(-28,784,c),
(-28,788,l),
(-27,789,o),
(-27,791,o),
(-27,792,cs),
(-27,798,ls),
(-27,842,o),
(-55,882,o),
(-98,890,c),
(-105,885,o),
(-116,879,o),
(-129,870,c),
(-134,874,o),
(-143,881,o),
(-158,892,c),
(-209,881,o),
(-246,832,o),
(-246,776,cs),
(-246,724,o),
(-219,691,o),
(-178,691,cs),
(-150,691,o),
(-125,719,o),
(-125,750,cs),
(-125,781,o),
(-150,808,o),
(-178,808,cs),
(-181,808,o),
(-184,808,o),
(-189,807,c)
);
},
{
closed = 1;
nodes = (
(-203,769,o),
(-194,779,o),
(-179,779,cs),
(-167,779,o),
(-156,767,o),
(-156,754,cs),
(-156,739,o),
(-170,728,o),
(-179,728,cs),
(-194,728,o),
(-203,738,o),
(-203,754,cs)
);
}
);
visible = 1;
width = 0;
}
);
note = ecircumflex;
unicode = 234;
},
{
glyphname = edieresis;
lastChange = "2026-03-15 09:36:20 +0000";
layers = (
{
layerId = m01;
shapes = (
{
closed = 1;
nodes = (
(-201,808,l),
(-201,799,o),
(-201,781,o),
(-201,754,c),
(-138,754,l),
(-138,743,o),
(-138,722,o),
(-138,691,c),
(-82,691,l),
(-82,702,o),
(-82,723,o),
(-82,754,c),
(-22,754,l),
(-22,763,o),
(-22,781,o),
(-22,808,c),
(-82,808,l),
(-82,819,o),
(-82,839,o),
(-82,870,c),
(-138,870,l),
(-138,860,o),
(-138,839,o),
(-138,808,c)
);
}
);
width = 0;
},
{
associatedMasterId = m01;
attr = {
colorPalette = 1;
};
layerId = "AA4570E4-F98A-463C-A425-751A2D4068F7";
name = "15 Mar 69 BE 16:36";
shapes = (
{
closed = 1;
nodes = (
(-201,808,l),
(-201,799,o),
(-201,781,o),
(-201,754,c),
(-138,754,l),
(-138,743,o),
(-138,722,o),
(-138,691,c),
(-82,691,l),
(-82,702,o),
(-82,723,o),
(-82,754,c),
(-22,754,l),
(-22,763,o),
(-22,781,o),
(-22,808,c),
(-82,808,l),
(-82,819,o),
(-82,839,o),
(-82,870,c),
(-138,870,l),
(-138,860,o),
(-138,839,o),
(-138,808,c)
);
}
);
width = 0;
}
);
note = edieresis;
unicode = 235;
},
{
glyphname = egrave;
lastChange = "2026-03-15 09:54:29 +0000";
layers = (
{
layerId = m01;
shapes = (
{
closed = 1;
nodes = (
(-138,691,l),
(-129,691,o),
(-110,691,o),
(-82,691,c),
(-82,820,l),
(-91,820,o),
(-110,820,o),
(-138,820,c)
);
}
);
width = 0;
},
{
associatedMasterId = m01;
attr = {
colorPalette = 1;
};
layerId = "1BC4931D-7B67-4790-8DD8-3D6CAFC3F3C5";
name = "15 Mar 69 BE 16:54";
shapes = (
{
closed = 1;
nodes = (
(-138,691,l),
(-129,691,o),
(-110,691,o),
(-82,691,c),
(-82,820,l),
(-91,820,o),
(-110,820,o),
(-138,820,c)
);
}
);
visible = 1;
width = 0;
}
);
note = egrave;
unicode = 232;
},
{
glyphname = eight;
layers = (
{
layerId = m01;
shapes = (
{
closed = 1;
nodes = (
(238,240,o),
(260,274,o),
(260,311,cs),
(260,372,o),
(206,415,o),
(138,415,cs),
(66,415,o),
(16,367,o),
(16,311,cs),
(16,275,o),
(38,240,o),
(73,223,c),
(29,204,o),
(3,162,o),
(3,117,cs),
(3,49,o),
(61,-5,o),
(138,-5,cs),
(213,-5,o),
(273,48,o),
(273,117,cs),
(273,162,o),
(246,204,o),
(205,223,c)
);
},
{
closed = 1;
nodes = (
(59,346,o),
(98,373,o),
(138,373,cs),
(178,373,o),
(217,346,o),
(217,311,cs),
(217,279,o),
(181,250,o),
(138,250,cs),
(98,250,o),
(59,276,o),
(59,311,cs)
);
},
{
closed = 1;
nodes = (
(50,164,o),
(90,200,o),
(138,200,cs),
(186,200,o),
(226,164,o),
(226,120,cs),
(226,76,o),
(186,40,o),
(138,40,cs),
(91,40,o),
(50,76,o),
(50,120,cs)
);
}
);
width = 338;
}
);
note = eight;
unicode = 56;
},
{
glyphname = eightthai;
lastChange = "2026-03-15 09:25:51 +0000";
layers = (
{
layerId = m01;
shapes = (
{
closed = 1;
nodes = (
(205,103,ls),
(200,106,o),
(192,113,o),
(179,122,cs),
(154,141,o),
(130,150,o),
(111,150,cs),
(94,150,o),
(72,136,o),
(63,121,c),
(63,126,o),
(62,132,o),
(61,137,c),
(61,153,ls),
(61,193,o),
(75,218,o),
(98,235,cs),
(142,264,o),
(219,263,o),
(306,263,cs),
(383,263,o),
(455,334,o),
(455,415,c),
(386,415,l),
(386,339,o),
(351,307,o),
(258,307,cs),
(180,307,ls),
(64,307,o),
(0,245,o),
(0,140,cs),
(0,93,o),
(12,44,o),
(33,0,c),
(92,0,l),
(87,15,o),
(82,36,o),
(82,52,cs),
(82,77,o),
(89,90,o),
(104,90,cs),
(117,90,o),
(138,82,o),
(159,67,cs),
(171,57,o),
(190,42,o),
(215,23,cs),
(239,7,o),
(260,0,o),
(280,0,cs),
(325,0,o),
(358,29,o),
(358,76,cs),
(358,116,o),
(328,146,o),
(295,146,cs),
(263,146,o),
(235,121,o),
(231,84,c)
);
},
{
closed = 1;
nodes = (
(270,91,o),
(282,103,o),
(295,103,cs),
(308,103,o),
(319,91,o),
(319,76,cs),
(319,60,o),
(308,48,o),
(295,48,cs),
(282,48,o),
(270,60,o),
(270,76,cs)
);
}
);
width = 440;
},
{
associatedMasterId = m01;
attr = {
colorPalette = 1;
};
layerId = "1F0BEF36-F224-44DA-924C-695701D78851";
name = "15 Mar 69 BE 16:25";
shapes = (
{
closed = 1;
nodes = (
(205,103,ls),
(200,106,o),
(192,113,o),
(179,122,cs),
(154,141,o),
(130,150,o),
(111,150,cs),
(94,150,o),
(72,136,o),
(63,121,c),
(63,126,o),
(62,132,o),
(61,137,c),
(61,153,ls),
(61,193,o),
(75,218,o),
(98,235,cs),
(142,264,o),
(219,263,o),
(306,263,cs),
(383,263,o),
(455,334,o),
(455,415,c),
(386,415,l),
(386,339,o),
(351,307,o),
(258,307,cs),
(180,307,ls),
(64,307,o),
(0,245,o),
(0,140,cs),
(0,93,o),
(12,44,o),
(33,0,c),
(92,0,l),
(87,15,o),
(82,36,o),
(82,52,cs),
(82,77,o),
(89,90,o),
(104,90,cs),
(117,90,o),
(138,82,o),
(159,67,cs),
(171,57,o),
(190,42,o),
(215,23,cs),
(239,7,o),
(260,0,o),
(280,0,cs),
(325,0,o),
(358,29,o),
(358,76,cs),
(358,116,o),
(328,146,o),
(295,146,cs),
(263,146,o),
(235,121,o),
(231,84,c)
);
},
{
closed = 1;
nodes = (
(270,91,o),
(282,103,o),
(295,103,cs),
(308,103,o),
(319,91,o),
(319,76,cs),
(319,60,o),
(308,48,o),
(295,48,cs),
(282,48,o),
(270,60,o),
(270,76,cs)
);
}
);
visible = 1;
width = 440;
}
);
note = eightthai;
unicode = 3672;
},
{
glyphname = emdash;
layers = (
{
layerId = m01;
shapes = (
{
closed = 1;
nodes = (
(0,232,l),
(0,216,ls),
(0,209,o),
(0,196,o),
(0,177,c),
(516,177,l),
(516,186,o),
(516,205,o),
(516,232,c)
);
}
);
width = 596;
}
);
note = emdash;
unicode = 8212;
},
{
glyphname = endash;
layers = (
{
layerId = m01;
shapes = (
{
closed = 1;
nodes = (
(0,232,l),
(0,216,ls),
(0,209,o),
(0,196,o),
(0,177,c),
(383,177,l),
(383,186,o),
(383,205,o),
(383,232,c)
);
}
);
width = 465;
}
);
note = endash;
unicode = 8211;
},
{
glyphname = equal;
layers = (
{
layerId = m01;
shapes = (
{
closed = 1;
nodes = (
(0,307,l),
(0,291,ls),
(0,284,o),
(0,271,o),
(0,252,c),
(383,252,l),
(383,261,o),
(383,280,o),
(383,307,c)
);
},
{
closed = 1;
nodes = (
(0,158,l),
(0,155,o),
(0,150,o),
(0,141,cs),
(0,102,l),
(64,102,o),
(192,102,o),
(383,102,c),
(383,158,l),
(367,158,o),
(335,158,o),
(287,158,cs)
);
}
);
width = 465;
}
);
note = equal;
unicode = 61;
},
{
glyphname = eth;
layers = (
{
layerId = m01;
shapes = (
{
closed = 1;
nodes = (
(248,-2,o),
(322,66,o),
(322,154,cs),
(322,241,o),
(246,309,o),
(161,309,cs),
(74,309,o),
(0,241,o),
(0,154,cs),
(0,67,o),
(73,-2,o),
(161,-2,cs)
);
},
{
closed = 1;
nodes = (
(52,213,o),
(100,261,o),
(161,261,cs),
(224,261,o),
(269,210,o),
(269,153,cs),
(269,92,o),
(221,44,o),
(161,44,cs),
(100,44,o),
(52,92,o),
(52,153,cs)
);
}
);
width = 403;
}
);
note = eth;
unicode = 240;
},
{
glyphname = exclam;
layers = (
{
layerId = m01;
shapes = (
{
closed = 1;
nodes = (
(30,125,o),
(50,125,o),
(80,125,c),
(80,227,ls),
(80,278,o),
(80,379,o),
(80,532,c),
(6,532,l),
(9,465,o),
(13,329,o),
(20,125,c)
);
},
{
closed = 1;
nodes = (
(19,82,o),
(0,63,o),
(0,39,cs),
(0,16,o),
(18,-4,o),
(43,-4,cs),
(68,-4,o),
(86,16,o),
(86,39,cs),
(86,63,o),
(67,82,o),
(43,82,cs)
);
}
);
width = 168;
}
);
note = exclam;
unicode = 33;
},
{
glyphname = f;
layers = (
{
layerId = m01;
shapes = (
{
closed = 1;
nodes = (
(32,0,l),
(41,0,o),
(59,0,o),
(86,0,c),
(86,331,l),
(96,331,o),
(115,331,o),
(144,331,c),
(144,376,l),
(135,376,o),
(115,376,o),
(86,376,c),
(86,416,ls),
(86,456,o),
(99,463,o),
(124,463,cs),
(135,463,l),
(136,462,o),
(138,462,o),
(140,462,cs),
(141,462,o),
(143,462,o),
(144,462,c),
(144,507,l),
(135,508,o),
(125,509,o),
(117,509,cs),
(52,509,o),
(32,483,o),
(32,408,cs),
(32,376,l),
(23,376,o),
(4,376,o),
(-23,376,c),
(-23,331,l),
(-14,331,o),
(5,331,o),
(32,331,c)
);
}
);
width = 187;
}
);
note = f;
unicode = 102;
},
{
glyphname = five;
layers = (
{
layerId = m01;
shapes = (
{
closed = 1;
nodes = (
(26,202,o),
(38,198,o),
(56,191,c),
(77,218,o),
(104,231,o),
(136,231,cs),
(187,231,o),
(223,186,o),
(223,138,cs),
(223,85,o),
(183,39,o),
(131,39,cs),
(90,39,o),
(55,75,o),
(51,116,c),
(6,102,l),
(17,38,o),
(73,-5,o),
(137,-5,cs),
(212,-5,o),
(269,66,o),
(269,139,cs),
(269,214,o),
(216,275,o),
(143,275,cs),
(120,275,o),
(98,271,o),
(73,255,c),
(75,279,o),
(79,315,o),
(84,364,c),
(244,364,l),
(244,371,o),
(244,387,o),
(244,410,c),
(42,410,l),
(39,375,o),
(31,307,o),
(20,205,c)
);
}
);
width = 338;
}
);
note = five;
unicode = 53;
},
{
glyphname = fivethai;
layers = (
{
layerId = m01;
shapes = (
{
closed = 1;
nodes = (
(175,332,o),
(178,320,o),
(185,311,cs),
(187,309,o),
(190,305,o),
(195,300,c),
(86,300,o),
(0,228,o),
(0,135,cs),
(0,54,o),
(71,-2,o),
(151,-2,cs),
(157,-2,o),
(172,1,o),
(195,6,cs),
(219,11,o),
(247,13,o),
(278,13,cs),
(306,13,o),
(338,11,o),
(367,-4,c),
(370,6,o),
(375,21,o),
(382,40,c),
(380,41,o),
(370,44,o),
(351,48,cs),
(333,52,o),
(306,57,o),
(271,63,cs),
(246,68,o),
(226,78,o),
(213,89,c),
(230,101,o),
(240,120,o),
(240,145,cs),
(240,184,o),
(212,212,o),
(179,212,cs),
(147,212,o),
(117,184,o),
(117,145,cs),
(117,104,o),
(147,65,o),
(196,44,c),
(194,43,o),
(192,43,o),
(191,43,cs),
(190,43,o),
(188,43,o),
(186,43,cs),
(177,43,ls),
(109,43,o),
(65,90,o),
(65,143,cs),
(65,179,o),
(74,208,o),
(126,231,cs),
(154,243,o),
(195,253,o),
(252,261,cs),
(345,274,o),
(400,324,o),
(420,407,c),
(405,410,o),
(381,414,o),
(350,419,c),
(350,388,o),
(334,358,o),
(309,338,c),
(309,343,ls),
(309,376,o),
(278,403,o),
(242,403,cs),
(206,403,o),
(175,378,o),
(175,343,cs)
);
},
{
closed = 1;
nodes = (
(218,350,o),
(230,359,o),
(245,359,cs),
(260,359,o),
(271,347,o),
(271,335,cs),
(271,319,o),
(258,311,o),
(245,311,cs),
(230,311,o),
(218,319,o),
(218,335,cs)
);
},
{
closed = 1;
nodes = (
(155,163,o),
(164,175,o),
(179,175,cs),
(192,175,o),
(204,161,o),
(204,148,cs),
(204,135,o),
(194,123,o),
(179,123,cs),
(164,123,o),
(155,135,o),
(155,148,cs)
);
}
);
width = 461;
}
);
note = fivethai;
unicode = 3669;
},
{
glyphname = florin;
lastChange = "2026-03-15 09:29:19 +0000";
layers = (
{
layerId = m01;
shapes = (
{
closed = 1;
nodes = (
(-179,645,l),
(-188,645,o),
(-207,645,o),
(-236,645,c),
(-236,573,l),
(-265,596,o),
(-306,608,o),
(-343,608,cs),
(-419,608,o),
(-485,553,o),
(-485,484,c),
(-445,493,o),
(-390,499,o),
(-351,499,cs),
(-294,499,o),
(-214,489,o),
(-166,481,c),
(-169,492,o),
(-174,501,o),
(-179,510,c)
);
},
{
closed = 1;
nodes = (
(-258,529,o),
(-275,531,o),
(-292,534,cs),
(-309,536,o),
(-328,537,o),
(-347,537,cs),
(-367,537,o),
(-401,535,o),
(-422,528,c),
(-409,545,o),
(-379,562,o),
(-340,562,cs),
(-303,562,o),
(-260,544,o),
(-243,527,c)
);
}
);
width = 0;
},
{
associatedMasterId = m01;
attr = {
colorPalette = 1;
};
layerId = "3D6356C4-4B9E-47C2-9FF5-B1649CAF7F07";
name = "15 Mar 69 BE 16:29";
shapes = (
{
closed = 1;
nodes = (
(-179,645,l),
(-188,645,o),
(-207,645,o),
(-236,645,c),
(-236,573,l),
(-265,596,o),
(-306,608,o),
(-343,608,cs),
(-419,608,o),
(-485,553,o),
(-485,484,c),
(-445,493,o),
(-390,499,o),
(-351,499,cs),
(-294,499,o),
(-214,489,o),
(-166,481,c),
(-169,492,o),
(-174,501,o),
(-179,510,c)
);
},
{
closed = 1;
nodes = (
(-258,529,o),
(-275,531,o),
(-292,534,cs),
(-309,536,o),
(-328,537,o),
(-347,537,cs),
(-367,537,o),
(-401,535,o),
(-422,528,c),
(-409,545,o),
(-379,562,o),
(-340,562,cs),
(-303,562,o),
(-260,544,o),
(-243,527,c)
);
}
);
visible = 1;
width = 0;
}
);
note = florin;
unicode = 402;
},
{
glyphname = foFanthai;
layers = (
{
layerId = m01;
shapes = (
{
closed = 1;
nodes = (
(131,0,l),
(146,42,o),
(177,127,o),
(223,254,c),
(319,0,l),
(328,0,o),
(347,0,o),
(375,0,c),
(375,666,l),
(366,666,o),
(347,666,o),
(318,666,c),
(318,147,l),
(303,190,o),
(271,274,o),
(224,401,c),
(208,359,o),
(175,274,o),
(126,147,c),
(126,344,ls),
(126,380,o),
(102,415,o),
(62,415,cs),
(27,415,o),
(0,381,o),
(0,340,cs),
(0,303,o),
(26,265,o),
(59,265,c),
(62,266,o),
(65,266,o),
(70,266,c),
(70,222,o),
(70,133,o),
(70,0,c)
);
},
{
closed = 1;
nodes = (
(36,355,o),
(44,368,o),
(59,368,cs),
(72,368,o),
(83,356,o),
(83,340,cs),
(83,325,o),
(72,313,o),
(59,313,cs),
(46,313,o),
(36,324,o),
(36,340,cs)
);
}
);
width = 457;
}
);
note = foFanthai;
unicode = 3615;
},
{
glyphname = foFathai;
layers = (
{
layerId = m01;
shapes = (
{
closed = 1;
nodes = (
(251,75,l),
(236,103,o),
(190,170,o),
(167,191,c),
(146,168,o),
(127,147,o),
(116,131,cs),
(94,100,ls),
(91,95,o),
(88,89,o),
(85,83,cs),
(82,78,o),
(80,72,o),
(77,67,c),
(77,266,l),
(78,266,o),
(82,266,o),
(87,265,c),
(122,265,o),
(146,301,o),
(146,340,cs),
(146,379,o),
(121,415,o),
(84,415,cs),
(47,415,o),
(20,381,o),
(20,344,cs),
(20,333,o),
(20,315,o),
(20,292,cs),
(20,50,ls),
(20,22,o),
(35,0,o),
(54,0,cs),
(101,0,l),
(108,16,o),
(115,34,o),
(123,53,cs),
(131,73,o),
(146,95,o),
(167,120,c),
(208,65,o),
(226,33,o),
(242,0,c),
(257,0,o),
(278,0,o),
(307,0,c),
(307,666,l),
(298,666,o),
(279,666,o),
(251,666,c)
);
},
{
closed = 1;
nodes = (
(100,368,o),
(111,355,o),
(111,340,cs),
(111,323,o),
(100,313,o),
(87,313,cs),
(74,313,o),
(63,324,o),
(63,340,cs),
(63,357,o),
(72,368,o),
(87,368,cs)
);
}
);
width = 389;
}
);
note = foFathai;
unicode = 3613;
},
{
glyphname = fongmanthai;
layers = (
{
layerId = m01;
shapes = (
{
closed = 1;
nodes = (
(346,-5,o),
(440,89,o),
(440,205,cs),
(440,321,o),
(346,415,o),
(230,415,cs),
(115,415,o),
(20,321,o),
(20,205,cs),
(20,89,o),
(115,-5,o),
(230,-5,cs)
);
},
{
closed = 1;
nodes = (
(410,109,o),
(330,26,o),
(230,26,cs),
(133,26,o),
(51,106,o),
(51,205,cs),
(51,304,o),
(134,384,o),
(230,384,cs),
(327,384,o),
(410,302,o),
(410,205,cs)
);
},
{
closed = 1;
nodes = (
(302,77,o),
(358,136,o),
(358,205,cs),
(358,274,o),
(301,333,o),
(230,333,cs),
(159,333,o),
(102,277,o),
(102,205,cs),
(102,133,o),
(159,77,o),
(230,77,cs)
);
}
);
width = 512;
}
);
note = fongmanthai;
unicode = 3663;
},
{
glyphname = four;
layers = (
{
layerId = m01;
shapes = (
{
closed = 1;
nodes = (
(284,98,l),
(284,105,o),
(284,119,o),
(284,140,c),
(225,140,l),
(225,185,o),
(225,275,o),
(225,410,c),
(170,410,l),
(141,365,o),
(82,276,o),
(-7,141,c),
(-7,136,ls),
(-7,129,o),
(-7,116,o),
(-7,97,c),
(174,97,l),
(174,81,o),
(174,49,o),
(174,0,c),
(225,0,l),
(225,17,o),
(225,49,o),
(225,98,c)
);
},
{
closed = 1;
nodes = (
(174,140,l),
(47,140,l),
(68,173,o),
(111,238,o),
(174,337,c)
);
}
);
width = 338;
}
);
note = four;
unicode = 52;
},
{
glyphname = fourthai;
layers = (
{
layerId = m01;
shapes = (
{
closed = 1;
nodes = (
(231,101,o),
(241,120,o),
(241,145,cs),
(241,184,o),
(213,212,o),
(180,212,cs),
(145,212,o),
(118,181,o),
(118,145,cs),
(118,104,o),
(143,74,o),
(211,43,c),
(200,40,o),
(191,39,o),
(180,39,cs),
(116,39,o),
(60,87,o),
(60,150,cs),
(60,206,o),
(106,243,o),
(185,255,cs),
(334,279,o),
(403,305,o),
(427,404,c),
(362,419,l),
(354,371,o),
(326,339,o),
(282,322,c),
(253,315,o),
(209,306,o),
(150,294,cs),
(61,275,o),
(0,216,o),
(0,139,cs),
(0,60,o),
(75,-2,o),
(162,-2,cs),
(178,-2,o),
(199,1,o),
(226,6,cs),
(252,11,o),
(270,13,o),
(279,13,cs),
(306,13,o),
(339,11,o),
(368,-4,c),
(371,6,o),
(376,21,o),
(383,40,c),
(365,44,o),
(329,52,o),
(274,63,cs),
(249,68,o),
(229,77,o),
(214,89,c)
);
},
{
closed = 1;
nodes = (
(156,163,o),
(165,175,o),
(180,175,cs),
(193,175,o),
(205,161,o),
(205,148,cs),
(205,135,o),
(195,123,o),
(180,123,cs),
(165,123,o),
(156,135,o),
(156,148,cs)
);
}
);
width = 461;
}
);
note = fourthai;
unicode = 3668;
},
{
glyphname = g;
layers = (
{
layerId = m01;
shapes = (
{
closed = 1;
nodes = (
(183,369,o),
(154,386,o),
(119,386,cs),
(32,386,o),
(0,294,o),
(0,190,cs),
(0,58,o),
(37,-10,o),
(120,-10,cs),
(156,-10,o),
(177,4,o),
(201,44,c),
(201,44,o),
(202,44,o),
(203,44,c),
(203,24,ls),
(203,-49,o),
(180,-83,o),
(124,-83,cs),
(89,-83,o),
(70,-68,o),
(66,-36,c),
(13,-36,l),
(20,-101,o),
(63,-129,o),
(135,-129,cs),
(196,-129,o),
(257,-86,o),
(257,45,cs),
(257,118,o),
(257,229,o),
(257,376,c),
(204,376,l),
(204,369,o),
(204,354,o),
(203,333,c)
);
},
{
closed = 1;
nodes = (
(55,242,o),
(61,282,o),
(74,305,cs),
(86,329,o),
(104,341,o),
(129,341,cs),
(182,341,o),
(204,287,o),
(204,196,cs),
(204,135,o),
(198,93,o),
(185,70,cs),
(172,47,o),
(152,35,o),
(123,35,cs),
(98,35,o),
(81,48,o),
(71,74,cs),
(60,100,o),
(55,138,o),
(55,187,cs)
);
}
);
width = 338;
}
);
note = g;
unicode = 103;
},
{
glyphname = germandbls;
layers = (
{
layerId = m01;
shapes = (
{
closed = 1;
nodes = (
(174,0,l),
(254,0,o),
(299,55,o),
(299,144,cs),
(299,213,o),
(269,253,o),
(214,261,c),
(269,280,o),
(287,311,o),
(287,370,cs),
(287,446,o),
(247,492,o),
(174,492,c),
(174,505,o),
(174,526,o),
(174,553,c),
(133,553,l),
(133,543,o),
(133,523,o),
(133,492,c),
(22,492,l),
(22,479,o),
(22,454,o),
(22,417,cs),
(22,0,l),
(40,0,o),
(77,0,o),
(133,0,c),
(133,-61,l),
(140,-61,o),
(153,-61,o),
(174,-61,c)
);
},
{
closed = 1;
nodes = (
(133,282,l),
(124,282,o),
(105,282,o),
(76,282,c),
(76,442,l),
(85,442,o),
(104,442,o),
(133,442,c)
);
},
{
closed = 1;
nodes = (
(174,439,l),
(217,431,o),
(228,413,o),
(228,365,cs),
(228,316,o),
(215,292,o),
(174,283,c)
);
},
{
closed = 1;
nodes = (
(133,49,l),
(124,49,o),
(105,49,o),
(76,49,c),
(76,232,l),
(85,232,o),
(104,232,o),
(133,232,c)
);
},
{
closed = 1;
nodes = (
(174,230,l),
(225,226,o),
(243,197,o),
(243,141,cs),
(243,84,o),
(230,57,o),
(174,49,c)
);
}
);
width = 375;
}
);
note = germandbls;
unicode = 223;
},
{
glyphname = grave;
lastChange = "2026-03-15 10:07:36 +0000";
layers = (
{
layerId = m01;
shapes = (
{
closed = 1;
nodes = (
(-7,517,l),
(8,501,o),
(37,469,o),
(82,422,c),
(127,422,l),
(117,438,o),
(97,470,o),
(67,517,c)
);
}
);
width = 225;
},
{
associatedMasterId = m01;
attr = {
colorPalette = 1;
};
layerId = "FCAD9D2E-9B5B-40F9-B255-AD54CC143F2E";
name = "15 Mar 69 BE 17:07";
shapes = (
{
closed = 1;
nodes = (
(-7,517,l),
(8,501,o),
(37,469,o),
(82,422,c),
(127,422,l),
(117,438,o),
(97,470,o),
(67,517,c)
);
}
);
visible = 1;
width = 225;
}
);
note = grave;
unicode = 96;
},
{
glyphname = greater;
layers = (
{
layerId = m01;
shapes = (
{
closed = 1;
nodes = (
(-2,41,o),
(-2,37,o),
(-2,30,cs),
(-2,-7,l),
(45,19,o),
(139,72,o),
(280,151,c),
(280,194,l),
(233,220,o),
(139,272,o),
(-2,350,c),
(-2,301,l),
(36,280,o),
(112,237,o),
(226,172,c),
(188,151,o),
(112,108,o),
(-2,43,c)
);
}
);
width = 338;
}
);
note = greater;
unicode = 62;
},
{
glyphname = guilsinglleft;
lastChange = "2026-03-15 09:37:31 +0000";
layers = (
{
layerId = m01;
shapes = (
{
closed = 1;
nodes = (
(-138,481,l),
(-129,481,o),
(-110,481,o),
(-82,481,c),
(-82,631,l),
(-91,631,o),
(-110,631,o),
(-138,631,c)
);
}
);
width = 0;
},
{
associatedMasterId = m01;
attr = {
colorPalette = 1;
};
layerId = "9A10EB92-B249-4D4A-8CD7-56C5A0A646DE";
name = "15 Mar 69 BE 16:37";
shapes = (
{
closed = 1;
nodes = (
(-138,481,l),
(-129,481,o),
(-110,481,o),
(-82,481,c),
(-82,631,l),
(-91,631,o),
(-110,631,o),
(-138,631,c)
);
}
);
visible = 1;
width = 0;
}
);
note = guilsinglleft;
unicode = 8249;
},
{
glyphname = guilsinglright;
lastChange = "2026-03-15 09:37:09 +0000";
layers = (
{
layerId = m01;
shapes = (
{
closed = 1;
nodes = (
(-236,686,l),
(-226,686,o),
(-207,686,o),
(-179,686,c),
(-179,815,l),
(-188,815,o),
(-207,815,o),
(-236,815,c)
);
}
);
width = 0;
},
{
associatedMasterId = m01;
attr = {
colorPalette = 1;
};
layerId = "9381B84D-B307-46AC-9E9F-3B64400D708B";
name = "15 Mar 69 BE 16:37";
shapes = (
{
closed = 1;
nodes = (
(-236,686,l),
(-226,686,o),
(-207,686,o),
(-179,686,c),
(-179,815,l),
(-188,815,o),
(-207,815,o),
(-236,815,c)
);
}
);
visible = 1;
width = 0;
}
);
note = guilsinglright;
unicode = 8250;
},
{
glyphname = h;
layers = (
{
layerId = m01;
shapes = (
{
closed = 1;
nodes = (
(72,252,ls),
(72,300,o),
(98,341,o),
(150,341,cs),
(187,341,o),
(205,319,o),
(205,275,cs),
(205,0,l),
(214,0,o),
(231,0,o),
(258,0,c),
(258,290,ls),
(258,353,o),
(225,386,o),
(166,386,cs),
(127,386,o),
(103,374,o),
(72,335,c),
(72,373,o),
(72,430,o),
(72,507,c),
(18,507,l),
(18,488,o),
(18,450,o),
(18,393,cs),
(18,0,l),
(27,0,o),
(45,0,o),
(72,0,c)
);
}
);
width = 338;
}
);
note = h;
unicode = 104;
},
{
glyphname = hoHipthai;
lastChange = "2026-03-15 09:28:42 +0000";
layers = (
{
layerId = m01;
shapes = (
{
closed = 1;
nodes = (
(336,0,l),
(336,222,ls),
(336,245,o),
(327,259,o),
(308,272,c),
(329,288,o),
(339,310,o),
(339,337,cs),
(339,378,o),
(310,412,o),
(275,412,cs),
(240,412,o),
(212,373,o),
(212,337,cs),
(212,321,o),
(216,307,o),
(227,288,c),
(203,276,o),
(157,222,o),
(126,165,c),
(126,344,ls),
(126,380,o),
(102,415,o),
(62,415,cs),
(27,415,o),
(0,381,o),
(0,340,cs),
(0,303,o),
(26,265,o),
(59,265,c),
(62,266,o),
(65,266,o),
(70,266,c),
(70,222,o),
(70,133,o),
(70,0,c),
(126,0,l),
(126,28,o),
(139,74,o),
(158,119,cs),
(186,187,o),
(229,254,o),
(258,254,cs),
(270,254,o),
(280,243,o),
(280,226,cs),
(280,176,o),
(280,101,o),
(280,0,c)
);
},
{
closed = 1;
nodes = (
(36,355,o),
(44,368,o),
(59,368,cs),
(72,368,o),
(83,356,o),
(83,340,cs),
(83,325,o),
(72,313,o),
(59,313,cs),
(46,313,o),
(36,324,o),
(36,340,cs)
);
},
{
closed = 1;
nodes = (
(252,354,o),
(263,365,o),
(275,365,cs),
(288,365,o),
(299,352,o),
(299,337,cs),
(299,320,o),
(288,310,o),
(275,310,cs),
(262,310,o),
(252,321,o),
(252,337,cs)
);
}
);
width = 418;
}
);
note = hoHipthai;
unicode = 3627;
},
{
glyphname = hoNokhukthai;
layers = (
{
layerId = m01;
shapes = (
{
closed = 1;
nodes = (
(291,390,o),
(305,428,o),
(305,468,c),
(238,468,l),
(238,432,o),
(235,417,o),
(219,396,c),
(196,409,o),
(162,415,o),
(130,415,cs),
(61,415,o),
(1,380,o),
(1,339,cs),
(1,300,o),
(37,276,o),
(81,276,cs),
(132,276,o),
(180,294,o),
(221,325,c),
(226,314,o),
(229,310,o),
(229,295,cs),
(229,69,ls),
(229,54,o),
(221,47,o),
(204,47,cs),
(98,47,ls),
(81,47,o),
(73,54,o),
(73,69,cs),
(73,99,l),
(74,99,o),
(77,99,o),
(82,98,c),
(117,98,o),
(145,132,o),
(145,172,cs),
(145,211,o),
(117,246,o),
(82,246,cs),
(45,246,o),
(16,216,o),
(16,169,cs),
(16,43,ls),
(16,15,o),
(33,0,o),
(68,0,cs),
(234,0,ls),
(269,0,o),
(286,15,o),
(286,43,cs),
(286,292,ls),
(286,329,o),
(281,344,o),
(262,361,c)
);
},
{
closed = 1;
nodes = (
(153,338,o),
(112,322,o),
(87,322,cs),
(67,322,o),
(56,328,o),
(56,340,cs),
(56,360,o),
(117,375,o),
(157,375,cs),
(166,375,o),
(172,374,o),
(177,372,cs),
(182,371,o),
(184,369,o),
(184,366,cs),
(184,362,o),
(182,359,o),
(177,355,cs)
);
},
{
closed = 1;
nodes = (
(64,146,o),
(55,155,o),
(55,174,cs),
(55,187,o),
(67,201,o),
(80,201,cs),
(93,201,o),
(104,187,o),
(104,174,cs),
(104,159,o),
(95,146,o),
(80,146,cs)
);
}
);
width = 369;
}
);
note = hoNokhukthai;
unicode = 3630;
},
{
glyphname = hyphen;
layers = (
{
layerId = m01;
shapes = (
{
closed = 1;
nodes = (
(0,232,l),
(0,216,ls),
(0,209,o),
(0,196,o),
(0,177,c),
(383,177,l),
(383,186,o),
(383,205,o),
(383,232,c)
);
}
);
width = 465;
}
);
note = hyphen;
unicode = 45;
},
{
glyphname = i;
lastChange = "2026-03-15 09:33:24 +0000";
layers = (
{
layerId = m01;
shapes = (
{
closed = 1;
nodes = (
(72,439,l),
(72,507,l),
(63,507,o),
(45,507,o),
(18,507,c),
(18,490,ls),
(18,481,o),
(18,464,o),
(18,439,c)
);
},
{
closed = 1;
nodes = (
(72,0,l),
(72,376,l),
(63,376,o),
(45,376,o),
(18,376,c),
(18,293,ls),
(18,244,o),
(18,147,o),
(18,0,c)
);
}
);
width = 151;
}
);
note = i;
unicode = 105;
},
{
glyphname = iacute;
lastChange = "2026-03-15 09:37:46 +0000";
layers = (
{
layerId = m01;
shapes = (
{
closed = 1;
nodes = (
(-160,643,o),
(-195,607,o),
(-195,567,cs),
(-195,527,o),
(-160,492,o),
(-119,492,cs),
(-78,492,o),
(-43,526,o),
(-43,567,cs),
(-43,611,o),
(-80,643,o),
(-119,643,cs)
);
},
{
closed = 1;
nodes = (
(-148,583,o),
(-134,597,o),
(-119,597,cs),
(-103,597,o),
(-89,583,o),
(-89,567,cs),
(-89,552,o),
(-103,538,o),
(-119,538,cs),
(-134,538,o),
(-148,552,o),
(-148,567,cs)
);
}
);
width = 0;
},
{
associatedMasterId = m01;
attr = {
colorPalette = 1;
};
layerId = "1323996C-BD27-4094-AD44-05ECF7B06E2F";
name = "15 Mar 69 BE 16:37";
shapes = (
{
closed = 1;
nodes = (
(-160,643,o),
(-195,607,o),
(-195,567,cs),
(-195,527,o),
(-160,492,o),
(-119,492,cs),
(-78,492,o),
(-43,526,o),
(-43,567,cs),
(-43,611,o),
(-80,643,o),
(-119,643,cs)
);
},
{
closed = 1;
nodes = (
(-148,583,o),
(-134,597,o),
(-119,597,cs),
(-103,597,o),
(-89,583,o),
(-89,567,cs),
(-89,552,o),
(-103,538,o),
(-119,538,cs),
(-134,538,o),
(-148,552,o),
(-148,567,cs)
);
}
);
visible = 1;
width = 0;
}
);
note = iacute;
unicode = 237;
},
{
glyphname = ibreve;
layers = (
{
layerId = m01;
shapes = (
{
closed = 1;
nodes = (
(405,131,o),
(408,130,o),
(412,130,cs),
(419,130,o),
(428,140,o),
(428,145,cs),
(428,149,o),
(426,153,o),
(423,157,c),
(394,186,o),
(351,229,o),
(293,288,c),
(423,418,ls),
(426,421,o),
(428,425,o),
(428,428,cs),
(428,435,o),
(419,445,o),
(412,445,cs),
(408,445,o),
(405,443,o),
(401,439,cs),
(372,410,o),
(329,367,o),
(270,309,c),
(249,331,o),
(205,374,o),
(140,439,cs),
(136,443,o),
(132,445,o),
(129,445,cs),
(122,445,o),
(113,436,o),
(113,428,cs),
(113,425,o),
(114,421,o),
(118,418,c),
(147,389,o),
(190,345,o),
(249,288,c),
(118,157,ls),
(114,153,o),
(113,149,o),
(113,145,cs),
(113,138,o),
(122,130,o),
(129,130,cs),
(132,130,o),
(136,131,o),
(140,135,cs),
(270,265,l),
(292,244,o),
(336,200,o),
(401,135,cs)
);
}
);
width = 542;
}
);
note = ibreve;
unicode = 301;
},
{
glyphname = icircumflex;
lastChange = "2026-03-15 09:57:49 +0000";
layers = (
{
layerId = m01;
shapes = (
{
closed = 1;
nodes = (
(-10,701,l),
(-41,710,o),
(-61,714,o),
(-77,714,cs),
(-138,714,o),
(-200,675,o),
(-200,638,cs),
(-200,625,o),
(-197,618,o),
(-190,617,cs),
(-183,616,o),
(-176,612,o),
(-167,603,c),
(-167,602,o),
(-167,601,o),
(-168,599,c),
(-176,598,o),
(-212,593,o),
(-229,570,cs),
(-238,559,o),
(-243,546,o),
(-243,531,cs),
(-243,496,o),
(-209,470,o),
(-168,470,cs),
(-139,470,o),
(-95,484,o),
(-83,521,c),
(-117,530,l),
(-121,519,o),
(-140,511,o),
(-165,507,c),
(-171,507,ls),
(-192,507,o),
(-209,518,o),
(-209,535,cs),
(-209,547,o),
(-196,561,o),
(-187,565,c),
(-181,566,o),
(-172,568,o),
(-160,571,cs),
(-142,576,o),
(-128,579,o),
(-119,580,cs),
(-110,582,o),
(-105,584,o),
(-105,585,c),
(-107,590,o),
(-110,599,o),
(-113,610,c),
(-132,614,o),
(-145,619,o),
(-151,624,cs),
(-157,629,o),
(-160,634,o),
(-160,637,cs),
(-160,662,o),
(-120,678,o),
(-77,678,c),
(-62,676,ls),
(-53,674,o),
(-41,672,o),
(-24,669,c),
(-22,668,o),
(-20,668,o),
(-18,668,cs),
(-16,668,o),
(-13,668,o),
(-10,668,c)
);
}
);
width = 0;
},
{
associatedMasterId = m01;
attr = {
colorPalette = 1;
};
layerId = "7C9B23FA-2D17-4D72-8C78-00D0E319EF09";
name = "15 Mar 69 BE 16:57";
shapes = (
{
closed = 1;
nodes = (
(-10,701,l),
(-41,710,o),
(-61,714,o),
(-77,714,cs),
(-138,714,o),
(-200,675,o),
(-200,638,cs),
(-200,625,o),
(-197,618,o),
(-190,617,cs),
(-183,616,o),
(-176,612,o),
(-167,603,c),
(-167,602,o),
(-167,601,o),
(-168,599,c),
(-176,598,o),
(-212,593,o),
(-229,570,cs),
(-238,559,o),
(-243,546,o),
(-243,531,cs),
(-243,496,o),
(-209,470,o),
(-168,470,cs),
(-139,470,o),
(-95,484,o),
(-83,521,c),
(-117,530,l),
(-121,519,o),
(-140,511,o),
(-165,507,c),
(-171,507,ls),
(-192,507,o),
(-209,518,o),
(-209,535,cs),
(-209,547,o),
(-196,561,o),
(-187,565,c),
(-181,566,o),
(-172,568,o),
(-160,571,cs),
(-142,576,o),
(-128,579,o),
(-119,580,cs),
(-110,582,o),
(-105,584,o),
(-105,585,c),
(-107,590,o),
(-110,599,o),
(-113,610,c),
(-132,614,o),
(-145,619,o),
(-151,624,cs),
(-157,629,o),
(-160,634,o),
(-160,637,cs),
(-160,662,o),
(-120,678,o),
(-77,678,c),
(-62,676,ls),
(-53,674,o),
(-41,672,o),
(-24,669,c),
(-22,668,o),
(-20,668,o),
(-18,668,cs),
(-16,668,o),
(-13,668,o),
(-10,668,c)
);
}
);
width = 0;
}
);
note = icircumflex;
unicode = 238;
},
{
glyphname = idieresis;
layers = (
{
layerId = m01;
shapes = (
{
closed = 1;
nodes = (
(346,-5,o),
(440,89,o),
(440,205,cs),
(440,321,o),
(346,415,o),
(230,415,cs),
(115,415,o),
(20,321,o),
(20,205,cs),
(20,89,o),
(115,-5,o),
(230,-5,cs)
);
},
{
closed = 1;
nodes = (
(410,109,o),
(330,26,o),
(230,26,cs),
(133,26,o),
(51,106,o),
(51,205,cs),
(51,304,o),
(134,384,o),
(230,384,cs),
(327,384,o),
(410,302,o),
(410,205,cs)
);
},
{
closed = 1;
nodes = (
(302,77,o),
(358,136,o),
(358,205,cs),
(358,274,o),
(301,333,o),
(230,333,cs),
(159,333,o),
(102,277,o),
(102,205,cs),
(102,133,o),
(159,77,o),
(230,77,cs)
);
}
);
width = 512;
}
);
note = idieresis;
unicode = 239;
},
{
glyphname = igrave;
lastChange = "2026-03-15 09:37:58 +0000";
layers = (
{
layerId = m01;
shapes = (
{
closed = 1;
nodes = (
(-92,732,o),
(-96,741,o),
(-101,757,c),
(-96,757,ls),
(-83,756,o),
(-71,754,o),
(-60,752,cs),
(-49,751,o),
(-39,750,o),
(-30,750,cs),
(5,750,o),
(36,763,o),
(53,792,c),
(40,799,o),
(21,809,o),
(-5,822,c),
(-12,805,o),
(-34,793,o),
(-61,793,cs),
(-78,793,o),
(-104,793,o),
(-139,794,cs),
(-184,794,o),
(-217,762,o),
(-217,721,cs),
(-217,685,o),
(-190,655,o),
(-154,655,cs),
(-118,655,o),
(-92,688,o),
(-92,721,cs)
);
},
{
closed = 1;
nodes = (
(-178,736,o),
(-167,750,o),
(-154,750,cs),
(-141,750,o),
(-129,738,o),
(-129,723,cs),
(-129,707,o),
(-141,697,o),
(-154,697,cs),
(-167,697,o),
(-178,708,o),
(-178,723,cs)
);
}
);
width = 0;
},
{
associatedMasterId = m01;
attr = {
colorPalette = 1;
};
layerId = "4679FD1B-16AE-4D9A-9221-D87C4C14E003";
name = "15 Mar 69 BE 16:37";
shapes = (
{
closed = 1;
nodes = (
(-92,732,o),
(-96,741,o),
(-101,757,c),
(-96,757,ls),
(-83,756,o),
(-71,754,o),
(-60,752,cs),
(-49,751,o),
(-39,750,o),
(-30,750,cs),
(5,750,o),
(36,763,o),
(53,792,c),
(40,799,o),
(21,809,o),
(-5,822,c),
(-12,805,o),
(-34,793,o),
(-61,793,cs),
(-78,793,o),
(-104,793,o),
(-139,794,cs),
(-184,794,o),
(-217,762,o),
(-217,721,cs),
(-217,685,o),
(-190,655,o),
(-154,655,cs),
(-118,655,o),
(-92,688,o),
(-92,721,cs)
);
},
{
closed = 1;
nodes = (
(-178,736,o),
(-167,750,o),
(-154,750,cs),
(-141,750,o),
(-129,738,o),
(-129,723,cs),
(-129,707,o),
(-141,697,o),
(-154,697,cs),
(-167,697,o),
(-178,708,o),
(-178,723,cs)
);
}
);
width = 0;
}
);
note = igrave;
unicode = 236;
},
{
glyphname = imacron;
layers = (
{
layerId = m01;
shapes = (
{
closed = 1;
nodes = (
(188,582,ls),
(104,582,o),
(47,530,o),
(47,466,cs),
(47,455,o),
(47,438,o),
(47,415,cs),
(47,116,ls),
(47,51,o),
(104,0,o),
(188,0,cs),
(458,0,ls),
(539,0,o),
(599,51,o),
(599,116,cs),
(599,466,ls),
(599,530,o),
(536,582,o),
(468,582,cs)
);
},
{
closed = 1;
nodes = (
(468,551,ls),
(523,551,o),
(568,511,o),
(568,466,cs),
(568,116,ls),
(568,71,o),
(526,31,o),
(458,31,cs),
(188,31,ls),
(120,31,o),
(79,71,o),
(79,116,cs),
(79,143,o),
(79,184,o),
(79,239,cs),
(79,466,ls),
(79,511,o),
(120,551,o),
(188,551,cs)
);
},
{
closed = 1;
nodes = (
(398,271,ls),
(441,271,o),
(480,304,o),
(480,345,cs),
(480,388,ls),
(480,429,o),
(441,462,o),
(398,462,cs),
(178,462,ls),
(167,462,o),
(162,456,o),
(162,445,cs),
(162,130,ls),
(162,119,o),
(167,114,o),
(178,114,cs),
(189,114,o),
(194,119,o),
(194,130,cs),
(194,197,o),
(194,296,o),
(194,429,c),
(398,429,ls),
(427,429,o),
(449,409,o),
(449,388,cs),
(449,345,ls),
(449,322,o),
(426,303,o),
(398,303,cs),
(244,303,ls),
(233,303,o),
(227,297,o),
(227,288,cs),
(227,277,o),
(233,271,o),
(244,271,cs),
(348,271,l),
(395,219,o),
(438,171,o),
(482,120,cs),
(481,121,l),
(485,114,o),
(490,114,o),
(495,114,cs),
(506,114,o),
(511,119,o),
(511,130,cs),
(511,132,o),
(511,134,o),
(510,136,cs),
(509,137,o),
(508,139,o),
(507,140,cs),
(450,206,ls),
(431,227,o),
(411,249,o),
(392,271,c)
);
}
);
width = 648;
}
);
note = imacron;
unicode = 299;
},
{
glyphname = j;
layers = (
{
layerId = m01;
shapes = (
{
closed = 1;
nodes = (
(74,439,l),
(74,450,o),
(74,473,o),
(74,507,c),
(19,507,l),
(19,496,o),
(19,473,o),
(19,439,c)
);
},
{
closed = 1;
nodes = (
(-22,-128,l),
(49,-128,o),
(74,-107,o),
(74,-15,cs),
(74,11,o),
(74,50,o),
(74,103,cs),
(74,376,l),
(65,376,o),
(46,376,o),
(19,376,c),
(19,-19,ls),
(19,-20,o),
(19,-22,o),
(20,-23,c),
(20,-24,o),
(20,-25,o),
(20,-27,cs),
(20,-37,ls),
(20,-58,o),
(18,-80,o),
(-14,-80,cs),
(-19,-80,ls),
(-20,-80,o),
(-21,-80,o),
(-22,-79,c),
(-22,-82,o),
(-22,-86,o),
(-22,-91,cs)
);
}
);
width = 151;
}
);
note = j;
unicode = 106;
},
{
glyphname = k;
layers = (
{
layerId = m01;
shapes = (
{
closed = 1;
nodes = (
(70,0,l),
(70,134,l),
(77,143,o),
(90,160,o),
(110,187,c),
(125,156,o),
(157,94,o),
(204,0,c),
(214,0,o),
(235,0,o),
(266,0,c),
(146,229,l),
(165,254,o),
(204,303,o),
(262,376,c),
(199,376,l),
(177,347,o),
(134,288,o),
(70,201,c),
(70,507,l),
(61,507,o),
(43,507,o),
(16,507,c),
(16,367,ls),
(16,306,o),
(16,183,o),
(16,0,c)
);
}
);
width = 300;
}
);
note = k;
unicode = 107;
},
{
glyphname = khoKhaithai;
lastChange = "2026-03-15 09:43:26 +0000";
layers = (
{
layerId = m01;
shapes = (
{
closed = 1;
nodes = (
(167,169,ls),
(167,179,o),
(173,198,o),
(186,225,cs),
(199,253,o),
(206,279,o),
(206,303,cs),
(206,364,o),
(163,415,o),
(102,415,cs),
(45,415,o),
(0,356,o),
(0,296,cs),
(0,251,o),
(22,212,o),
(66,212,cs),
(102,212,o),
(130,243,o),
(130,283,cs),
(130,320,o),
(104,349,o),
(72,353,c),
(77,362,o),
(89,368,o),
(104,368,cs),
(132,368,o),
(154,335,o),
(154,298,cs),
(154,282,o),
(143,253,o),
(124,216,cs),
(115,199,o),
(111,182,o),
(111,166,cs),
(111,33,ls),
(111,21,o),
(120,12,o),
(137,7,cs),
(155,1,o),
(179,-2,o),
(210,-2,cs),
(243,-2,o),
(267,1,o),
(284,7,cs),
(301,13,o),
(309,22,o),
(309,33,cs),
(309,410,l),
(300,410,o),
(281,410,o),
(253,410,c),
(253,60,ls),
(253,49,o),
(230,46,o),
(210,46,cs),
(200,46,ls),
(189,46,o),
(180,48,o),
(175,51,cs),
(170,54,o),
(167,57,o),
(167,60,cs)
);
},
{
closed = 1;
nodes = (
(39,299,o),
(50,310,o),
(63,310,cs),
(78,310,o),
(88,299,o),
(88,283,cs),
(88,268,o),
(78,255,o),
(63,255,cs),
(50,255,o),
(39,268,o),
(39,283,cs)
);
}
);
width = 391;
}
);
note = khoKhaithai;
unicode = 3586;
},
{
glyphname = khoKhonthai;
lastChange = "2026-03-15 09:27:21 +0000";
layers = (
{
layerId = m01;
shapes = (
{
closed = 1;
nodes = (
(63,317,o),
(81,340,o),
(132,353,c),
(142,347,o),
(157,338,o),
(178,327,c),
(232,355,l),
(261,338,o),
(271,318,o),
(271,275,cs),
(271,0,l),
(280,0,o),
(299,0,o),
(328,0,c),
(328,282,ls),
(328,350,o),
(303,382,o),
(243,413,c),
(180,380,l),
(171,385,o),
(151,396,o),
(122,413,c),
(47,396,o),
(0,346,o),
(0,275,cs),
(0,256,o),
(6,234,o),
(14,214,cs),
(22,195,o),
(30,177,o),
(38,160,cs),
(47,143,o),
(51,132,o),
(51,125,cs),
(51,0,l),
(60,0,o),
(79,0,o),
(108,0,c),
(108,122,ls),
(108,155,o),
(119,174,o),
(128,181,c),
(141,162,o),
(161,155,o),
(178,155,cs),
(214,155,o),
(244,189,o),
(244,230,cs),
(244,273,o),
(213,307,o),
(178,307,cs),
(133,307,o),
(104,279,o),
(77,208,c),
(69,227,o),
(63,251,o),
(63,278,cs)
);
},
{
closed = 1;
nodes = (
(150,247,o),
(161,262,o),
(176,262,cs),
(192,262,o),
(203,247,o),
(203,232,cs),
(203,216,o),
(191,204,o),
(176,204,cs),
(161,204,o),
(150,216,o),
(150,232,cs)
);
}
);
width = 410;
},
{
associatedMasterId = m01;
attr = {
colorPalette = 1;
};
layerId = "1B8DE00B-D411-4974-9F5D-11058FAEFDD0";
name = "15 Mar 69 BE 16:27";
shapes = (
{
closed = 1;
nodes = (
(63,317,o),
(81,340,o),
(132,353,c),
(142,347,o),
(157,338,o),
(178,327,c),
(232,355,l),
(261,338,o),
(271,318,o),
(271,275,cs),
(271,0,l),
(280,0,o),
(299,0,o),
(328,0,c),
(328,282,ls),
(328,350,o),
(303,382,o),
(243,413,c),
(180,380,l),
(171,385,o),
(151,396,o),
(122,413,c),
(47,396,o),
(0,346,o),
(0,275,cs),
(0,256,o),
(6,234,o),
(14,214,cs),
(22,195,o),
(30,177,o),
(38,160,cs),
(47,143,o),
(51,132,o),
(51,125,cs),
(51,0,l),
(60,0,o),
(79,0,o),
(108,0,c),
(108,122,ls),
(108,155,o),
(119,174,o),
(128,181,c),
(141,162,o),
(161,155,o),
(178,155,cs),
(214,155,o),
(244,189,o),
(244,230,cs),
(244,273,o),
(213,307,o),
(178,307,cs),
(133,307,o),
(104,279,o),
(77,208,c),
(69,227,o),
(63,251,o),
(63,278,cs)
);
},
{
closed = 1;
nodes = (
(150,247,o),
(161,262,o),
(176,262,cs),
(192,262,o),
(203,247,o),
(203,232,cs),
(203,216,o),
(191,204,o),
(176,204,cs),
(161,204,o),
(150,216,o),
(150,232,cs)
);
}
);
width = 410;
}
);
note = khoKhonthai;
unicode = 3589;
},
{
glyphname = khoKhuatthai;
layers = (
{
layerId = m01;
shapes = (
{
closed = 1;
nodes = (
(249,410,l),
(249,66,ls),
(249,53,o),
(229,50,o),
(212,50,cs),
(195,50,o),
(175,53,o),
(175,66,cs),
(175,157,ls),
(175,161,o),
(179,171,o),
(187,188,cs),
(204,223,o),
(215,255,o),
(220,278,cs),
(223,289,o),
(224,299,o),
(224,308,cs),
(224,359,o),
(199,399,o),
(155,415,c),
(147,410,o),
(136,403,o),
(121,393,c),
(82,415,l),
(26,388,o),
(-1,339,o),
(-1,276,cs),
(-1,225,o),
(28,190,o),
(67,190,cs),
(102,190,o),
(130,221,o),
(130,260,cs),
(130,299,o),
(102,330,o),
(62,330,c),
(69,343,o),
(78,355,o),
(90,360,c),
(97,357,o),
(107,351,o),
(121,344,c),
(126,347,o),
(135,352,o),
(150,359,c),
(163,354,o),
(176,333,o),
(176,308,cs),
(176,295,o),
(169,276,o),
(160,257,cs),
(151,239,o),
(142,221,o),
(133,204,cs),
(124,187,o),
(119,173,o),
(119,163,cs),
(119,32,ls),
(119,21,o),
(127,13,o),
(143,7,cs),
(159,0,o),
(182,-3,o),
(212,-3,cs),
(240,-3,o),
(263,0,o),
(280,6,cs),
(297,13,o),
(305,21,o),
(305,32,cs),
(305,116,o),
(305,242,o),
(305,410,c)
);
},
{
closed = 1;
nodes = (
(43,274,o),
(52,286,o),
(67,286,cs),
(80,286,o),
(90,274,o),
(90,258,cs),
(90,243,o),
(80,230,o),
(67,230,cs),
(52,230,o),
(43,243,o),
(43,258,cs)
);
}
);
width = 387;
}
);
note = khoKhuatthai;
unicode = 3587;
},
{
glyphname = khoKhwaithai;
layers = (
{
layerId = m01;
shapes = (
{
closed = 1;
nodes = (
(144,172,o),
(159,165,o),
(178,165,cs),
(217,165,o),
(244,198,o),
(244,241,cs),
(244,282,o),
(213,317,o),
(178,317,cs),
(134,317,o),
(105,291,o),
(77,218,c),
(65,241,o),
(63,253,o),
(63,278,cs),
(63,329,o),
(109,365,o),
(168,365,cs),
(219,365,o),
(271,327,o),
(271,279,cs),
(271,0,l),
(280,0,o),
(299,0,o),
(328,0,c),
(328,285,ls),
(328,354,o),
(259,415,o),
(168,415,cs),
(77,415,o),
(0,356,o),
(0,275,cs),
(0,246,o),
(9,219,o),
(26,192,cs),
(43,165,o),
(51,146,o),
(51,135,cs),
(51,0,l),
(60,0,o),
(79,0,o),
(108,0,c),
(108,132,ls),
(108,163,o),
(115,186,o),
(128,191,c)
);
},
{
closed = 1;
nodes = (
(150,256,o),
(161,272,o),
(176,272,cs),
(192,272,o),
(203,256,o),
(203,243,cs),
(203,226,o),
(191,214,o),
(176,214,cs),
(163,214,o),
(150,228,o),
(150,243,cs)
);
}
);
width = 410;
}
);
note = khoKhwaithai;
unicode = 3588;
},
{
glyphname = khoRakhangthai;
layers = (
{
layerId = m01;
shapes = (
{
closed = 1;
nodes = (
(154,-1,o),
(179,32,o),
(179,68,cs),
(179,101,l),
(227,94,o),
(280,56,o),
(324,0,c),
(337,0,o),
(357,0,o),
(384,0,c),
(384,410,l),
(375,410,o),
(356,410,o),
(328,410,c),
(328,61,l),
(304,88,o),
(275,111,o),
(247,124,cs),
(240,127,o),
(228,132,o),
(213,139,cs),
(196,145,ls),
(191,146,o),
(185,148,o),
(179,150,c),
(179,186,ls),
(179,190,o),
(182,198,o),
(188,210,cs),
(193,222,o),
(202,238,o),
(214,259,cs),
(225,279,o),
(229,297,o),
(229,314,cs),
(229,359,o),
(206,396,o),
(169,415,c),
(158,408,o),
(142,398,o),
(120,385,c),
(75,415,l),
(32,392,o),
(0,342,o),
(0,293,cs),
(0,234,o),
(24,197,o),
(65,197,cs),
(100,197,o),
(127,232,o),
(127,269,cs),
(127,306,o),
(102,338,o),
(73,341,c),
(74,345,o),
(78,349,o),
(82,353,cs),
(84,355,l),
(84,356,o),
(85,358,o),
(86,358,c),
(93,355,o),
(105,349,o),
(120,342,c),
(160,358,l),
(173,341,o),
(178,328,o),
(178,308,cs),
(178,303,o),
(174,294,o),
(166,279,cs),
(150,250,o),
(136,224,o),
(129,205,cs),
(125,196,o),
(123,189,o),
(123,184,cs),
(123,150,l),
(83,150,o),
(55,118,o),
(55,75,cs),
(55,34,o),
(77,-1,o),
(118,-1,cs)
);
},
{
closed = 1;
nodes = (
(40,284,o),
(50,297,o),
(65,297,cs),
(78,297,o),
(89,284,o),
(89,269,cs),
(89,254,o),
(77,242,o),
(65,242,cs),
(52,242,o),
(40,254,o),
(40,269,cs)
);
},
{
closed = 1;
nodes = (
(90,87,o),
(99,102,o),
(115,102,cs),
(130,102,o),
(139,87,o),
(139,74,cs),
(139,61,o),
(130,45,o),
(115,45,cs),
(100,45,o),
(90,57,o),
(90,74,cs)
);
}
);
width = 466;
}
);
note = khoRakhangthai;
unicode = 3590;
},
{
glyphname = khomutthai;
layers = (
{
layerId = m01;
shapes = (
{
closed = 1;
nodes = (
(700,139,o),
(693,132,o),
(689,130,cs),
(685,127,o),
(680,126,o),
(674,126,cs),
(668,126,o),
(657,131,o),
(642,140,cs),
(627,150,o),
(616,155,o),
(607,155,cs),
(596,155,o),
(580,145,o),
(561,126,cs),
(542,107,o),
(530,97,o),
(526,96,c),
(517,96,o),
(509,100,o),
(500,117,cs),
(490,134,o),
(482,146,o),
(477,154,cs),
(472,163,o),
(470,167,o),
(469,167,cs),
(468,167,o),
(465,165,o),
(462,162,cs),
(458,158,o),
(454,153,o),
(450,146,cs),
(443,137,o),
(433,123,o),
(420,104,c),
(420,106,o),
(383,168,o),
(378,168,cs),
(374,168,o),
(366,158,o),
(353,137,cs),
(340,116,o),
(332,106,o),
(330,106,cs),
(326,106,o),
(317,116,o),
(309,127,cs),
(303,136,o),
(294,150,o),
(281,168,c),
(276,161,o),
(268,146,o),
(256,124,cs),
(223,64,o),
(204,39,o),
(152,39,cs),
(89,39,o),
(54,82,o),
(54,145,cs),
(54,206,o),
(89,264,o),
(142,264,cs),
(152,264,ls),
(187,264,o),
(221,247,o),
(236,238,c),
(236,246,o),
(236,258,o),
(237,274,c),
(206,293,o),
(178,302,o),
(150,302,cs),
(148,302,o),
(145,302,o),
(141,302,cs),
(137,302,ls),
(136,302,o),
(134,302,o),
(133,301,c),
(53,286,o),
(13,233,o),
(13,152,cs),
(13,68,o),
(68,1,o),
(157,1,cs),
(221,1,o),
(271,52,o),
(287,112,c),
(288,109,o),
(291,105,o),
(295,99,cs),
(308,79,o),
(317,69,o),
(326,65,c),
(328,65,o),
(333,69,o),
(341,77,cs),
(349,85,o),
(360,99,o),
(375,118,c),
(380,110,o),
(397,85,o),
(405,72,cs),
(409,65,o),
(413,61,o),
(418,61,cs),
(421,61,o),
(427,65,o),
(435,74,cs),
(443,83,o),
(452,93,o),
(461,106,cs),
(471,121,l),
(471,114,o),
(498,62,o),
(514,62,cs),
(530,62,o),
(545,72,o),
(560,89,cs),
(570,101,o),
(580,109,o),
(590,112,cs),
(599,116,o),
(605,119,o),
(606,120,c),
(616,120,o),
(629,115,o),
(646,106,cs),
(663,97,o),
(673,92,o),
(676,92,cs),
(704,92,o),
(720,111,o),
(731,131,c),
(726,136,o),
(720,143,o),
(711,152,c)
);
}
);
width = 753;
}
);
note = khomutthai;
unicode = 3675;
},
{
glyphname = koKaithai;
layers = (
{
layerId = m01;
shapes = (
{
closed = 1;
nodes = (
(85,344,o),
(117,362,o),
(156,362,cs),
(204,362,o),
(244,335,o),
(244,291,cs),
(244,0,l),
(253,0,o),
(272,0,o),
(300,0,c),
(300,297,ls),
(300,369,o),
(232,415,o),
(159,415,cs),
(88,415,o),
(29,374,o),
(0,305,c),
(28,300,o),
(56,285,o),
(71,276,c),
(50,265,o),
(33,238,o),
(33,213,cs),
(33,0,l),
(42,0,o),
(61,0,o),
(89,0,c),
(89,211,ls),
(89,234,o),
(112,260,o),
(143,279,c),
(128,295,o),
(114,300,o),
(70,323,c)
);
}
);
width = 382;
}
);
note = koKaithai;
unicode = 3585;
},
{
glyphname = l;
layers = (
{
layerId = m01;
shapes = (
{
closed = 1;
nodes = (
(72,0,l),
(72,507,l),
(63,507,o),
(45,507,o),
(18,507,c),
(18,393,ls),
(18,328,o),
(18,197,o),
(18,0,c)
);
}
);
width = 151;
}
);
note = l;
unicode = 108;
},
{
glyphname = lakkhangyaothai;
lastChange = "2026-03-15 09:38:13 +0000";
layers = (
{
layerId = m01;
shapes = (
{
closed = 1;
nodes = (
(51,415,o),
(-1,371,o),
(-10,314,c),
(44,314,l),
(55,349,o),
(79,365,o),
(116,365,cs),
(153,365,o),
(182,344,o),
(182,305,cs),
(182,-225,l),
(191,-225,o),
(210,-225,o),
(239,-225,c),
(239,318,ls),
(239,371,o),
(184,415,o),
(116,415,cs)
);
}
);
width = 321;
},
{
associatedMasterId = m01;
attr = {
colorPalette = 1;
};
layerId = "02664C16-ECB8-4F63-9A12-F5A99A31EEE0";
name = "15 Mar 69 BE 16:38";
shapes = (
{
closed = 1;
nodes = (
(51,415,o),
(-1,371,o),
(-10,314,c),
(44,314,l),
(55,349,o),
(79,365,o),
(116,365,cs),
(153,365,o),
(182,344,o),
(182,305,cs),
(182,-225,l),
(191,-225,o),
(210,-225,o),
(239,-225,c),
(239,318,ls),
(239,371,o),
(184,415,o),
(116,415,cs)
);
}
);
width = 321;
}
);
note = lakkhangyaothai;
unicode = 3653;
},
{
glyphname = less;
layers = (
{
layerId = m01;
shapes = (
{
closed = 1;
nodes = (
(89,193,o),
(165,236,o),
(280,301,c),
(280,309,o),
(280,325,o),
(280,350,c),
(-2,194,l),
(-2,193,o),
(-2,190,o),
(-2,186,cs),
(-2,151,l),
(45,124,o),
(139,72,o),
(280,-7,c),
(280,43,l),
(241,64,o),
(165,107,o),
(50,172,c)
);
}
);
width = 338;
}
);
note = less;
unicode = 60;
},
{
glyphname = loChulathai;
layers = (
{
layerId = m01;
shapes = (
{
closed = 1;
nodes = (
(251,355,o),
(276,318,o),
(312,318,cs),
(314,318,o),
(317,318,o),
(321,318,c),
(321,131,l),
(302,178,o),
(263,273,o),
(206,415,c),
(193,372,o),
(166,287,o),
(126,159,c),
(126,344,ls),
(126,380,o),
(102,415,o),
(62,415,cs),
(27,415,o),
(0,381,o),
(0,340,cs),
(0,303,o),
(26,265,o),
(59,265,c),
(62,266,o),
(65,266,o),
(70,266,c),
(70,222,o),
(70,133,o),
(70,0,c),
(134,0,l),
(147,43,o),
(172,130,o),
(210,260,c),
(312,0,l),
(323,0,o),
(344,0,o),
(377,0,c),
(377,328,l),
(428,359,o),
(450,396,o),
(450,440,cs),
(450,443,o),
(450,448,o),
(450,454,c),
(390,454,l),
(391,452,o),
(391,450,o),
(391,449,cs),
(391,447,o),
(391,445,o),
(391,443,cs),
(391,435,ls),
(391,419,o),
(389,410,o),
(378,399,c),
(378,430,o),
(349,467,o),
(314,467,cs),
(279,467,o),
(251,433,o),
(251,392,cs)
);
},
{
closed = 1;
nodes = (
(292,407,o),
(302,419,o),
(314,419,cs),
(327,419,o),
(339,407,o),
(339,391,cs),
(339,376,o),
(328,365,o),
(316,365,cs),
(304,365,o),
(292,376,o),
(292,391,cs)
);
},
{
closed = 1;
nodes = (
(36,355,o),
(44,368,o),
(59,368,cs),
(72,368,o),
(83,356,o),
(83,340,cs),
(83,325,o),
(72,313,o),
(59,313,cs),
(46,313,o),
(36,324,o),
(36,340,cs)
);
}
);
width = 459;
}
);
note = loChulathai;
unicode = 3628;
},
{
glyphname = loLingthai;
layers = (
{
layerId = m01;
shapes = (
{
closed = 1;
nodes = (
(45,296,o),
(35,222,o),
(35,139,cs),
(35,47,o),
(61,-1,o),
(110,-1,cs),
(145,-1,o),
(175,30,o),
(175,73,cs),
(175,116,o),
(142,146,o),
(110,146,cs),
(105,146,o),
(100,145,o),
(95,144,c),
(95,182,o),
(97,208,o),
(102,221,cs),
(107,234,o),
(113,241,o),
(122,241,cs),
(137,241,o),
(158,209,o),
(175,176,cs),
(180,167,o),
(184,159,o),
(188,150,cs),
(199,126,ls),
(210,98,o),
(228,56,o),
(251,0,c),
(261,0,o),
(281,0,o),
(310,0,c),
(310,289,ls),
(310,361,o),
(240,415,o),
(163,415,cs),
(83,415,o),
(23,373,o),
(0,296,c),
(59,296,l),
(72,336,o),
(112,361,o),
(157,361,cs),
(206,361,o),
(254,327,o),
(254,284,cs),
(254,119,l),
(243,140,o),
(191,249,o),
(166,276,cs),
(153,289,o),
(137,296,o),
(118,296,cs)
);
},
{
closed = 1;
nodes = (
(84,91,o),
(94,103,o),
(109,103,cs),
(122,103,o),
(133,93,o),
(133,76,cs),
(133,60,o),
(122,49,o),
(109,49,cs),
(94,49,o),
(84,60,o),
(84,76,cs)
);
}
);
width = 392;
}
);
note = loLingthai;
unicode = 3621;
},
{
glyphname = luthai;
layers = (
{
layerId = m01;
shapes = (
{
closed = 1;
nodes = (
(290,-225,l),
(299,-225,o),
(318,-225,o),
(346,-225,c),
(346,297,ls),
(346,369,o),
(281,415,o),
(205,415,cs),
(136,415,o),
(71,372,o),
(46,305,c),
(74,300,o),
(102,285,o),
(117,276,c),
(97,265,o),
(79,241,o),
(79,213,cs),
(79,145,l),
(78,146,o),
(75,147,o),
(74,147,cs),
(63,147,ls),
(28,147,o),
(-1,113,o),
(-1,73,cs),
(-1,32,o),
(27,-5,o),
(70,-5,cs),
(106,-5,o),
(135,32,o),
(135,72,cs),
(135,211,ls),
(135,235,o),
(158,260,o),
(189,279,c),
(174,295,o),
(160,300,o),
(116,323,c),
(131,344,o),
(163,362,o),
(202,362,cs),
(251,362,o),
(290,336,o),
(290,291,cs)
);
},
{
closed = 1;
nodes = (
(40,86,o),
(50,100,o),
(63,100,cs),
(78,100,o),
(87,86,o),
(87,73,cs),
(87,60,o),
(78,45,o),
(63,45,cs),
(50,45,o),
(40,60,o),
(40,73,cs)
);
}
);
width = 428;
}
);
note = luthai;
unicode = 3622;
},
{
glyphname = m;
layers = (
{
layerId = m01;
shapes = (
{
closed = 1;
nodes = (
(74,252,ls),
(74,303,o),
(101,341,o),
(150,341,cs),
(185,341,o),
(206,322,o),
(206,275,cs),
(206,0,l),
(215,0,o),
(232,0,o),
(259,0,c),
(259,252,ls),
(259,296,o),
(282,341,o),
(334,341,cs),
(373,341,o),
(391,324,o),
(391,275,cs),
(391,0,l),
(400,0,o),
(417,0,o),
(444,0,c),
(444,297,l),
(436,364,o),
(400,386,o),
(352,386,cs),
(308,386,o),
(280,367,o),
(252,327,c),
(233,363,o),
(203,386,o),
(163,386,cs),
(130,386,o),
(93,364,o),
(72,328,c),
(72,339,o),
(72,355,o),
(72,376,c),
(20,376,l),
(20,362,o),
(20,334,o),
(20,293,cs),
(20,0,l),
(29,0,o),
(47,0,o),
(74,0,c)
);
}
);
width = 525;
}
);
note = m;
unicode = 109;
},
{
glyphname = maiChattawathai;
lastChange = "2026-03-15 09:30:47 +0000";
layers = (
{
layerId = m01;
shapes = (
{
closed = 1;
nodes = (
(-201,808,l),
(-201,799,o),
(-201,781,o),
(-201,754,c),
(-138,754,l),
(-138,743,o),
(-138,722,o),
(-138,691,c),
(-82,691,l),
(-82,702,o),
(-82,723,o),
(-82,754,c),
(-22,754,l),
(-22,763,o),
(-22,781,o),
(-22,808,c),
(-82,808,l),
(-82,819,o),
(-82,839,o),
(-82,870,c),
(-138,870,l),
(-138,860,o),
(-138,839,o),
(-138,808,c)
);
}
);
width = 0;
},
{
associatedMasterId = m01;
attr = {
colorPalette = 1;
};
layerId = "27905F82-B36D-49D6-939A-192B6DF672AC";
name = "15 Mar 69 BE 16:30";
shapes = (
{
closed = 1;
nodes = (
(-201,808,l),
(-201,799,o),
(-201,781,o),
(-201,754,c),
(-138,754,l),
(-138,743,o),
(-138,722,o),
(-138,691,c),
(-82,691,l),
(-82,702,o),
(-82,723,o),
(-82,754,c),
(-22,754,l),
(-22,763,o),
(-22,781,o),
(-22,808,c),
(-82,808,l),
(-82,819,o),
(-82,839,o),
(-82,870,c),
(-138,870,l),
(-138,860,o),
(-138,839,o),
(-138,808,c)
);
}
);
visible = 1;
width = 0;
}
);
note = maiChattawathai;
unicode = 3659;
},
{
glyphname = maiEkthai;
lastChange = "2026-03-15 22:25:25 +0000";
layers = (
{
layerId = m01;
shapes = (
{
closed = 1;
nodes = (
(-138,691,l),
(-129,691,o),
(-110,691,o),
(-82,691,c),
(-82,820,l),
(-91,820,o),
(-110,820,o),
(-138,820,c)
);
}
);
width = 0;
},
{
associatedMasterId = m01;
attr = {
colorPalette = 1;
};
layerId = "CB3DEC28-2A65-476B-A121-71C4DEEC0723";
name = "15 Mar 69 BE 16:30";
shapes = (
{
closed = 1;
nodes = (
(-138,691,l),
(-129,691,o),
(-110,691,o),
(-82,691,c),
(-82,820,l),
(-91,820,o),
(-110,820,o),
(-138,820,c)
);
}
);
visible = 1;
width = 0;
}
);
note = maiEkthai;
unicode = 3656;
},
{
glyphname = maiHanaKatthai;
lastChange = "2026-03-15 09:30:16 +0000";
layers = (
{
layerId = m01;
shapes = (
{
closed = 1;
nodes = (
(-160,530,l),
(-151,546,o),
(-147,560,o),
(-147,573,cs),
(-147,613,o),
(-177,647,o),
(-214,647,cs),
(-254,647,o),
(-280,614,o),
(-280,573,cs),
(-280,516,o),
(-225,479,o),
(-138,479,cs),
(-107,479,o),
(-75,489,o),
(-47,505,cs),
(5,536,o),
(44,590,o),
(44,647,c),
(-14,647,l),
(-14,583,o),
(-82,530,o),
(-150,530,cs)
);
},
{
closed = 1;
nodes = (
(-240,585,o),
(-229,600,o),
(-214,600,cs),
(-201,600,o),
(-188,586,o),
(-188,570,cs),
(-188,553,o),
(-202,544,o),
(-214,544,cs),
(-227,544,o),
(-240,553,o),
(-240,570,cs)
);
}
);
width = 0;
},
{
associatedMasterId = m01;
attr = {
colorPalette = 1;
};
layerId = "2B4D2F06-4164-4FBE-9D36-7AC2D13E8F76";
name = "15 Mar 69 BE 16:30";
shapes = (
{
closed = 1;
nodes = (
(-160,530,l),
(-151,546,o),
(-147,560,o),
(-147,573,cs),
(-147,613,o),
(-177,647,o),
(-214,647,cs),
(-254,647,o),
(-280,614,o),
(-280,573,cs),
(-280,516,o),
(-225,479,o),
(-138,479,cs),
(-107,479,o),
(-75,489,o),
(-47,505,cs),
(5,536,o),
(44,590,o),
(44,647,c),
(-14,647,l),
(-14,583,o),
(-82,530,o),
(-150,530,cs)
);
},
{
closed = 1;
nodes = (
(-240,585,o),
(-229,600,o),
(-214,600,cs),
(-201,600,o),
(-188,586,o),
(-188,570,cs),
(-188,553,o),
(-202,544,o),
(-214,544,cs),
(-227,544,o),
(-240,553,o),
(-240,570,cs)
);
}
);
visible = 1;
width = 0;
}
);
note = maiHanaKatthai;
unicode = 3633;
},
{
glyphname = maiThothai;
lastChange = "2026-03-15 09:29:55 +0000";
layers = (
{
layerId = m01;
shapes = (
{
closed = 1;
nodes = (
(-169,750,o),
(-188,733,o),
(-220,724,c),
(-219,715,o),
(-217,703,o),
(-214,686,c),
(-143,693,o),
(-63,727,o),
(-3,775,cs),
(29,802,o),
(56,832,o),
(72,864,c),
(62,871,o),
(47,881,o),
(28,895,c),
(8,844,o),
(-70,773,o),
(-127,753,c),
(-116,770,o),
(-108,803,o),
(-108,831,cs),
(-108,879,o),
(-133,908,o),
(-168,908,cs),
(-196,908,o),
(-223,878,o),
(-223,845,cs),
(-223,810,o),
(-200,781,o),
(-165,781,c)
);
},
{
closed = 1;
nodes = (
(-189,857,o),
(-179,869,o),
(-168,869,cs),
(-156,869,o),
(-145,860,o),
(-145,845,cs),
(-145,832,o),
(-153,821,o),
(-168,821,cs),
(-179,821,o),
(-189,833,o),
(-189,845,cs)
);
}
);
width = 0;
},
{
associatedMasterId = m01;
attr = {
colorPalette = 1;
};
layerId = "E49C1F18-4969-4B0F-8A6F-C3A80C8525F4";
name = "15 Mar 69 BE 16:29";
shapes = (
{
closed = 1;
nodes = (
(-169,750,o),
(-188,733,o),
(-220,724,c),
(-219,715,o),
(-217,703,o),
(-214,686,c),
(-143,693,o),
(-63,727,o),
(-3,775,cs),
(29,802,o),
(56,832,o),
(72,864,c),
(62,871,o),
(47,881,o),
(28,895,c),
(8,844,o),
(-70,773,o),
(-127,753,c),
(-116,770,o),
(-108,803,o),
(-108,831,cs),
(-108,879,o),
(-133,908,o),
(-168,908,cs),
(-196,908,o),
(-223,878,o),
(-223,845,cs),
(-223,810,o),
(-200,781,o),
(-165,781,c)
);
},
{
closed = 1;
nodes = (
(-189,857,o),
(-179,869,o),
(-168,869,cs),
(-156,869,o),
(-145,860,o),
(-145,845,cs),
(-145,832,o),
(-153,821,o),
(-168,821,cs),
(-179,821,o),
(-189,833,o),
(-189,845,cs)
);
}
);
visible = 1;
width = 0;
}
);
note = maiThothai;
unicode = 3657;
},
{
glyphname = maiTrithai;
lastChange = "2026-03-15 09:29:45 +0000";
layers = (
{
layerId = m01;
shapes = (
{
closed = 1;
nodes = (
(-188,824,o),
(-172,835,o),
(-156,835,cs),
(-143,835,o),
(-137,830,o),
(-128,821,c),
(-119,830,o),
(-114,831,o),
(-103,831,cs),
(-83,831,o),
(-69,812,o),
(-69,785,cs),
(-69,756,o),
(-78,733,o),
(-103,718,c),
(-79,691,l),
(2,730,o),
(55,806,o),
(55,887,c),
(2,887,l),
(2,839,o),
(-7,807,o),
(-28,784,c),
(-28,788,l),
(-27,789,o),
(-27,791,o),
(-27,792,cs),
(-27,798,ls),
(-27,842,o),
(-55,882,o),
(-98,890,c),
(-105,885,o),
(-116,879,o),
(-129,870,c),
(-134,874,o),
(-143,881,o),
(-158,892,c),
(-209,881,o),
(-246,832,o),
(-246,776,cs),
(-246,724,o),
(-219,691,o),
(-178,691,cs),
(-150,691,o),
(-125,719,o),
(-125,750,cs),
(-125,781,o),
(-150,808,o),
(-178,808,cs),
(-181,808,o),
(-184,808,o),
(-189,807,c)
);
},
{
closed = 1;
nodes = (
(-203,769,o),
(-194,779,o),
(-179,779,cs),
(-167,779,o),
(-156,767,o),
(-156,754,cs),
(-156,739,o),
(-170,728,o),
(-179,728,cs),
(-194,728,o),
(-203,738,o),
(-203,754,cs)
);
}
);
width = 0;
},
{
associatedMasterId = m01;
attr = {
colorPalette = 1;
};
layerId = "66FB070C-36E8-4F58-A739-C576BE79C671";
name = "15 Mar 69 BE 16:29";
shapes = (
{
closed = 1;
nodes = (
(-188,824,o),
(-172,835,o),
(-156,835,cs),
(-143,835,o),
(-137,830,o),
(-128,821,c),
(-119,830,o),
(-114,831,o),
(-103,831,cs),
(-83,831,o),
(-69,812,o),
(-69,785,cs),
(-69,756,o),
(-78,733,o),
(-103,718,c),
(-79,691,l),
(2,730,o),
(55,806,o),
(55,887,c),
(2,887,l),
(2,839,o),
(-7,807,o),
(-28,784,c),
(-28,788,l),
(-27,789,o),
(-27,791,o),
(-27,792,cs),
(-27,798,ls),
(-27,842,o),
(-55,882,o),
(-98,890,c),
(-105,885,o),
(-116,879,o),
(-129,870,c),
(-134,874,o),
(-143,881,o),
(-158,892,c),
(-209,881,o),
(-246,832,o),
(-246,776,cs),
(-246,724,o),
(-219,691,o),
(-178,691,cs),
(-150,691,o),
(-125,719,o),
(-125,750,cs),
(-125,781,o),
(-150,808,o),
(-178,808,cs),
(-181,808,o),
(-184,808,o),
(-189,807,c)
);
},
{
closed = 1;
nodes = (
(-203,769,o),
(-194,779,o),
(-179,779,cs),
(-167,779,o),
(-156,767,o),
(-156,754,cs),
(-156,739,o),
(-170,728,o),
(-179,728,cs),
(-194,728,o),
(-203,738,o),
(-203,754,cs)
);
}
);
visible = 1;
width = 0;
}
);
note = maiTrithai;
unicode = 3658;
},
{
glyphname = maitaikhuthai;
lastChange = "2026-03-15 09:30:07 +0000";
layers = (
{
layerId = m01;
shapes = (
{
closed = 1;
nodes = (
(-166,608,o),
(-184,595,o),
(-195,572,c),
(-208,584,o),
(-222,590,o),
(-234,590,cs),
(-241,590,o),
(-248,588,o),
(-256,585,c),
(-259,582,o),
(-264,578,o),
(-271,572,c),
(-274,577,o),
(-274,582,o),
(-274,590,cs),
(-274,622,o),
(-248,637,o),
(-215,638,cs),
(-202,639,o),
(-183,639,o),
(-158,640,cs),
(-91,640,o),
(-53,658,o),
(-36,705,c),
(-47,712,o),
(-64,722,o),
(-86,736,c),
(-93,705,o),
(-124,687,o),
(-160,687,cs),
(-257,687,o),
(-329,673,o),
(-329,580,cs),
(-329,544,o),
(-312,502,o),
(-293,473,c),
(-254,502,l),
(-257,507,o),
(-258,513,o),
(-258,518,cs),
(-258,534,o),
(-252,541,o),
(-240,541,cs),
(-236,541,o),
(-229,536,o),
(-218,526,cs),
(-197,506,o),
(-176,489,o),
(-160,478,cs),
(-152,473,o),
(-145,471,o),
(-138,471,cs),
(-106,471,o),
(-82,501,o),
(-82,542,cs),
(-82,574,o),
(-110,608,o),
(-142,608,cs)
);
},
{
closed = 1;
nodes = (
(-169,554,o),
(-158,567,o),
(-145,567,cs),
(-132,567,o),
(-122,553,o),
(-122,541,cs),
(-122,528,o),
(-133,514,o),
(-145,514,cs),
(-158,514,o),
(-169,528,o),
(-169,541,cs)
);
}
);
width = 0;
},
{
associatedMasterId = m01;
attr = {
colorPalette = 1;
};
layerId = "B2385303-DC3E-4B33-904B-B8628437A8F4";
name = "15 Mar 69 BE 16:30";
shapes = (
{
closed = 1;
nodes = (
(-166,608,o),
(-184,595,o),
(-195,572,c),
(-208,584,o),
(-222,590,o),
(-234,590,cs),
(-241,590,o),
(-248,588,o),
(-256,585,c),
(-259,582,o),
(-264,578,o),
(-271,572,c),
(-274,577,o),
(-274,582,o),
(-274,590,cs),
(-274,622,o),
(-248,637,o),
(-215,638,cs),
(-202,639,o),
(-183,639,o),
(-158,640,cs),
(-91,640,o),
(-53,658,o),
(-36,705,c),
(-47,712,o),
(-64,722,o),
(-86,736,c),
(-93,705,o),
(-124,687,o),
(-160,687,cs),
(-257,687,o),
(-329,673,o),
(-329,580,cs),
(-329,544,o),
(-312,502,o),
(-293,473,c),
(-254,502,l),
(-257,507,o),
(-258,513,o),
(-258,518,cs),
(-258,534,o),
(-252,541,o),
(-240,541,cs),
(-236,541,o),
(-229,536,o),
(-218,526,cs),
(-197,506,o),
(-176,489,o),
(-160,478,cs),
(-152,473,o),
(-145,471,o),
(-138,471,cs),
(-106,471,o),
(-82,501,o),
(-82,542,cs),
(-82,574,o),
(-110,608,o),
(-142,608,cs)
);
},
{
closed = 1;
nodes = (
(-169,554,o),
(-158,567,o),
(-145,567,cs),
(-132,567,o),
(-122,553,o),
(-122,541,cs),
(-122,528,o),
(-133,514,o),
(-145,514,cs),
(-158,514,o),
(-169,528,o),
(-169,541,cs)
);
}
);
visible = 1;
width = 0;
}
);
note = maitaikhuthai;
unicode = 3655;
},
{
glyphname = maiyamokthai;
lastChange = "2026-03-15 09:38:27 +0000";
layers = (
{
layerId = m01;
shapes = (
{
closed = 1;
nodes = (
(78,356,o),
(87,362,o),
(98,362,cs),
(114,362,o),
(125,355,o),
(138,336,c),
(141,339,o),
(143,342,o),
(143,343,c),
(148,348,ls),
(157,356,o),
(169,359,o),
(182,359,cs),
(207,359,o),
(223,331,o),
(223,307,cs),
(223,-225,l),
(232,-225,o),
(251,-225,o),
(280,-225,c),
(280,305,ls),
(280,362,o),
(241,413,o),
(193,413,cs),
(176,413,o),
(158,404,o),
(145,391,c),
(132,407,o),
(114,415,o),
(93,415,cs),
(44,415,o),
(0,364,o),
(0,304,cs),
(0,245,o),
(35,202,o),
(79,202,cs),
(111,202,o),
(140,231,o),
(140,274,cs),
(140,317,o),
(111,347,o),
(78,347,c)
);
},
{
closed = 1;
nodes = (
(54,295,o),
(64,306,o),
(79,306,cs),
(94,306,o),
(103,292,o),
(103,279,cs),
(103,263,o),
(92,251,o),
(79,251,cs),
(64,251,o),
(54,264,o),
(54,279,cs)
);
}
);
width = 361;
},
{
associatedMasterId = m01;
attr = {
colorPalette = 1;
};
layerId = "8377C0F8-1758-45D6-9A82-AD90166197A8";
name = "15 Mar 69 BE 16:38";
shapes = (
{
closed = 1;
nodes = (
(78,356,o),
(87,362,o),
(98,362,cs),
(114,362,o),
(125,355,o),
(138,336,c),
(141,339,o),
(143,342,o),
(143,343,c),
(148,348,ls),
(157,356,o),
(169,359,o),
(182,359,cs),
(207,359,o),
(223,331,o),
(223,307,cs),
(223,-225,l),
(232,-225,o),
(251,-225,o),
(280,-225,c),
(280,305,ls),
(280,362,o),
(241,413,o),
(193,413,cs),
(176,413,o),
(158,404,o),
(145,391,c),
(132,407,o),
(114,415,o),
(93,415,cs),
(44,415,o),
(0,364,o),
(0,304,cs),
(0,245,o),
(35,202,o),
(79,202,cs),
(111,202,o),
(140,231,o),
(140,274,cs),
(140,317,o),
(111,347,o),
(78,347,c)
);
},
{
closed = 1;
nodes = (
(54,295,o),
(64,306,o),
(79,306,cs),
(94,306,o),
(103,292,o),
(103,279,cs),
(103,263,o),
(92,251,o),
(79,251,cs),
(64,251,o),
(54,264,o),
(54,279,cs)
);
}
);
visible = 1;
width = 361;
}
);
note = maiyamokthai;
unicode = 3654;
},
{
glyphname = moMathai;
layers = (
{
layerId = m01;
shapes = (
{
closed = 1;
nodes = (
(333,410,l),
(324,410,o),
(305,410,o),
(276,410,c),
(276,79,l),
(239,106,o),
(196,127,o),
(132,143,c),
(132,344,ls),
(132,380,o),
(108,415,o),
(69,415,cs),
(33,415,o),
(6,381,o),
(6,340,cs),
(6,301,o),
(30,265,o),
(66,265,c),
(68,266,o),
(71,266,o),
(76,266,c),
(76,247,o),
(76,208,o),
(76,151,c),
(69,151,ls),
(33,151,o),
(4,117,o),
(4,74,cs),
(4,30,o),
(32,-3,o),
(69,-3,cs),
(108,-3,o),
(133,31,o),
(133,74,cs),
(133,79,o),
(133,85,o),
(130,93,c),
(130,96,l),
(151,96,o),
(198,71,o),
(235,43,cs),
(256,28,o),
(274,13,o),
(285,0,c),
(296,0,o),
(312,0,o),
(333,0,c)
);
},
{
closed = 1;
nodes = (
(42,355,o),
(50,368,o),
(66,368,cs),
(79,368,o),
(89,353,o),
(89,340,cs),
(89,325,o),
(79,313,o),
(66,313,cs),
(53,313,o),
(42,324,o),
(42,340,cs)
);
},
{
closed = 1;
nodes = (
(83,102,o),
(94,90,o),
(94,75,cs),
(94,60,o),
(83,47,o),
(70,47,cs),
(55,47,o),
(45,60,o),
(45,75,cs),
(45,90,o),
(55,102,o),
(70,102,cs)
);
}
);
width = 415;
}
);
note = moMathai;
unicode = 3617;
},
{
glyphname = multiply;
lastChange = "2026-03-15 09:31:31 +0000";
layers = (
{
layerId = m01;
shapes = (
{
closed = 1;
nodes = (
(-201,499,o),
(-112,489,o),
(-69,481,c),
(-70,484,o),
(-70,487,o),
(-71,488,c),
(-74,496,ls),
(-75,499,o),
(-78,503,o),
(-82,510,c),
(-82,650,l),
(-91,650,o),
(-110,650,o),
(-138,650,c),
(-138,573,l),
(-151,582,o),
(-165,592,o),
(-181,596,c),
(-181,608,o),
(-181,626,o),
(-181,650,c),
(-238,650,l),
(-238,643,o),
(-238,629,o),
(-238,608,c),
(-246,608,ls),
(-322,608,o),
(-388,553,o),
(-388,484,c),
(-347,493,o),
(-291,499,o),
(-254,499,cs)
);
},
{
closed = 1;
nodes = (
(-160,529,o),
(-177,531,o),
(-195,534,cs),
(-212,536,o),
(-231,537,o),
(-250,537,cs),
(-273,537,o),
(-304,533,o),
(-325,528,c),
(-312,547,o),
(-279,562,o),
(-243,562,cs),
(-206,562,o),
(-165,547,o),
(-145,527,c)
);
}
);
width = 0;
},
{
associatedMasterId = m01;
attr = {
colorPalette = 1;
};
layerId = "7209B28F-D93A-4B18-AED6-0BAFE58B6B7F";
name = "15 Mar 69 BE 16:31";
shapes = (
{
closed = 1;
nodes = (
(-201,499,o),
(-112,489,o),
(-69,481,c),
(-70,484,o),
(-70,487,o),
(-71,488,c),
(-74,496,ls),
(-75,499,o),
(-78,503,o),
(-82,510,c),
(-82,650,l),
(-91,650,o),
(-110,650,o),
(-138,650,c),
(-138,573,l),
(-151,582,o),
(-165,592,o),
(-181,596,c),
(-181,608,o),
(-181,626,o),
(-181,650,c),
(-238,650,l),
(-238,643,o),
(-238,629,o),
(-238,608,c),
(-246,608,ls),
(-322,608,o),
(-388,553,o),
(-388,484,c),
(-347,493,o),
(-291,499,o),
(-254,499,cs)
);
},
{
closed = 1;
nodes = (
(-160,529,o),
(-177,531,o),
(-195,534,cs),
(-212,536,o),
(-231,537,o),
(-250,537,cs),
(-273,537,o),
(-304,533,o),
(-325,528,c),
(-312,547,o),
(-279,562,o),
(-243,562,cs),
(-206,562,o),
(-165,547,o),
(-145,527,c)
);
}
);
visible = 1;
width = 0;
}
);
note = multiply;
unicode = 215;
},
{
glyphname = n;
layers = (
{
layerId = m01;
shapes = (
{
closed = 1;
nodes = (
(71,376,l),
(18,376,l),
(18,362,o),
(18,334,o),
(18,293,cs),
(18,0,l),
(27,0,o),
(45,0,o),
(72,0,c),
(72,252,ls),
(72,300,o),
(98,341,o),
(150,341,cs),
(187,341,o),
(205,319,o),
(205,275,cs),
(205,0,l),
(214,0,o),
(231,0,o),
(258,0,c),
(258,290,ls),
(258,353,o),
(225,386,o),
(166,386,cs),
(125,386,o),
(98,367,o),
(71,335,c)
);
}
);
width = 338;
}
);
note = n;
unicode = 110;
},
{
glyphname = ngoNguthai;
layers = (
{
layerId = m01;
shapes = (
{
closed = 1;
nodes = (
(243,337,ls),
(243,378,o),
(213,415,o),
(177,415,cs),
(142,415,o),
(113,380,o),
(113,339,cs),
(113,298,o),
(142,263,o),
(177,263,c),
(179,264,o),
(182,264,o),
(186,264,c),
(186,235,o),
(186,178,o),
(186,92,c),
(34,321,l),
(27,316,o),
(12,305,o),
(-10,290,c),
(186,0,l),
(195,0,o),
(214,0,o),
(243,0,c)
);
},
{
closed = 1;
nodes = (
(151,354,o),
(163,367,o),
(175,367,cs),
(190,367,o),
(200,354,o),
(200,339,cs),
(200,323,o),
(188,311,o),
(175,311,cs),
(160,311,o),
(151,324,o),
(151,339,cs)
);
}
);
width = 325;
}
);
note = ngoNguthai;
unicode = 3591;
},
{
glyphname = nikhahitthai;
lastChange = "2026-03-15 09:38:39 +0000";
layers = (
{
layerId = m01;
shapes = (
{
closed = 1;
nodes = (
(-160,643,o),
(-195,607,o),
(-195,567,cs),
(-195,527,o),
(-160,492,o),
(-119,492,cs),
(-78,492,o),
(-43,526,o),
(-43,567,cs),
(-43,611,o),
(-80,643,o),
(-119,643,cs)
);
},
{
closed = 1;
nodes = (
(-148,583,o),
(-134,597,o),
(-119,597,cs),
(-103,597,o),
(-89,583,o),
(-89,567,cs),
(-89,552,o),
(-103,538,o),
(-119,538,cs),
(-134,538,o),
(-148,552,o),
(-148,567,cs)
);
}
);
width = 0;
},
{
associatedMasterId = m01;
attr = {
colorPalette = 1;
};
layerId = "73EADF44-0B9A-4C8E-A4A2-EBC1E4AFDE15";
name = "15 Mar 69 BE 16:38";
shapes = (
{
closed = 1;
nodes = (
(-160,643,o),
(-195,607,o),
(-195,567,cs),
(-195,527,o),
(-160,492,o),
(-119,492,cs),
(-78,492,o),
(-43,526,o),
(-43,567,cs),
(-43,611,o),
(-80,643,o),
(-119,643,cs)
);
},
{
closed = 1;
nodes = (
(-148,583,o),
(-134,597,o),
(-119,597,cs),
(-103,597,o),
(-89,583,o),
(-89,567,cs),
(-89,552,o),
(-103,538,o),
(-119,538,cs),
(-134,538,o),
(-148,552,o),
(-148,567,cs)
);
}
);
width = 0;
}
);
note = nikhahitthai;
unicode = 3661;
},
{
glyphname = nine;
layers = (
{
layerId = m01;
shapes = (
{
closed = 1;
nodes = (
(219,106,o),
(185,41,o),
(130,41,cs),
(97,41,o),
(73,56,o),
(57,88,c),
(49,84,o),
(36,78,o),
(19,71,c),
(42,18,o),
(79,-5,o),
(130,-5,cs),
(218,-5,o),
(274,85,o),
(274,225,cs),
(274,340,o),
(216,415,o),
(133,415,cs),
(61,415,o),
(2,351,o),
(2,270,cs),
(2,190,o),
(61,126,o),
(133,126,cs),
(166,126,o),
(197,139,o),
(220,162,c)
);
},
{
closed = 1;
nodes = (
(222,219,o),
(184,173,o),
(135,173,cs),
(80,173,o),
(48,224,o),
(48,272,cs),
(48,328,o),
(87,372,o),
(135,372,cs),
(186,372,o),
(222,325,o),
(222,272,cs)
);
}
);
width = 338;
}
);
note = nine;
unicode = 57;
},
{
glyphname = ninethai;
layers = (
{
layerId = m01;
shapes = (
{
closed = 1;
nodes = (
(185,-2,o),
(213,26,o),
(213,66,cs),
(213,103,o),
(190,134,o),
(155,134,cs),
(127,134,o),
(107,112,o),
(100,88,c),
(71,117,o),
(56,168,o),
(56,207,cs),
(56,238,o),
(74,258,o),
(89,258,cs),
(125,258,o),
(145,243,o),
(185,178,cs),
(192,167,o),
(203,151,o),
(216,129,cs),
(249,76,o),
(278,37,o),
(313,0,c),
(352,35,l),
(336,50,o),
(315,75,o),
(295,102,cs),
(259,154,o),
(223,213,o),
(223,230,cs),
(223,239,o),
(227,244,o),
(234,244,cs),
(238,244,o),
(244,238,o),
(253,227,cs),
(272,203,o),
(292,184,o),
(309,172,cs),
(318,167,o),
(326,164,o),
(334,164,cs),
(359,164,o),
(379,186,o),
(393,231,cs),
(408,275,o),
(415,336,o),
(415,415,c),
(355,415,l),
(355,350,o),
(353,302,o),
(349,273,cs),
(345,243,o),
(339,228,o),
(332,228,cs),
(329,228,o),
(322,234,o),
(313,247,cs),
(296,274,o),
(275,295,o),
(259,307,cs),
(251,313,o),
(244,316,o),
(237,316,cs),
(210,316,o),
(189,295,o),
(189,263,c),
(168,292,o),
(135,311,o),
(99,311,cs),
(35,311,o),
(0,262,o),
(0,197,cs),
(0,162,o),
(8,128,o),
(23,97,cs),
(51,40,o),
(99,-2,o),
(154,-2,cs)
);
},
{
closed = 1;
nodes = (
(130,87,o),
(137,95,o),
(153,95,cs),
(168,95,o),
(175,87,o),
(175,70,cs),
(175,53,o),
(168,45,o),
(153,45,cs),
(137,45,o),
(130,53,o),
(130,70,cs)
);
}
);
width = 461;
}
);
note = ninethai;
unicode = 3673;
},
{
glyphname = noNenthai;
layers = (
{
layerId = m01;
shapes = (
{
closed = 1;
nodes = (
(449,410,l),
(439,410,o),
(420,410,o),
(392,410,c),
(392,132,l),
(387,129,o),
(376,124,o),
(359,116,cs),
(346,109,o),
(335,103,o),
(326,97,cs),
(317,91,o),
(308,85,o),
(300,80,c),
(300,297,ls),
(300,369,o),
(232,415,o),
(159,415,cs),
(88,415,o),
(29,374,o),
(0,305,c),
(28,300,o),
(56,285,o),
(71,276,c),
(50,265,o),
(33,238,o),
(33,213,cs),
(33,74,ls),
(33,31,o),
(63,-3,o),
(98,-3,cs),
(133,-3,o),
(162,29,o),
(162,72,cs),
(162,115,o),
(133,147,o),
(98,147,cs),
(96,147,o),
(93,147,o),
(89,146,c),
(89,211,ls),
(89,234,o),
(112,260,o),
(143,279,c),
(128,295,o),
(114,300,o),
(70,323,c),
(85,344,o),
(117,362,o),
(156,362,cs),
(204,362,o),
(244,335,o),
(244,291,cs),
(244,226,o),
(244,129,o),
(244,0,c),
(296,0,l),
(312,29,o),
(337,57,o),
(368,69,cs),
(372,70,o),
(378,73,o),
(386,76,c),
(386,35,o),
(413,-3,o),
(453,-3,cs),
(490,-3,o),
(520,32,o),
(520,72,cs),
(520,116,o),
(485,146,o),
(449,146,c)
);
},
{
closed = 1;
nodes = (
(476,55,o),
(465,43,o),
(454,43,cs),
(441,43,o),
(429,54,o),
(429,70,cs),
(429,83,o),
(440,97,o),
(453,97,cs),
(466,97,o),
(476,83,o),
(476,70,cs)
);
},
{
closed = 1;
nodes = (
(75,82,o),
(85,96,o),
(98,96,cs),
(111,96,o),
(122,85,o),
(122,70,cs),
(122,55,o),
(111,43,o),
(98,43,cs),
(85,43,o),
(75,54,o),
(75,70,cs)
);
}
);
width = 530;
}
);
note = noNenthai;
unicode = 3603;
},
{
glyphname = noNuthai;
layers = (
{
layerId = m01;
shapes = (
{
closed = 1;
nodes = (
(327,151,l),
(327,410,l),
(318,410,o),
(299,410,o),
(270,410,c),
(270,143,l),
(262,143,o),
(246,139,o),
(227,131,cs),
(192,118,o),
(150,95,o),
(126,79,c),
(126,344,ls),
(126,380,o),
(102,415,o),
(62,415,cs),
(27,415,o),
(0,381,o),
(0,340,cs),
(0,303,o),
(26,265,o),
(59,265,c),
(62,266,o),
(65,266,o),
(70,266,c),
(70,222,o),
(70,133,o),
(70,0,c),
(118,0,l),
(129,13,o),
(148,30,o),
(169,45,cs),
(208,73,o),
(255,96,o),
(272,96,c),
(271,95,o),
(269,78,o),
(269,74,cs),
(269,33,o),
(298,-3,o),
(334,-3,cs),
(370,-3,o),
(398,31,o),
(398,74,cs),
(398,114,o),
(373,151,o),
(334,151,cs)
);
},
{
closed = 1;
nodes = (
(36,355,o),
(44,368,o),
(59,368,cs),
(72,368,o),
(83,356,o),
(83,340,cs),
(83,325,o),
(72,313,o),
(59,313,cs),
(46,313,o),
(36,324,o),
(36,340,cs)
);
},
{
closed = 1;
nodes = (
(308,90,o),
(320,102,o),
(333,102,cs),
(346,102,o),
(357,90,o),
(357,75,cs),
(357,59,o),
(346,47,o),
(333,47,cs),
(320,47,o),
(308,59,o),
(308,75,cs)
);
}
);
width = 410;
}
);
note = noNuthai;
unicode = 3609;
},
{
glyphname = notdef_2;
layers = (
{
layerId = m01;
shapes = (
{
closed = 1;
nodes = (
(0,456,l),
(91,456,o),
(228,456,o),
(410,456,c),
(410,51,l),
(319,51,o),
(182,51,o),
(0,51,c)
);
},
{
closed = 1;
nodes = (
(51,102,l),
(120,102,o),
(222,102,o),
(358,102,c),
(358,404,l),
(290,404,o),
(188,404,o),
(51,404,c)
);
}
);
width = 543;
}
);
note = notdef_2;
},
{
glyphname = ntilde;
layers = (
{
layerId = m01;
shapes = (
{
closed = 1;
nodes = (
(103,146,o),
(110,132,o),
(118,124,c),
(86,124,o),
(65,150,o),
(65,182,cs),
(65,227,o),
(106,258,o),
(158,258,cs),
(219,258,o),
(259,213,o),
(259,166,cs),
(259,98,o),
(195,50,o),
(100,35,c),
(109,-4,l),
(228,11,o),
(315,80,o),
(315,168,cs),
(315,248,o),
(240,310,o),
(157,310,cs),
(76,310,o),
(0,259,o),
(0,186,cs),
(0,119,o),
(47,78,o),
(114,78,cs),
(171,78,o),
(215,114,o),
(215,166,cs),
(215,199,o),
(195,228,o),
(160,228,cs),
(125,228,o),
(103,201,o),
(103,166,cs)
);
},
{
closed = 1;
nodes = (
(138,178,o),
(147,189,o),
(159,189,cs),
(171,189,o),
(180,177,o),
(180,166,cs),
(180,153,o),
(172,141,o),
(159,141,cs),
(147,141,o),
(138,151,o),
(138,166,cs)
);
}
);
width = 397;
}
);
note = ntilde;
unicode = 241;
},
{
glyphname = numbersign;
layers = (
{
layerId = m01;
shapes = (
{
closed = 1;
nodes = (
(29,0,l),
(38,29,o),
(56,86,o),
(83,172,c),
(141,172,l),
(132,143,o),
(115,86,o),
(89,0,c),
(126,0,l),
(135,29,o),
(152,86,o),
(179,172,c),
(256,172,l),
(258,179,o),
(261,192,o),
(266,212,c),
(190,212,l),
(195,226,o),
(204,254,o),
(217,295,c),
(292,295,l),
(294,302,o),
(298,315,o),
(304,335,c),
(228,335,l),
(237,364,o),
(255,421,o),
(282,507,c),
(244,507,l),
(235,478,o),
(218,421,o),
(191,335,c),
(132,335,l),
(141,364,o),
(158,421,o),
(185,507,c),
(147,507,l),
(138,478,o),
(121,421,o),
(94,335,c),
(20,335,l),
(19,328,o),
(15,315,o),
(9,295,c),
(83,295,l),
(79,281,o),
(70,253,o),
(57,212,c),
(-15,212,l),
(-17,205,o),
(-21,192,o),
(-28,172,c),
(45,172,l),
(36,143,o),
(19,86,o),
(-8,0,c)
);
},
{
closed = 1;
nodes = (
(95,212,l),
(99,226,o),
(107,254,o),
(120,295,c),
(179,295,l),
(175,281,o),
(167,253,o),
(154,212,c)
);
}
);
width = 338;
}
);
note = numbersign;
unicode = 35;
},
{
glyphname = o;
layers = (
{
layerId = m01;
shapes = (
{
closed = 1;
nodes = (
(231,-10,o),
(272,56,o),
(272,201,cs),
(272,320,o),
(226,386,o),
(138,386,cs),
(49,386,o),
(4,320,o),
(4,201,cs),
(4,56,o),
(46,-10,o),
(138,-10,cs)
);
},
{
closed = 1;
nodes = (
(195,341,o),
(217,297,o),
(217,184,cs),
(217,75,o),
(191,35,o),
(138,35,cs),
(111,35,o),
(92,46,o),
(79,68,cs),
(66,91,o),
(59,129,o),
(59,184,cs),
(59,241,o),
(65,281,o),
(78,305,cs),
(91,329,o),
(111,341,o),
(138,341,cs)
);
}
);
width = 338;
}
);
note = o;
unicode = 111;
},
{
glyphname = oAngthai;
lastChange = "2026-03-16 01:21:17 +0000";
layers = (
{
attr = {
colorPalette = 1;
};
layerId = m01;
shapes = (
{
closed = 1;
nodes = (
(305,292,ls),
(305,364,o),
(241,415,o),
(160,415,cs),
(85,415,o),
(29,374,o),
(0,307,c),
(49,289,l),
(70,338,o),
(109,364,o),
(158,364,cs),
(209,364,o),
(249,332,o),
(249,291,cs),
(249,69,ls),
(249,54,o),
(240,47,o),
(223,47,cs),
(121,47,ls),
(104,47,o),
(95,54,o),
(95,69,cs),
(95,140,l),
(97,140,o),
(100,140,o),
(104,139,c),
(140,139,o),
(168,173,o),
(168,210,cs),
(168,247,o),
(143,287,o),
(108,287,cs),
(68,287,o),
(39,261,o),
(39,210,cs),
(39,43,ls),
(39,15,o),
(57,0,o),
(90,0,cs),
(254,0,ls),
(287,0,o),
(305,15,o),
(305,43,cs)
);
},
{
closed = 1;
nodes = (
(87,187,o),
(78,196,o),
(78,215,cs),
(78,228,o),
(89,242,o),
(102,242,cs),
(115,242,o),
(127,228,o),
(127,215,cs),
(127,200,o),
(117,187,o),
(102,187,cs)
);
}
);
width = 387;
}
);
note = oAngthai;
unicode = 3629;
},
{
glyphname = oacute;
layers = (
{
layerId = m01;
shapes = (
{
closed = 1;
nodes = (
(57,135,o),
(56,146,o),
(56,154,cs),
(56,207,o),
(80,259,o),
(119,259,cs),
(147,259,o),
(171,223,o),
(171,191,cs),
(171,0,l),
(180,0,o),
(199,0,o),
(227,0,c),
(227,191,ls),
(227,227,o),
(248,259,o),
(273,259,cs),
(305,259,o),
(325,210,o),
(325,146,cs),
(325,105,o),
(314,41,o),
(301,0,c),
(361,0,l),
(374,55,o),
(376,88,o),
(379,121,c),
(379,151,ls),
(379,247,o),
(346,307,o),
(286,307,cs),
(247,307,o),
(224,290,o),
(204,253,c),
(183,293,o),
(153,312,o),
(114,312,cs),
(49,312,o),
(0,239,o),
(0,142,cs),
(0,54,o),
(35,0,o),
(82,0,cs),
(117,0,o),
(144,29,o),
(144,68,cs),
(144,105,o),
(115,135,o),
(82,135,cs),
(77,135,o),
(70,135,o),
(65,132,cs),
(63,131,o),
(61,131,o),
(58,130,c)
);
},
{
closed = 1;
nodes = (
(57,84,o),
(66,94,o),
(81,94,cs),
(94,94,o),
(104,84,o),
(104,69,cs),
(104,56,o),
(92,43,o),
(81,43,cs),
(68,43,o),
(57,54,o),
(57,69,cs)
);
}
);
width = 461;
}
);
note = oacute;
unicode = 243;
},
{
glyphname = ocircumflex;
layers = (
{
layerId = m01;
shapes = (
{
closed = 1;
nodes = (
(231,101,o),
(241,120,o),
(241,145,cs),
(241,184,o),
(213,212,o),
(180,212,cs),
(145,212,o),
(118,181,o),
(118,145,cs),
(118,104,o),
(143,74,o),
(211,43,c),
(200,40,o),
(191,39,o),
(180,39,cs),
(116,39,o),
(60,87,o),
(60,150,cs),
(60,206,o),
(106,243,o),
(185,255,cs),
(334,279,o),
(403,305,o),
(427,404,c),
(362,419,l),
(354,371,o),
(326,339,o),
(282,322,c),
(253,315,o),
(209,306,o),
(150,294,cs),
(61,275,o),
(0,216,o),
(0,139,cs),
(0,60,o),
(75,-2,o),
(162,-2,cs),
(178,-2,o),
(199,1,o),
(226,6,cs),
(252,11,o),
(270,13,o),
(279,13,cs),
(306,13,o),
(339,11,o),
(368,-4,c),
(371,6,o),
(376,21,o),
(383,40,c),
(365,44,o),
(329,52,o),
(274,63,cs),
(249,68,o),
(229,77,o),
(214,89,c)
);
},
{
closed = 1;
nodes = (
(156,163,o),
(165,175,o),
(180,175,cs),
(193,175,o),
(205,161,o),
(205,148,cs),
(205,135,o),
(195,123,o),
(180,123,cs),
(165,123,o),
(156,135,o),
(156,148,cs)
);
}
);
width = 461;
}
);
note = ocircumflex;
unicode = 244;
},
{
glyphname = odieresis;
layers = (
{
layerId = m01;
shapes = (
{
closed = 1;
nodes = (
(174,61,o),
(177,71,o),
(177,83,cs),
(177,116,o),
(150,145,o),
(118,145,cs),
(83,145,o),
(57,118,o),
(57,83,cs),
(57,31,o),
(97,-4,o),
(157,-4,cs),
(248,-4,o),
(328,72,o),
(328,177,cs),
(328,254,o),
(271,311,o),
(195,311,cs),
(136,311,o),
(78,273,o),
(46,224,c),
(13,299,o),
(-21,358,o),
(-61,398,c),
(-70,389,o),
(-84,374,o),
(-102,355,c),
(-49,298,o),
(-6,225,o),
(41,126,c),
(85,217,o),
(134,258,o),
(189,258,cs),
(233,258,o),
(267,223,o),
(267,176,cs),
(267,121,o),
(221,60,o),
(170,53,c)
);
},
{
closed = 1;
nodes = (
(93,97,o),
(103,108,o),
(118,108,cs),
(133,108,o),
(142,97,o),
(142,82,cs),
(142,67,o),
(133,57,o),
(118,57,cs),
(105,57,o),
(93,69,o),
(93,82,cs)
);
}
);
width = 410;
}
);
note = odieresis;
unicode = 246;
},
{
glyphname = oe;
lastChange = "2026-03-15 09:31:50 +0000";
layers = (
{
layerId = m01;
shapes = (
{
closed = 1;
nodes = (
(-263,753,o),
(-280,733,o),
(-315,724,c),
(-314,715,o),
(-312,703,o),
(-309,686,c),
(-237,693,o),
(-157,727,o),
(-97,776,cs),
(-65,801,o),
(-39,832,o),
(-24,864,c),
(-33,871,o),
(-48,881,o),
(-68,895,c),
(-89,843,o),
(-168,773,o),
(-221,753,c),
(-212,770,o),
(-203,803,o),
(-203,831,cs),
(-203,879,o),
(-227,908,o),
(-262,908,cs),
(-291,908,o),
(-318,878,o),
(-318,845,cs),
(-318,810,o),
(-293,781,o),
(-260,781,c)
);
},
{
closed = 1;
nodes = (
(-284,858,o),
(-274,869,o),
(-262,869,cs),
(-251,869,o),
(-240,860,o),
(-240,845,cs),
(-240,832,o),
(-250,821,o),
(-262,821,cs),
(-274,821,o),
(-284,833,o),
(-284,845,cs)
);
}
);
width = 0;
},
{
associatedMasterId = m01;
attr = {
colorPalette = 1;
};
layerId = "BFBE4E8B-8CB8-40E3-BCB7-F31302E8EB22";
name = "15 Mar 69 BE 16:31";
shapes = (
{
closed = 1;
nodes = (
(-263,753,o),
(-280,733,o),
(-315,724,c),
(-314,715,o),
(-312,703,o),
(-309,686,c),
(-237,693,o),
(-157,727,o),
(-97,776,cs),
(-65,801,o),
(-39,832,o),
(-24,864,c),
(-33,871,o),
(-48,881,o),
(-68,895,c),
(-89,843,o),
(-168,773,o),
(-221,753,c),
(-212,770,o),
(-203,803,o),
(-203,831,cs),
(-203,879,o),
(-227,908,o),
(-262,908,cs),
(-291,908,o),
(-318,878,o),
(-318,845,cs),
(-318,810,o),
(-293,781,o),
(-260,781,c)
);
},
{
closed = 1;
nodes = (
(-284,858,o),
(-274,869,o),
(-262,869,cs),
(-251,869,o),
(-240,860,o),
(-240,845,cs),
(-240,832,o),
(-250,821,o),
(-262,821,cs),
(-274,821,o),
(-284,833,o),
(-284,845,cs)
);
}
);
visible = 1;
width = 0;
}
);
note = oe;
unicode = 339;
},
{
glyphname = ograve;
layers = (
{
layerId = m01;
shapes = (
{
closed = 1;
nodes = (
(168,202,o),
(167,206,o),
(167,211,cs),
(167,228,o),
(178,252,o),
(199,252,cs),
(219,252,o),
(231,236,o),
(231,208,c),
(276,208,l),
(276,239,o),
(284,258,o),
(307,258,cs),
(320,258,o),
(329,250,o),
(334,235,cs),
(339,219,o),
(342,196,o),
(342,166,cs),
(342,71,o),
(325,44,o),
(257,44,cs),
(153,44,ls),
(96,44,o),
(77,66,o),
(77,114,cs),
(77,290,ls),
(77,346,o),
(62,376,o),
(30,399,c),
(-17,368,l),
(10,347,o),
(20,326,o),
(20,289,cs),
(20,109,ls),
(20,33,o),
(55,0,o),
(154,0,cs),
(256,0,ls),
(363,0,o),
(402,35,o),
(402,170,cs),
(402,254,o),
(373,312,o),
(318,312,cs),
(294,312,o),
(269,300,o),
(254,275,c),
(239,299,o),
(218,307,o),
(193,307,cs),
(141,307,o),
(112,257,o),
(112,190,cs),
(112,119,o),
(140,68,o),
(188,68,cs),
(224,68,o),
(250,99,o),
(250,135,cs),
(250,172,o),
(223,202,o),
(188,202,c),
(184,201,o),
(178,199,o),
(169,198,c)
);
},
{
closed = 1;
nodes = (
(165,150,o),
(172,163,o),
(187,163,cs),
(203,163,o),
(210,154,o),
(210,137,cs),
(210,125,o),
(200,113,o),
(187,113,cs),
(174,113,o),
(165,124,o),
(165,137,cs)
);
}
);
width = 484;
}
);
note = ograve;
unicode = 242;
},
{
glyphname = one;
layers = (
{
layerId = m01;
shapes = (
{
closed = 1;
nodes = (
(137,410,l),
(118,387,o),
(101,370,o),
(68,342,cs),
(37,316,l),
(42,311,o),
(52,300,o),
(67,285,c),
(78,294,o),
(100,311,o),
(133,338,c),
(133,281,o),
(133,169,o),
(133,0,c),
(184,0,l),
(184,68,o),
(184,205,o),
(184,410,c)
);
}
);
width = 338;
}
);
note = one;
unicode = 49;
},
{
glyphname = onethai;
layers = (
{
layerId = m01;
shapes = (
{
closed = 1;
nodes = (
(103,146,o),
(110,132,o),
(118,124,c),
(86,124,o),
(65,150,o),
(65,182,cs),
(65,227,o),
(106,258,o),
(158,258,cs),
(219,258,o),
(259,213,o),
(259,166,cs),
(259,98,o),
(195,50,o),
(100,35,c),
(109,-4,l),
(228,11,o),
(315,80,o),
(315,168,cs),
(315,248,o),
(240,310,o),
(157,310,cs),
(76,310,o),
(0,259,o),
(0,186,cs),
(0,119,o),
(47,78,o),
(114,78,cs),
(171,78,o),
(215,114,o),
(215,166,cs),
(215,199,o),
(195,228,o),
(160,228,cs),
(125,228,o),
(103,201,o),
(103,166,cs)
);
},
{
closed = 1;
nodes = (
(138,178,o),
(147,189,o),
(159,189,cs),
(171,189,o),
(180,177,o),
(180,166,cs),
(180,153,o),
(172,141,o),
(159,141,cs),
(147,141,o),
(138,151,o),
(138,166,cs)
);
}
);
width = 397;
}
);
note = onethai;
unicode = 3665;
},
{
glyphname = oslash;
layers = (
{
layerId = m01;
shapes = (
{
closed = 1;
nodes = (
(205,103,ls),
(200,106,o),
(192,113,o),
(179,122,cs),
(154,141,o),
(130,150,o),
(111,150,cs),
(94,150,o),
(72,136,o),
(63,121,c),
(63,126,o),
(62,132,o),
(61,137,c),
(61,153,ls),
(61,193,o),
(75,218,o),
(98,235,cs),
(142,264,o),
(219,263,o),
(306,263,cs),
(383,263,o),
(455,334,o),
(455,415,c),
(386,415,l),
(386,339,o),
(351,307,o),
(258,307,cs),
(180,307,ls),
(64,307,o),
(0,245,o),
(0,140,cs),
(0,93,o),
(12,44,o),
(33,0,c),
(92,0,l),
(87,15,o),
(82,36,o),
(82,52,cs),
(82,77,o),
(89,90,o),
(104,90,cs),
(117,90,o),
(138,82,o),
(159,67,cs),
(171,57,o),
(190,42,o),
(215,23,cs),
(239,7,o),
(260,0,o),
(280,0,cs),
(325,0,o),
(358,29,o),
(358,76,cs),
(358,116,o),
(328,146,o),
(295,146,cs),
(263,146,o),
(235,121,o),
(231,84,c)
);
},
{
closed = 1;
nodes = (
(270,91,o),
(282,103,o),
(295,103,cs),
(308,103,o),
(319,91,o),
(319,76,cs),
(319,60,o),
(308,48,o),
(295,48,cs),
(282,48,o),
(270,60,o),
(270,76,cs)
);
}
);
width = 440;
}
);
note = oslash;
unicode = 248;
},
{
glyphname = otilde;
layers = (
{
layerId = m01;
shapes = (
{
closed = 1;
nodes = (
(175,332,o),
(178,320,o),
(185,311,cs),
(187,309,o),
(190,305,o),
(195,300,c),
(86,300,o),
(0,228,o),
(0,135,cs),
(0,54,o),
(71,-2,o),
(151,-2,cs),
(157,-2,o),
(172,1,o),
(195,6,cs),
(219,11,o),
(247,13,o),
(278,13,cs),
(306,13,o),
(338,11,o),
(367,-4,c),
(370,6,o),
(375,21,o),
(382,40,c),
(380,41,o),
(370,44,o),
(351,48,cs),
(333,52,o),
(306,57,o),
(271,63,cs),
(246,68,o),
(226,78,o),
(213,89,c),
(230,101,o),
(240,120,o),
(240,145,cs),
(240,184,o),
(212,212,o),
(179,212,cs),
(147,212,o),
(117,184,o),
(117,145,cs),
(117,104,o),
(147,65,o),
(196,44,c),
(194,43,o),
(192,43,o),
(191,43,cs),
(190,43,o),
(188,43,o),
(186,43,cs),
(177,43,ls),
(109,43,o),
(65,90,o),
(65,143,cs),
(65,179,o),
(74,208,o),
(126,231,cs),
(154,243,o),
(195,253,o),
(252,261,cs),
(345,274,o),
(400,324,o),
(420,407,c),
(405,410,o),
(381,414,o),
(350,419,c),
(350,388,o),
(334,358,o),
(309,338,c),
(309,343,ls),
(309,376,o),
(278,403,o),
(242,403,cs),
(206,403,o),
(175,378,o),
(175,343,cs)
);
},
{
closed = 1;
nodes = (
(218,350,o),
(230,359,o),
(245,359,cs),
(260,359,o),
(271,347,o),
(271,335,cs),
(271,319,o),
(258,311,o),
(245,311,cs),
(230,311,o),
(218,319,o),
(218,335,cs)
);
},
{
closed = 1;
nodes = (
(155,163,o),
(164,175,o),
(179,175,cs),
(192,175,o),
(204,161,o),
(204,148,cs),
(204,135,o),
(194,123,o),
(179,123,cs),
(164,123,o),
(155,135,o),
(155,148,cs)
);
}
);
width = 461;
}
);
note = otilde;
unicode = 245;
},
{
glyphname = p;
layers = (
{
layerId = m01;
shapes = (
{
closed = 1;
nodes = (
(72,39,l),
(95,3,o),
(117,-10,o),
(152,-10,cs),
(235,-10,o),
(271,64,o),
(271,213,cs),
(271,321,o),
(225,386,o),
(148,386,cs),
(117,386,o),
(87,366,o),
(70,334,c),
(70,343,o),
(70,357,o),
(70,376,c),
(18,376,l),
(18,357,o),
(18,320,o),
(18,263,cs),
(18,-127,l),
(27,-127,o),
(45,-127,o),
(72,-127,c)
);
},
{
closed = 1;
nodes = (
(191,341,o),
(216,290,o),
(216,195,cs),
(216,138,o),
(210,97,o),
(199,72,cs),
(187,47,o),
(168,35,o),
(143,35,cs),
(118,35,o),
(99,46,o),
(88,69,cs),
(77,92,o),
(72,132,o),
(72,188,cs),
(72,243,o),
(78,283,o),
(89,306,cs),
(100,329,o),
(118,341,o),
(142,341,cs)
);
}
);
width = 338;
}
);
note = p;
unicode = 112;
},
{
glyphname = paiyannoithai;
layers = (
{
layerId = m01;
shapes = (
{
closed = 1;
nodes = (
(124,327,o),
(125,328,o),
(125,344,cs),
(125,384,o),
(98,415,o),
(62,415,cs),
(27,415,o),
(0,381,o),
(0,344,cs),
(0,288,o),
(44,253,o),
(109,253,cs),
(144,253,o),
(192,273,o),
(212,300,c),
(212,0,l),
(221,0,o),
(240,0,o),
(268,0,c),
(268,373,ls),
(268,392,o),
(257,408,o),
(234,408,cs),
(228,408,o),
(221,404,o),
(213,395,cs),
(205,387,o),
(197,374,o),
(188,357,cs),
(172,325,o),
(149,308,o),
(117,308,c)
);
},
{
closed = 1;
nodes = (
(38,357,o),
(49,371,o),
(62,371,cs),
(75,371,o),
(87,357,o),
(87,344,cs),
(87,329,o),
(75,317,o),
(62,317,cs),
(49,317,o),
(38,329,o),
(38,344,cs)
);
}
);
width = 350;
}
);
note = paiyannoithai;
unicode = 3631;
},
{
glyphname = parenleft;
layers = (
{
layerId = m01;
shapes = (
{
closed = 1;
nodes = (
(55,318,o),
(118,443,o),
(213,520,c),
(204,529,o),
(191,543,o),
(173,560,c),
(66,473,o),
(0,342,o),
(0,205,cs),
(0,78,o),
(62,-62,o),
(173,-151,c),
(182,-142,o),
(195,-128,o),
(213,-111,c),
(113,-28,o),
(55,94,o),
(55,205,cs)
);
}
);
width = 295;
}
);
note = parenleft;
unicode = 40;
},
{
glyphname = parenright;
layers = (
{
layerId = m01;
shapes = (
{
closed = 1;
nodes = (
(0,520,l),
(100,437,o),
(158,313,o),
(158,205,cs),
(158,90,o),
(95,-34,o),
(0,-111,c),
(40,-151,l),
(148,-64,o),
(213,69,o),
(213,205,cs),
(213,340,o),
(148,472,o),
(40,560,c)
);
}
);
width = 295;
}
);
note = parenright;
unicode = 41;
},
{
glyphname = percent;
layers = (
{
layerId = m01;
shapes = (
{
closed = 1;
nodes = (
(191,-5,l),
(223,65,o),
(286,205,o),
(380,415,c),
(329,415,l),
(298,345,o),
(235,205,o),
(140,-5,c)
);
},
{
closed = 1;
nodes = (
(45,410,o),
(0,357,o),
(0,282,cs),
(0,217,o),
(40,154,o),
(101,154,cs),
(160,154,o),
(203,211,o),
(203,282,cs),
(203,350,o),
(161,410,o),
(101,410,cs)
);
},
{
closed = 1;
nodes = (
(62,315,o),
(65,340,o),
(71,357,cs),
(76,374,o),
(86,382,o),
(101,382,cs),
(114,382,o),
(124,374,o),
(130,357,cs),
(137,340,o),
(140,315,o),
(140,282,cs),
(140,249,o),
(137,223,o),
(132,206,cs),
(127,189,o),
(116,181,o),
(101,181,cs),
(88,181,o),
(79,189,o),
(72,206,cs),
(65,223,o),
(62,249,o),
(62,282,cs)
);
},
{
closed = 1;
nodes = (
(363,256,o),
(317,204,o),
(317,128,cs),
(317,64,o),
(358,0,o),
(419,0,cs),
(479,0,o),
(520,63,o),
(520,128,cs),
(520,192,o),
(479,256,o),
(419,256,cs)
);
},
{
closed = 1;
nodes = (
(380,162,o),
(383,187,o),
(389,204,cs),
(395,220,o),
(405,228,o),
(419,228,cs),
(433,228,o),
(443,220,o),
(449,204,cs),
(455,187,o),
(458,162,o),
(458,128,cs),
(458,95,o),
(455,70,o),
(449,53,cs),
(444,36,o),
(434,28,o),
(419,28,cs),
(406,28,o),
(397,36,o),
(390,53,cs),
(383,70,o),
(380,95,o),
(380,128,cs)
);
}
);
width = 602;
}
);
note = percent;
unicode = 37;
},
{
glyphname = period;
layers = (
{
layerId = m01;
shapes = (
{
closed = 1;
nodes = (
(23,93,o),
(0,70,o),
(0,45,cs),
(0,17,o),
(21,-3,o),
(48,-3,cs),
(75,-3,o),
(96,17,o),
(96,45,cs),
(96,70,o),
(73,93,o),
(48,93,cs)
);
}
);
width = 178;
}
);
note = period;
unicode = 46;
},
{
glyphname = perthousand;
lastChange = "2026-03-15 10:00:17 +0000";
layers = (
{
layerId = m01;
shapes = (
{
closed = 1;
nodes = (
(-334,598,l),
(-334,589,o),
(-334,571,o),
(-334,544,c),
(-271,544,l),
(-271,533,o),
(-271,512,o),
(-271,481,c),
(-215,481,l),
(-215,492,o),
(-215,513,o),
(-215,544,c),
(-155,544,l),
(-155,553,o),
(-155,571,o),
(-155,598,c),
(-215,598,l),
(-215,609,o),
(-215,629,o),
(-215,660,c),
(-271,660,l),
(-271,650,o),
(-271,629,o),
(-271,598,c)
);
}
);
width = 0;
},
{
associatedMasterId = m01;
attr = {
colorPalette = 1;
};
layerId = "201BA1CA-1F73-483C-9917-0836BC05C320";
name = "15 Mar 69 BE 17:00";
shapes = (
{
closed = 1;
nodes = (
(-334,598,l),
(-334,589,o),
(-334,571,o),
(-334,544,c),
(-271,544,l),
(-271,533,o),
(-271,512,o),
(-271,481,c),
(-215,481,l),
(-215,492,o),
(-215,513,o),
(-215,544,c),
(-155,544,l),
(-155,553,o),
(-155,571,o),
(-155,598,c),
(-215,598,l),
(-215,609,o),
(-215,629,o),
(-215,660,c),
(-271,660,l),
(-271,650,o),
(-271,629,o),
(-271,598,c)
);
}
);
visible = 1;
width = 0;
}
);
note = perthousand;
unicode = 8240;
},
{
glyphname = phinthuthai;
layers = (
{
layerId = m01;
shapes = (
{
closed = 1;
nodes = (
(-153,-36,o),
(-176,-59,o),
(-176,-84,cs),
(-176,-112,o),
(-155,-132,o),
(-128,-132,cs),
(-101,-132,o),
(-80,-112,o),
(-80,-84,cs),
(-80,-59,o),
(-103,-36,o),
(-128,-36,cs)
);
}
);
width = 0;
}
);
note = phinthuthai;
unicode = 3642;
},
{
glyphname = phoPhanthai;
layers = (
{
layerId = m01;
shapes = (
{
closed = 1;
nodes = (
(131,0,l),
(146,42,o),
(177,127,o),
(223,254,c),
(319,0,l),
(328,0,o),
(347,0,o),
(375,0,c),
(375,410,l),
(366,410,o),
(347,410,o),
(318,410,c),
(318,147,l),
(303,190,o),
(271,274,o),
(224,401,c),
(208,359,o),
(175,274,o),
(126,147,c),
(126,344,ls),
(126,380,o),
(102,415,o),
(62,415,cs),
(27,415,o),
(0,381,o),
(0,340,cs),
(0,303,o),
(26,265,o),
(59,265,c),
(62,266,o),
(65,266,o),
(70,266,c),
(70,222,o),
(70,133,o),
(70,0,c)
);
},
{
closed = 1;
nodes = (
(36,355,o),
(44,368,o),
(59,368,cs),
(72,368,o),
(83,356,o),
(83,340,cs),
(83,325,o),
(72,313,o),
(59,313,cs),
(46,313,o),
(36,324,o),
(36,340,cs)
);
}
);
width = 457;
}
);
note = phoPhanthai;
unicode = 3614;
},
{
glyphname = phoPhungthai;
layers = (
{
layerId = m01;
shapes = (
{
closed = 1;
nodes = (
(251,75,l),
(236,103,o),
(190,170,o),
(167,191,c),
(146,168,o),
(127,147,o),
(116,131,cs),
(94,100,ls),
(91,95,o),
(88,89,o),
(85,83,cs),
(82,78,o),
(80,72,o),
(77,67,c),
(77,266,l),
(78,266,o),
(82,266,o),
(87,265,c),
(122,265,o),
(146,301,o),
(146,340,cs),
(146,379,o),
(121,415,o),
(84,415,cs),
(47,415,o),
(20,381,o),
(20,344,cs),
(20,333,o),
(20,315,o),
(20,292,cs),
(20,50,ls),
(20,22,o),
(35,0,o),
(54,0,cs),
(101,0,l),
(108,16,o),
(115,34,o),
(123,53,cs),
(131,73,o),
(146,95,o),
(167,120,c),
(208,65,o),
(226,33,o),
(242,0,c),
(257,0,o),
(278,0,o),
(307,0,c),
(307,410,l),
(298,410,o),
(279,410,o),
(251,410,c)
);
},
{
closed = 1;
nodes = (
(100,368,o),
(111,355,o),
(111,340,cs),
(111,323,o),
(100,313,o),
(87,313,cs),
(74,313,o),
(63,324,o),
(63,340,cs),
(63,357,o),
(72,368,o),
(87,368,cs)
);
}
);
width = 389;
}
);
note = phoPhungthai;
unicode = 3612;
},
{
glyphname = phoSamphaothai;
layers = (
{
layerId = m01;
shapes = (
{
closed = 1;
nodes = (
(346,0,l),
(346,297,ls),
(346,369,o),
(281,415,o),
(205,415,cs),
(136,415,o),
(71,372,o),
(46,305,c),
(74,300,o),
(102,285,o),
(117,276,c),
(97,265,o),
(79,241,o),
(79,213,cs),
(79,145,l),
(78,146,o),
(75,147,o),
(74,147,cs),
(63,147,ls),
(28,147,o),
(-1,113,o),
(-1,73,cs),
(-1,32,o),
(27,-5,o),
(70,-5,cs),
(106,-5,o),
(135,32,o),
(135,72,cs),
(135,211,ls),
(135,235,o),
(158,260,o),
(189,279,c),
(174,295,o),
(160,300,o),
(116,323,c),
(131,344,o),
(163,362,o),
(202,362,cs),
(251,362,o),
(290,336,o),
(290,291,cs),
(290,226,o),
(290,129,o),
(290,0,c)
);
},
{
closed = 1;
nodes = (
(40,86,o),
(50,100,o),
(63,100,cs),
(78,100,o),
(87,86,o),
(87,73,cs),
(87,60,o),
(78,45,o),
(63,45,cs),
(50,45,o),
(40,60,o),
(40,73,cs)
);
}
);
width = 428;
}
);
note = phoSamphaothai;
unicode = 3616;
},
{
glyphname = plus;
layers = (
{
layerId = m01;
shapes = (
{
closed = 1;
nodes = (
(219,396,l),
(164,396,l),
(164,369,o),
(164,314,o),
(164,232,c),
(0,232,l),
(0,229,o),
(0,224,o),
(0,216,cs),
(0,177,l),
(27,177,o),
(82,177,o),
(164,177,c),
(164,13,l),
(173,13,o),
(192,13,o),
(219,13,c),
(219,177,l),
(246,177,o),
(301,177,o),
(383,177,c),
(383,232,l),
(356,232,o),
(301,232,o),
(219,232,c)
);
}
);
width = 465;
}
);
note = plus;
unicode = 43;
},
{
glyphname = poPlathai;
layers = (
{
layerId = m01;
shapes = (
{
closed = 1;
nodes = (
(336,666,l),
(327,666,o),
(308,666,o),
(280,666,c),
(280,69,ls),
(280,52,o),
(269,47,o),
(254,47,cs),
(152,47,ls),
(139,47,o),
(126,52,o),
(126,69,cs),
(126,344,ls),
(126,380,o),
(102,415,o),
(62,415,cs),
(27,415,o),
(0,381,o),
(0,340,cs),
(0,303,o),
(26,265,o),
(59,265,c),
(62,266,o),
(65,266,o),
(70,266,c),
(70,43,ls),
(70,15,o),
(86,0,o),
(121,0,cs),
(285,0,ls),
(318,0,o),
(336,15,o),
(336,43,cs)
);
},
{
closed = 1;
nodes = (
(36,355,o),
(44,368,o),
(59,368,cs),
(72,368,o),
(83,356,o),
(83,340,cs),
(83,325,o),
(72,313,o),
(59,313,cs),
(46,313,o),
(36,324,o),
(36,340,cs)
);
}
);
width = 418;
}
);
note = poPlathai;
unicode = 3611;
},
{
glyphname = q;
layers = (
{
layerId = m01;
shapes = (
{
closed = 1;
nodes = (
(185,369,o),
(155,386,o),
(118,386,cs),
(46,386,o),
(6,306,o),
(6,182,cs),
(6,49,o),
(46,-10,o),
(123,-10,cs),
(156,-10,o),
(177,6,o),
(204,41,c),
(204,4,o),
(204,-51,o),
(204,-124,c),
(257,-124,l),
(257,-41,o),
(257,126,o),
(257,376,c),
(206,376,l),
(206,369,o),
(206,356,o),
(205,337,c)
);
},
{
closed = 1;
nodes = (
(84,35,o),
(61,80,o),
(61,172,cs),
(61,276,o),
(74,341,o),
(134,341,cs),
(159,341,o),
(176,329,o),
(187,306,cs),
(198,283,o),
(204,244,o),
(204,189,cs),
(204,134,o),
(198,94,o),
(187,70,cs),
(176,47,o),
(157,35,o),
(132,35,cs)
);
}
);
width = 338;
}
);
note = q;
unicode = 113;
},
{
glyphname = question;
layers = (
{
layerId = m01;
shapes = (
{
closed = 1;
nodes = (
(154,380,o),
(141,372,o),
(126,372,cs),
(95,372,o),
(61,396,o),
(61,432,cs),
(61,480,o),
(113,519,o),
(177,519,cs),
(242,519,o),
(283,471,o),
(283,431,cs),
(283,414,o),
(275,387,o),
(256,364,c),
(253,359,o),
(248,353,o),
(242,345,cs),
(222,321,o),
(186,281,o),
(163,236,cs),
(151,212,o),
(142,186,o),
(142,161,cs),
(142,153,ls),
(142,125,o),
(153,111,o),
(173,111,cs),
(192,111,o),
(204,124,o),
(209,151,cs),
(220,214,o),
(226,227,o),
(255,264,cs),
(279,295,o),
(324,349,o),
(336,380,cs),
(343,396,o),
(346,412,o),
(346,428,cs),
(346,512,o),
(271,574,o),
(182,574,cs),
(86,574,o),
(1,519,o),
(1,428,cs),
(1,364,o),
(58,316,o),
(119,316,cs),
(182,316,o),
(229,358,o),
(229,414,cs),
(229,451,o),
(202,478,o),
(170,478,cs),
(141,478,o),
(117,460,o),
(117,432,cs),
(117,407,o),
(137,387,o),
(162,387,c)
);
},
{
closed = 1;
nodes = (
(147,89,o),
(125,67,o),
(125,42,cs),
(125,15,o),
(147,-5,o),
(171,-5,cs),
(195,-5,o),
(219,14,o),
(219,42,cs),
(219,67,o),
(197,89,o),
(172,89,cs)
);
}
);
width = 428;
}
);
note = question;
unicode = 63;
},
{
glyphname = quotedbl;
layers = (
{
layerId = m01;
shapes = (
{
closed = 1;
nodes = (
(-1,347,l),
(34,347,l),
(34,372,o),
(34,423,o),
(34,500,c),
(-1,500,l),
(-1,493,o),
(-1,478,o),
(-1,455,cs)
);
},
{
closed = 1;
nodes = (
(74,347,l),
(110,347,l),
(110,372,o),
(110,423,o),
(110,500,c),
(74,500,l),
(74,493,o),
(74,480,o),
(74,461,cs)
);
}
);
width = 169;
}
);
note = quotedbl;
unicode = 34;
},
{
glyphname = quotedblbase;
lastChange = "2026-03-15 09:39:13 +0000";
layers = (
{
layerId = m01;
shapes = (
{
closed = 1;
nodes = (
(-307,488,o),
(-254,482,o),
(-211,477,cs),
(-199,476,o),
(-188,475,o),
(-178,474,cs),
(-154,471,l),
(-163,500,o),
(-181,526,o),
(-206,549,c),
(-178,560,o),
(-164,583,o),
(-164,608,cs),
(-164,643,o),
(-190,671,o),
(-226,671,cs),
(-263,671,o),
(-289,643,o),
(-289,608,cs),
(-289,603,o),
(-288,594,o),
(-287,593,c),
(-309,596,ls),
(-316,597,o),
(-324,598,o),
(-331,598,cs),
(-407,598,o),
(-473,543,o),
(-473,474,c),
(-434,483,o),
(-380,488,o),
(-339,488,cs)
);
},
{
closed = 1;
nodes = (
(-251,621,o),
(-240,632,o),
(-227,632,cs),
(-214,632,o),
(-204,620,o),
(-204,608,cs),
(-204,595,o),
(-214,585,o),
(-227,585,cs),
(-240,585,o),
(-251,595,o),
(-251,608,cs)
);
},
{
closed = 1;
nodes = (
(-261,521,o),
(-296,526,o),
(-335,526,cs),
(-358,526,o),
(-387,525,o),
(-410,518,c),
(-397,537,o),
(-363,552,o),
(-328,552,cs),
(-288,552,o),
(-247,537,o),
(-230,517,c)
);
}
);
width = 0;
},
{
associatedMasterId = m01;
attr = {
colorPalette = 1;
};
layerId = "91A81BB4-FAD5-49BF-A4FF-0A451D677CAF";
name = "15 Mar 69 BE 16:39";
shapes = (
{
closed = 1;
nodes = (
(-307,488,o),
(-254,482,o),
(-211,477,cs),
(-199,476,o),
(-188,475,o),
(-178,474,cs),
(-154,471,l),
(-163,500,o),
(-181,526,o),
(-206,549,c),
(-178,560,o),
(-164,583,o),
(-164,608,cs),
(-164,643,o),
(-190,671,o),
(-226,671,cs),
(-263,671,o),
(-289,643,o),
(-289,608,cs),
(-289,603,o),
(-288,594,o),
(-287,593,c),
(-309,596,ls),
(-316,597,o),
(-324,598,o),
(-331,598,cs),
(-407,598,o),
(-473,543,o),
(-473,474,c),
(-434,483,o),
(-380,488,o),
(-339,488,cs)
);
},
{
closed = 1;
nodes = (
(-251,621,o),
(-240,632,o),
(-227,632,cs),
(-214,632,o),
(-204,620,o),
(-204,608,cs),
(-204,595,o),
(-214,585,o),
(-227,585,cs),
(-240,585,o),
(-251,595,o),
(-251,608,cs)
);
},
{
closed = 1;
nodes = (
(-261,521,o),
(-296,526,o),
(-335,526,cs),
(-358,526,o),
(-387,525,o),
(-410,518,c),
(-397,537,o),
(-363,552,o),
(-328,552,cs),
(-288,552,o),
(-247,537,o),
(-230,517,c)
);
}
);
visible = 1;
width = 0;
}
);
note = quotedblbase;
unicode = 8222;
},
{
glyphname = quotedblleft;
layers = (
{
layerId = m01;
shapes = (
{
closed = 1;
nodes = (
(70,437,o),
(64,436,o),
(59,435,c),
(59,451,o),
(72,466,o),
(95,466,c),
(95,507,l),
(91,508,o),
(84,509,o),
(80,509,cs),
(33,509,o),
(0,473,o),
(0,426,cs),
(0,379,o),
(32,347,o),
(75,347,cs),
(100,347,o),
(120,367,o),
(120,392,cs),
(120,417,o),
(100,437,o),
(75,437,cs)
);
},
{
closed = 1;
nodes = (
(227,437,o),
(221,436,o),
(216,435,c),
(216,455,o),
(233,466,o),
(252,466,c),
(252,507,l),
(245,508,o),
(240,509,o),
(236,509,cs),
(191,509,o),
(157,473,o),
(157,426,cs),
(157,382,o),
(188,347,o),
(231,347,cs),
(255,347,o),
(276,364,o),
(276,392,cs),
(276,420,o),
(255,437,o),
(231,437,cs)
);
}
);
width = 358;
}
);
note = quotedblleft;
unicode = 8220;
},
{
glyphname = quotedblright;
layers = (
{
layerId = m01;
shapes = (
{
closed = 1;
nodes = (
(50,417,o),
(56,418,o),
(60,419,c),
(60,398,o),
(42,388,o),
(25,388,c),
(25,347,l),
(32,346,o),
(37,345,o),
(41,345,cs),
(86,345,o),
(120,381,o),
(120,428,cs),
(120,472,o),
(88,507,o),
(45,507,cs),
(21,507,o),
(0,490,o),
(0,462,cs),
(0,434,o),
(21,417,o),
(45,417,cs)
);
},
{
closed = 1;
nodes = (
(207,417,o),
(212,418,o),
(217,419,c),
(217,398,o),
(200,388,o),
(181,388,c),
(181,347,l),
(189,346,o),
(193,345,o),
(197,345,cs),
(244,345,o),
(276,381,o),
(276,428,cs),
(276,472,o),
(245,507,o),
(202,507,cs),
(177,507,o),
(157,486,o),
(157,462,cs),
(157,437,o),
(177,417,o),
(202,417,cs)
);
}
);
width = 358;
}
);
note = quotedblright;
unicode = 8221;
},
{
glyphname = quoteleft;
lastChange = "2026-03-15 09:43:41 +0000";
layers = (
{
layerId = m01;
shapes = (
{
closed = 1;
nodes = (
(70,437,o),
(64,436,o),
(59,435,c),
(59,451,o),
(72,466,o),
(95,466,c),
(95,507,l),
(91,508,o),
(84,509,o),
(80,509,cs),
(33,509,o),
(0,473,o),
(0,426,cs),
(0,379,o),
(32,347,o),
(75,347,cs),
(100,347,o),
(120,367,o),
(120,392,cs),
(120,417,o),
(100,437,o),
(75,437,cs)
);
}
);
width = 202;
},
{
associatedMasterId = m01;
attr = {
colorPalette = 1;
};
layerId = "F8461059-CAF6-4A60-99A0-67A46F675AD0";
name = "15 Mar 69 BE 16:43";
shapes = (
{
closed = 1;
nodes = (
(70,437,o),
(64,436,o),
(59,435,c),
(59,451,o),
(72,466,o),
(95,466,c),
(95,507,l),
(91,508,o),
(84,509,o),
(80,509,cs),
(33,509,o),
(0,473,o),
(0,426,cs),
(0,379,o),
(32,347,o),
(75,347,cs),
(100,347,o),
(120,367,o),
(120,392,cs),
(120,417,o),
(100,437,o),
(75,437,cs)
);
}
);
visible = 1;
width = 202;
}
);
note = quoteleft;
unicode = 8216;
},
{
glyphname = quoteright;
layers = (
{
layerId = m01;
shapes = (
{
closed = 1;
nodes = (
(50,417,o),
(56,418,o),
(60,419,c),
(60,398,o),
(42,388,o),
(25,388,c),
(25,347,l),
(32,346,o),
(37,345,o),
(41,345,cs),
(86,345,o),
(120,381,o),
(120,428,cs),
(120,472,o),
(88,507,o),
(45,507,cs),
(21,507,o),
(0,490,o),
(0,462,cs),
(0,434,o),
(21,417,o),
(45,417,cs)
);
}
);
width = 202;
}
);
note = quoteright;
unicode = 8217;
},
{
glyphname = quotesinglbase;
lastChange = "2026-03-15 09:39:22 +0000";
layers = (
{
layerId = m01;
shapes = (
{
closed = 1;
nodes = (
(-427,514,o),
(-375,519,o),
(-339,519,cs),
(-286,519,o),
(-207,510,o),
(-159,502,c),
(-187,578,o),
(-252,629,o),
(-331,629,cs),
(-404,629,o),
(-468,576,o),
(-468,505,c)
);
},
{
closed = 1;
nodes = (
(-267,553,o),
(-301,556,o),
(-338,556,cs),
(-357,556,o),
(-388,553,o),
(-404,549,c),
(-391,569,o),
(-363,583,o),
(-328,583,cs),
(-292,583,o),
(-255,569,o),
(-236,548,c)
);
}
);
width = 0;
},
{
associatedMasterId = m01;
attr = {
colorPalette = 1;
};
layerId = "B6B12313-3795-48C0-A541-F6433016A855";
name = "15 Mar 69 BE 16:39";
shapes = (
{
closed = 1;
nodes = (
(-427,514,o),
(-375,519,o),
(-339,519,cs),
(-286,519,o),
(-207,510,o),
(-159,502,c),
(-187,578,o),
(-252,629,o),
(-331,629,cs),
(-404,629,o),
(-468,576,o),
(-468,505,c)
);
},
{
closed = 1;
nodes = (
(-267,553,o),
(-301,556,o),
(-338,556,cs),
(-357,556,o),
(-388,553,o),
(-404,549,c),
(-391,569,o),
(-363,583,o),
(-328,583,cs),
(-292,583,o),
(-255,569,o),
(-236,548,c)
);
}
);
width = 0;
}
);
note = quotesinglbase;
unicode = 8218;
},
{
glyphname = quotesingle;
lastChange = "2026-03-15 09:39:30 +0000";
layers = (
{
layerId = m01;
shapes = (
{
closed = 1;
nodes = (
(36,347,l),
(72,347,l),
(72,372,o),
(72,423,o),
(72,500,c),
(36,500,l),
(36,497,o),
(36,490,o),
(36,480,cs)
);
}
);
width = 169;
},
{
associatedMasterId = m01;
attr = {
colorPalette = 1;
};
layerId = "1B34B3D9-0A9B-4BF0-A36E-EB4DC910812D";
name = "15 Mar 69 BE 16:39";
shapes = (
{
closed = 1;
nodes = (
(36,347,l),
(72,347,l),
(72,372,o),
(72,423,o),
(72,500,c),
(36,500,l),
(36,497,o),
(36,490,o),
(36,480,cs)
);
}
);
visible = 1;
width = 169;
}
);
note = quotesingle;
unicode = 39;
},
{
glyphname = r;
layers = (
{
layerId = m01;
shapes = (
{
closed = 1;
nodes = (
(76,376,l),
(24,376,l),
(24,360,o),
(24,329,o),
(24,282,cs),
(24,0,l),
(33,0,o),
(51,0,o),
(78,0,c),
(78,227,ls),
(78,292,o),
(110,329,o),
(165,329,cs),
(169,329,o),
(173,329,o),
(177,328,cs),
(180,327,o),
(184,327,o),
(187,327,c),
(187,380,l),
(186,381,o),
(185,381,o),
(182,381,cs),
(172,381,ls),
(125,381,o),
(99,359,o),
(76,314,c)
);
}
);
width = 225;
}
);
note = r;
unicode = 114;
},
{
glyphname = roRuathai;
layers = (
{
layerId = m01;
shapes = (
{
closed = 1;
nodes = (
(27,291,o),
(61,288,o),
(93,283,cs),
(122,278,o),
(146,272,o),
(167,264,cs),
(188,256,o),
(198,248,o),
(198,239,cs),
(198,141,l),
(196,142,o),
(192,142,o),
(187,142,cs),
(151,142,o),
(124,109,o),
(124,69,cs),
(124,25,o),
(152,-5,o),
(189,-5,cs),
(221,-5,o),
(254,25,o),
(254,68,cs),
(254,254,ls),
(254,302,o),
(158,332,o),
(57,332,c),
(72,356,o),
(84,365,o),
(108,365,cs),
(112,365,o),
(129,362,o),
(158,355,cs),
(187,349,o),
(214,346,o),
(239,346,cs),
(266,346,o),
(282,352,o),
(301,369,c),
(296,381,o),
(287,399,o),
(275,423,c),
(259,408,o),
(242,402,o),
(221,402,cs),
(218,402,o),
(216,402,o),
(213,403,c),
(210,403,o),
(206,403,o),
(203,403,c),
(176,408,ls),
(167,409,o),
(160,411,o),
(153,412,cs),
(146,413,o),
(140,414,o),
(135,414,cs),
(59,414,o),
(-5,356,o),
(-5,291,c)
);
},
{
closed = 1;
nodes = (
(159,84,o),
(169,95,o),
(184,95,cs),
(197,95,o),
(210,85,o),
(210,69,cs),
(210,54,o),
(197,42,o),
(184,42,cs),
(171,42,o),
(159,54,o),
(159,69,cs)
);
}
);
width = 338;
}
);
note = roRuathai;
unicode = 3619;
},
{
glyphname = ruthai;
layers = (
{
layerId = m01;
shapes = (
{
closed = 1;
nodes = (
(311,-225,l),
(311,297,ls),
(311,369,o),
(239,415,o),
(163,415,cs),
(91,415,o),
(22,370,o),
(-3,305,c),
(25,300,o),
(53,285,o),
(68,276,c),
(47,265,o),
(30,238,o),
(30,213,cs),
(30,74,ls),
(30,33,o),
(58,-3,o),
(95,-3,cs),
(132,-3,o),
(159,28,o),
(159,72,cs),
(159,115,o),
(130,147,o),
(95,147,cs),
(93,147,o),
(90,147,o),
(86,146,c),
(86,211,ls),
(86,235,o),
(109,260,o),
(140,279,c),
(133,288,o),
(124,294,o),
(113,299,cs),
(67,323,l),
(82,350,o),
(125,362,o),
(160,362,cs),
(209,362,o),
(255,335,o),
(255,291,cs),
(255,176,o),
(255,4,o),
(255,-225,c)
);
},
{
closed = 1;
nodes = (
(72,85,o),
(82,96,o),
(95,96,cs),
(107,96,o),
(119,85,o),
(119,70,cs),
(119,54,o),
(108,43,o),
(95,43,cs),
(82,43,o),
(72,54,o),
(72,70,cs)
);
}
);
width = 393;
}
);
note = ruthai;
unicode = 3620;
},
{
glyphname = s;
layers = (
{
layerId = m01;
shapes = (
{
closed = 1;
nodes = (
(226,275,l),
(226,354,o),
(187,386,o),
(110,386,cs),
(43,386,o),
(0,343,o),
(0,280,cs),
(0,233,o),
(23,208,o),
(52,191,cs),
(61,186,o),
(71,181,o),
(82,177,cs),
(103,169,o),
(135,159,o),
(163,140,cs),
(177,131,o),
(184,117,o),
(184,98,cs),
(184,57,o),
(162,35,o),
(113,35,cs),
(68,35,o),
(49,57,o),
(49,110,c),
(-2,110,l),
(-2,109,o),
(-2,108,o),
(-2,107,cs),
(-2,87,l),
(6,36,o),
(33,-10,o),
(113,-10,cs),
(192,-10,o),
(240,36,o),
(240,105,cs),
(240,136,o),
(229,160,o),
(206,177,cs),
(200,182,o),
(190,187,o),
(175,193,cs),
(160,199,o),
(140,208,o),
(115,221,c),
(76,237,o),
(55,249,o),
(55,284,cs),
(55,321,o),
(75,341,o),
(115,341,cs),
(158,341,o),
(174,323,o),
(174,275,c)
);
}
);
width = 300;
}
);
note = s;
unicode = 115;
},
{
glyphname = saraAathai;
lastChange = "2026-03-15 09:44:02 +0000";
layers = (
{
layerId = m01;
shapes = (
{
closed = 1;
nodes = (
(51,415,o),
(-1,371,o),
(-10,314,c),
(44,314,l),
(55,349,o),
(79,365,o),
(116,365,cs),
(153,365,o),
(182,344,o),
(182,305,cs),
(182,0,l),
(191,0,o),
(210,0,o),
(239,0,c),
(239,318,ls),
(239,371,o),
(184,415,o),
(116,415,cs)
);
}
);
width = 321;
},
{
associatedMasterId = m01;
attr = {
colorPalette = 1;
};
layerId = "A3BE176A-45CE-4162-A10B-F8D4C56F9EF4";
name = "15 Mar 69 BE 16:43";
shapes = (
{
closed = 1;
nodes = (
(51,415,o),
(-1,371,o),
(-10,314,c),
(44,314,l),
(55,349,o),
(79,365,o),
(116,365,cs),
(153,365,o),
(182,344,o),
(182,305,cs),
(182,0,l),
(191,0,o),
(210,0,o),
(239,0,c),
(239,318,ls),
(239,371,o),
(184,415,o),
(116,415,cs)
);
}
);
visible = 1;
width = 321;
}
);
note = saraAathai;
unicode = 3634;
},
{
glyphname = saraAethai;
lastChange = "2026-03-15 09:55:14 +0000";
layers = (
{
layerId = m01;
shapes = (
{
closed = 1;
nodes = (
(20,410,l),
(20,399,o),
(20,378,o),
(20,345,cs),
(20,68,ls),
(20,28,o),
(50,-5,o),
(85,-5,cs),
(122,-5,o),
(151,25,o),
(151,69,cs),
(151,109,o),
(123,142,o),
(87,142,cs),
(85,142,o),
(82,142,o),
(77,141,c),
(77,186,o),
(77,275,o),
(77,410,c)
);
},
{
closed = 1;
nodes = (
(184,410,l),
(184,68,ls),
(184,27,o),
(213,-5,o),
(249,-5,cs),
(285,-5,o),
(314,25,o),
(314,69,cs),
(314,109,o),
(287,142,o),
(251,142,cs),
(249,142,o),
(247,142,o),
(245,142,cs),
(241,141,l),
(241,201,o),
(241,291,o),
(241,410,c)
);
},
{
closed = 1;
nodes = (
(105,95,o),
(116,82,o),
(116,69,cs),
(116,53,o),
(106,42,o),
(90,42,cs),
(75,42,o),
(65,54,o),
(65,69,cs),
(65,84,o),
(75,95,o),
(90,95,cs)
);
},
{
closed = 1;
nodes = (
(269,95,o),
(280,82,o),
(280,69,cs),
(280,53,o),
(269,42,o),
(254,42,cs),
(239,42,o),
(228,54,o),
(228,69,cs),
(228,84,o),
(238,95,o),
(254,95,cs)
);
}
);
width = 370;
},
{
associatedMasterId = m01;
attr = {
colorPalette = 1;
};
layerId = "3409DC8B-A35B-4C4B-8D69-D0FDE49BBDE7";
name = "15 Mar 69 BE 16:55";
shapes = (
{
closed = 1;
nodes = (
(20,410,l),
(20,399,o),
(20,378,o),
(20,345,cs),
(20,68,ls),
(20,28,o),
(50,-5,o),
(85,-5,cs),
(122,-5,o),
(151,25,o),
(151,69,cs),
(151,109,o),
(123,142,o),
(87,142,cs),
(85,142,o),
(82,142,o),
(77,141,c),
(77,186,o),
(77,275,o),
(77,410,c)
);
},
{
closed = 1;
nodes = (
(184,410,l),
(184,68,ls),
(184,27,o),
(213,-5,o),
(249,-5,cs),
(285,-5,o),
(314,25,o),
(314,69,cs),
(314,109,o),
(287,142,o),
(251,142,cs),
(249,142,o),
(247,142,o),
(245,142,cs),
(241,141,l),
(241,201,o),
(241,291,o),
(241,410,c)
);
},
{
closed = 1;
nodes = (
(105,95,o),
(116,82,o),
(116,69,cs),
(116,53,o),
(106,42,o),
(90,42,cs),
(75,42,o),
(65,54,o),
(65,69,cs),
(65,84,o),
(75,95,o),
(90,95,cs)
);
},
{
closed = 1;
nodes = (
(269,95,o),
(280,82,o),
(280,69,cs),
(280,53,o),
(269,42,o),
(254,42,cs),
(239,42,o),
(228,54,o),
(228,69,cs),
(228,84,o),
(238,95,o),
(254,95,cs)
);
}
);
visible = 1;
width = 370;
}
);
note = saraAethai;
unicode = 3649;
},
{
glyphname = saraAiMaimalaithai;
lastChange = "2026-03-15 09:39:43 +0000";
layers = (
{
layerId = m01;
shapes = (
{
closed = 1;
nodes = (
(62,72,ls),
(62,29,o),
(93,-5,o),
(128,-5,cs),
(165,-5,o),
(191,26,o),
(191,70,cs),
(191,113,o),
(161,145,o),
(128,145,cs),
(126,145,o),
(123,145,o),
(119,144,c),
(119,636,ls),
(119,672,o),
(104,696,o),
(75,696,cs),
(60,696,o),
(46,681,o),
(39,664,cs),
(32,645,o),
(21,616,o),
(6,579,c),
(3,592,o),
(-2,619,o),
(-9,660,cs),
(-12,673,o),
(-21,689,o),
(-38,694,c),
(-77,665,l),
(-61,660,o),
(-50,646,o),
(-46,625,cs),
(-41,600,o),
(-34,562,o),
(-25,512,cs),
(-21,495,o),
(-15,482,o),
(-3,482,cs),
(8,482,o),
(16,488,o),
(24,508,cs),
(33,531,o),
(45,566,o),
(62,613,c)
);
},
{
closed = 1;
nodes = (
(104,81,o),
(115,94,o),
(128,94,cs),
(141,94,o),
(152,81,o),
(152,68,cs),
(152,52,o),
(141,41,o),
(128,41,cs),
(115,41,o),
(104,52,o),
(104,68,cs)
);
}
);
width = 247;
},
{
associatedMasterId = m01;
attr = {
colorPalette = 1;
};
layerId = "D589A4C3-8F30-45E2-9772-BEB0E21C4AC7";
name = "15 Mar 69 BE 16:39";
shapes = (
{
closed = 1;
nodes = (
(62,72,ls),
(62,29,o),
(93,-5,o),
(128,-5,cs),
(165,-5,o),
(191,26,o),
(191,70,cs),
(191,113,o),
(161,145,o),
(128,145,cs),
(126,145,o),
(123,145,o),
(119,144,c),
(119,636,ls),
(119,672,o),
(104,696,o),
(75,696,cs),
(60,696,o),
(46,681,o),
(39,664,cs),
(32,645,o),
(21,616,o),
(6,579,c),
(3,592,o),
(-2,619,o),
(-9,660,cs),
(-12,673,o),
(-21,689,o),
(-38,694,c),
(-77,665,l),
(-61,660,o),
(-50,646,o),
(-46,625,cs),
(-41,600,o),
(-34,562,o),
(-25,512,cs),
(-21,495,o),
(-15,482,o),
(-3,482,cs),
(8,482,o),
(16,488,o),
(24,508,cs),
(33,531,o),
(45,566,o),
(62,613,c)
);
},
{
closed = 1;
nodes = (
(104,81,o),
(115,94,o),
(128,94,cs),
(141,94,o),
(152,81,o),
(152,68,cs),
(152,52,o),
(141,41,o),
(128,41,cs),
(115,41,o),
(104,52,o),
(104,68,cs)
);
}
);
visible = 1;
width = 247;
}
);
note = saraAiMaimalaithai;
unicode = 3652;
},
{
glyphname = saraAiMaimuanthai;
lastChange = "2026-03-15 09:39:51 +0000";
layers = (
{
layerId = m01;
shapes = (
{
closed = 1;
nodes = (
(70,597,o),
(47,627,o),
(16,632,c),
(21,645,o),
(32,651,o),
(51,651,cs),
(76,651,o),
(92,632,o),
(92,603,cs),
(92,72,ls),
(92,29,o),
(123,-5,o),
(158,-5,cs),
(195,-5,o),
(221,29,o),
(221,70,cs),
(221,113,o),
(191,145,o),
(158,145,cs),
(156,145,o),
(153,145,o),
(150,144,c),
(150,597,ls),
(150,665,o),
(113,701,o),
(49,701,cs),
(-11,701,o),
(-60,642,o),
(-60,577,cs),
(-60,528,o),
(-31,489,o),
(6,489,cs),
(43,489,o),
(70,524,o),
(70,561,cs)
);
},
{
closed = 1;
nodes = (
(-19,576,o),
(-9,592,o),
(6,592,cs),
(21,592,o),
(32,579,o),
(32,563,cs),
(32,548,o),
(21,536,o),
(6,536,cs),
(-9,536,o),
(-19,548,o),
(-19,563,cs)
);
},
{
closed = 1;
nodes = (
(134,81,o),
(145,94,o),
(158,94,cs),
(171,94,o),
(181,80,o),
(181,68,cs),
(181,53,o),
(171,41,o),
(158,41,cs),
(145,41,o),
(134,53,o),
(134,68,cs)
);
}
);
width = 278;
},
{
associatedMasterId = m01;
attr = {
colorPalette = 1;
};
layerId = "99942315-55D1-46D6-86E8-16418864218B";
name = "15 Mar 69 BE 16:39";
shapes = (
{
closed = 1;
nodes = (
(70,597,o),
(47,627,o),
(16,632,c),
(21,645,o),
(32,651,o),
(51,651,cs),
(76,651,o),
(92,632,o),
(92,603,cs),
(92,72,ls),
(92,29,o),
(123,-5,o),
(158,-5,cs),
(195,-5,o),
(221,29,o),
(221,70,cs),
(221,113,o),
(191,145,o),
(158,145,cs),
(156,145,o),
(153,145,o),
(150,144,c),
(150,597,ls),
(150,665,o),
(113,701,o),
(49,701,cs),
(-11,701,o),
(-60,642,o),
(-60,577,cs),
(-60,528,o),
(-31,489,o),
(6,489,cs),
(43,489,o),
(70,524,o),
(70,561,cs)
);
},
{
closed = 1;
nodes = (
(-19,576,o),
(-9,592,o),
(6,592,cs),
(21,592,o),
(32,579,o),
(32,563,cs),
(32,548,o),
(21,536,o),
(6,536,cs),
(-9,536,o),
(-19,548,o),
(-19,563,cs)
);
},
{
closed = 1;
nodes = (
(134,81,o),
(145,94,o),
(158,94,cs),
(171,94,o),
(181,80,o),
(181,68,cs),
(181,53,o),
(171,41,o),
(158,41,cs),
(145,41,o),
(134,53,o),
(134,68,cs)
);
}
);
visible = 1;
width = 278;
}
);
note = saraAiMaimuanthai;
unicode = 3651;
},
{
glyphname = saraAmthai;
lastChange = "2026-03-15 09:40:11 +0000";
layers = (
{
layerId = m01;
shapes = (
{
closed = 1;
nodes = (
(-152,643,o),
(-186,607,o),
(-186,567,cs),
(-186,527,o),
(-152,492,o),
(-111,492,cs),
(-67,492,o),
(-35,528,o),
(-35,567,cs),
(-35,608,o),
(-70,643,o),
(-111,643,cs)
);
},
{
closed = 1;
nodes = (
(-140,583,o),
(-126,597,o),
(-111,597,cs),
(-95,597,o),
(-81,583,o),
(-81,567,cs),
(-81,552,o),
(-95,538,o),
(-111,538,cs),
(-127,538,o),
(-140,551,o),
(-140,567,cs)
);
},
{
closed = 1;
nodes = (
(51,415,o),
(-1,371,o),
(-10,314,c),
(44,314,l),
(55,349,o),
(79,365,o),
(116,365,cs),
(153,365,o),
(182,344,o),
(182,305,cs),
(182,0,l),
(191,0,o),
(210,0,o),
(239,0,c),
(239,318,ls),
(239,371,o),
(184,415,o),
(116,415,cs)
);
}
);
width = 321;
},
{
associatedMasterId = m01;
attr = {
colorPalette = 1;
};
layerId = "5657045D-204C-497C-876B-3A65F677BAAB";
name = "15 Mar 69 BE 16:39";
shapes = (
{
closed = 1;
nodes = (
(-152,643,o),
(-186,607,o),
(-186,567,cs),
(-186,527,o),
(-152,492,o),
(-111,492,cs),
(-67,492,o),
(-35,528,o),
(-35,567,cs),
(-35,608,o),
(-70,643,o),
(-111,643,cs)
);
},
{
closed = 1;
nodes = (
(-140,583,o),
(-126,597,o),
(-111,597,cs),
(-95,597,o),
(-81,583,o),
(-81,567,cs),
(-81,552,o),
(-95,538,o),
(-111,538,cs),
(-127,538,o),
(-140,551,o),
(-140,567,cs)
);
},
{
closed = 1;
nodes = (
(51,415,o),
(-1,371,o),
(-10,314,c),
(44,314,l),
(55,349,o),
(79,365,o),
(116,365,cs),
(153,365,o),
(182,344,o),
(182,305,cs),
(182,0,l),
(191,0,o),
(210,0,o),
(239,0,c),
(239,318,ls),
(239,371,o),
(184,415,o),
(116,415,cs)
);
}
);
visible = 1;
width = 321;
}
);
note = saraAmthai;
unicode = 3635;
},
